%TF.GenerationSoftware,KiCad,Pcbnew,8.0.2*%
%TF.CreationDate,2024-08-26T06:59:03-04:00*%
%TF.ProjectId,TRS-80-M3-VID2,5452532d-3830-42d4-9d33-2d564944322e,rev?*%
%TF.SameCoordinates,Original*%
%TF.FileFunction,Legend,Top*%
%TF.FilePolarity,Positive*%
%FSLAX46Y46*%
G04 Gerber Fmt 4.6, Leading zero omitted, Abs format (unit mm)*
G04 Created by KiCad (PCBNEW 8.0.2) date 2024-08-26 06:59:03*
%MOMM*%
%LPD*%
G01*
G04 APERTURE LIST*
%ADD10C,0.150000*%
%ADD11C,0.120000*%
%ADD12C,0.254000*%
%ADD13C,0.152400*%
%ADD14C,0.050800*%
%ADD15C,0.010000*%
G04 APERTURE END LIST*
D10*
X129264580Y-54484166D02*
X129312200Y-54531785D01*
X129312200Y-54531785D02*
X129359819Y-54674642D01*
X129359819Y-54674642D02*
X129359819Y-54769880D01*
X129359819Y-54769880D02*
X129312200Y-54912737D01*
X129312200Y-54912737D02*
X129216961Y-55007975D01*
X129216961Y-55007975D02*
X129121723Y-55055594D01*
X129121723Y-55055594D02*
X128931247Y-55103213D01*
X128931247Y-55103213D02*
X128788390Y-55103213D01*
X128788390Y-55103213D02*
X128597914Y-55055594D01*
X128597914Y-55055594D02*
X128502676Y-55007975D01*
X128502676Y-55007975D02*
X128407438Y-54912737D01*
X128407438Y-54912737D02*
X128359819Y-54769880D01*
X128359819Y-54769880D02*
X128359819Y-54674642D01*
X128359819Y-54674642D02*
X128407438Y-54531785D01*
X128407438Y-54531785D02*
X128455057Y-54484166D01*
X128359819Y-54150832D02*
X128359819Y-53531785D01*
X128359819Y-53531785D02*
X128740771Y-53865118D01*
X128740771Y-53865118D02*
X128740771Y-53722261D01*
X128740771Y-53722261D02*
X128788390Y-53627023D01*
X128788390Y-53627023D02*
X128836009Y-53579404D01*
X128836009Y-53579404D02*
X128931247Y-53531785D01*
X128931247Y-53531785D02*
X129169342Y-53531785D01*
X129169342Y-53531785D02*
X129264580Y-53579404D01*
X129264580Y-53579404D02*
X129312200Y-53627023D01*
X129312200Y-53627023D02*
X129359819Y-53722261D01*
X129359819Y-53722261D02*
X129359819Y-54007975D01*
X129359819Y-54007975D02*
X129312200Y-54103213D01*
X129312200Y-54103213D02*
X129264580Y-54150832D01*
X112863333Y-100087319D02*
X112530000Y-99611128D01*
X112291905Y-100087319D02*
X112291905Y-99087319D01*
X112291905Y-99087319D02*
X112672857Y-99087319D01*
X112672857Y-99087319D02*
X112768095Y-99134938D01*
X112768095Y-99134938D02*
X112815714Y-99182557D01*
X112815714Y-99182557D02*
X112863333Y-99277795D01*
X112863333Y-99277795D02*
X112863333Y-99420652D01*
X112863333Y-99420652D02*
X112815714Y-99515890D01*
X112815714Y-99515890D02*
X112768095Y-99563509D01*
X112768095Y-99563509D02*
X112672857Y-99611128D01*
X112672857Y-99611128D02*
X112291905Y-99611128D01*
X113434762Y-99515890D02*
X113339524Y-99468271D01*
X113339524Y-99468271D02*
X113291905Y-99420652D01*
X113291905Y-99420652D02*
X113244286Y-99325414D01*
X113244286Y-99325414D02*
X113244286Y-99277795D01*
X113244286Y-99277795D02*
X113291905Y-99182557D01*
X113291905Y-99182557D02*
X113339524Y-99134938D01*
X113339524Y-99134938D02*
X113434762Y-99087319D01*
X113434762Y-99087319D02*
X113625238Y-99087319D01*
X113625238Y-99087319D02*
X113720476Y-99134938D01*
X113720476Y-99134938D02*
X113768095Y-99182557D01*
X113768095Y-99182557D02*
X113815714Y-99277795D01*
X113815714Y-99277795D02*
X113815714Y-99325414D01*
X113815714Y-99325414D02*
X113768095Y-99420652D01*
X113768095Y-99420652D02*
X113720476Y-99468271D01*
X113720476Y-99468271D02*
X113625238Y-99515890D01*
X113625238Y-99515890D02*
X113434762Y-99515890D01*
X113434762Y-99515890D02*
X113339524Y-99563509D01*
X113339524Y-99563509D02*
X113291905Y-99611128D01*
X113291905Y-99611128D02*
X113244286Y-99706366D01*
X113244286Y-99706366D02*
X113244286Y-99896842D01*
X113244286Y-99896842D02*
X113291905Y-99992080D01*
X113291905Y-99992080D02*
X113339524Y-100039700D01*
X113339524Y-100039700D02*
X113434762Y-100087319D01*
X113434762Y-100087319D02*
X113625238Y-100087319D01*
X113625238Y-100087319D02*
X113720476Y-100039700D01*
X113720476Y-100039700D02*
X113768095Y-99992080D01*
X113768095Y-99992080D02*
X113815714Y-99896842D01*
X113815714Y-99896842D02*
X113815714Y-99706366D01*
X113815714Y-99706366D02*
X113768095Y-99611128D01*
X113768095Y-99611128D02*
X113720476Y-99563509D01*
X113720476Y-99563509D02*
X113625238Y-99515890D01*
X156499819Y-60801904D02*
X157309342Y-60801904D01*
X157309342Y-60801904D02*
X157404580Y-60754285D01*
X157404580Y-60754285D02*
X157452200Y-60706666D01*
X157452200Y-60706666D02*
X157499819Y-60611428D01*
X157499819Y-60611428D02*
X157499819Y-60420952D01*
X157499819Y-60420952D02*
X157452200Y-60325714D01*
X157452200Y-60325714D02*
X157404580Y-60278095D01*
X157404580Y-60278095D02*
X157309342Y-60230476D01*
X157309342Y-60230476D02*
X156499819Y-60230476D01*
X156595057Y-59801904D02*
X156547438Y-59754285D01*
X156547438Y-59754285D02*
X156499819Y-59659047D01*
X156499819Y-59659047D02*
X156499819Y-59420952D01*
X156499819Y-59420952D02*
X156547438Y-59325714D01*
X156547438Y-59325714D02*
X156595057Y-59278095D01*
X156595057Y-59278095D02*
X156690295Y-59230476D01*
X156690295Y-59230476D02*
X156785533Y-59230476D01*
X156785533Y-59230476D02*
X156928390Y-59278095D01*
X156928390Y-59278095D02*
X157499819Y-59849523D01*
X157499819Y-59849523D02*
X157499819Y-59230476D01*
X136304580Y-55761666D02*
X136352200Y-55809285D01*
X136352200Y-55809285D02*
X136399819Y-55952142D01*
X136399819Y-55952142D02*
X136399819Y-56047380D01*
X136399819Y-56047380D02*
X136352200Y-56190237D01*
X136352200Y-56190237D02*
X136256961Y-56285475D01*
X136256961Y-56285475D02*
X136161723Y-56333094D01*
X136161723Y-56333094D02*
X135971247Y-56380713D01*
X135971247Y-56380713D02*
X135828390Y-56380713D01*
X135828390Y-56380713D02*
X135637914Y-56333094D01*
X135637914Y-56333094D02*
X135542676Y-56285475D01*
X135542676Y-56285475D02*
X135447438Y-56190237D01*
X135447438Y-56190237D02*
X135399819Y-56047380D01*
X135399819Y-56047380D02*
X135399819Y-55952142D01*
X135399819Y-55952142D02*
X135447438Y-55809285D01*
X135447438Y-55809285D02*
X135495057Y-55761666D01*
X135733152Y-54904523D02*
X136399819Y-54904523D01*
X135352200Y-55142618D02*
X136066485Y-55380713D01*
X136066485Y-55380713D02*
X136066485Y-54761666D01*
X112863333Y-100212319D02*
X112530000Y-99736128D01*
X112291905Y-100212319D02*
X112291905Y-99212319D01*
X112291905Y-99212319D02*
X112672857Y-99212319D01*
X112672857Y-99212319D02*
X112768095Y-99259938D01*
X112768095Y-99259938D02*
X112815714Y-99307557D01*
X112815714Y-99307557D02*
X112863333Y-99402795D01*
X112863333Y-99402795D02*
X112863333Y-99545652D01*
X112863333Y-99545652D02*
X112815714Y-99640890D01*
X112815714Y-99640890D02*
X112768095Y-99688509D01*
X112768095Y-99688509D02*
X112672857Y-99736128D01*
X112672857Y-99736128D02*
X112291905Y-99736128D01*
X113339524Y-100212319D02*
X113530000Y-100212319D01*
X113530000Y-100212319D02*
X113625238Y-100164700D01*
X113625238Y-100164700D02*
X113672857Y-100117080D01*
X113672857Y-100117080D02*
X113768095Y-99974223D01*
X113768095Y-99974223D02*
X113815714Y-99783747D01*
X113815714Y-99783747D02*
X113815714Y-99402795D01*
X113815714Y-99402795D02*
X113768095Y-99307557D01*
X113768095Y-99307557D02*
X113720476Y-99259938D01*
X113720476Y-99259938D02*
X113625238Y-99212319D01*
X113625238Y-99212319D02*
X113434762Y-99212319D01*
X113434762Y-99212319D02*
X113339524Y-99259938D01*
X113339524Y-99259938D02*
X113291905Y-99307557D01*
X113291905Y-99307557D02*
X113244286Y-99402795D01*
X113244286Y-99402795D02*
X113244286Y-99640890D01*
X113244286Y-99640890D02*
X113291905Y-99736128D01*
X113291905Y-99736128D02*
X113339524Y-99783747D01*
X113339524Y-99783747D02*
X113434762Y-99831366D01*
X113434762Y-99831366D02*
X113625238Y-99831366D01*
X113625238Y-99831366D02*
X113720476Y-99783747D01*
X113720476Y-99783747D02*
X113768095Y-99736128D01*
X113768095Y-99736128D02*
X113815714Y-99640890D01*
X164973095Y-105039819D02*
X164973095Y-104039819D01*
X164973095Y-104516009D02*
X165544523Y-104516009D01*
X165544523Y-105039819D02*
X165544523Y-104039819D01*
X165925476Y-104039819D02*
X166544523Y-104039819D01*
X166544523Y-104039819D02*
X166211190Y-104420771D01*
X166211190Y-104420771D02*
X166354047Y-104420771D01*
X166354047Y-104420771D02*
X166449285Y-104468390D01*
X166449285Y-104468390D02*
X166496904Y-104516009D01*
X166496904Y-104516009D02*
X166544523Y-104611247D01*
X166544523Y-104611247D02*
X166544523Y-104849342D01*
X166544523Y-104849342D02*
X166496904Y-104944580D01*
X166496904Y-104944580D02*
X166449285Y-104992200D01*
X166449285Y-104992200D02*
X166354047Y-105039819D01*
X166354047Y-105039819D02*
X166068333Y-105039819D01*
X166068333Y-105039819D02*
X165973095Y-104992200D01*
X165973095Y-104992200D02*
X165925476Y-104944580D01*
X161424580Y-60174166D02*
X161472200Y-60221785D01*
X161472200Y-60221785D02*
X161519819Y-60364642D01*
X161519819Y-60364642D02*
X161519819Y-60459880D01*
X161519819Y-60459880D02*
X161472200Y-60602737D01*
X161472200Y-60602737D02*
X161376961Y-60697975D01*
X161376961Y-60697975D02*
X161281723Y-60745594D01*
X161281723Y-60745594D02*
X161091247Y-60793213D01*
X161091247Y-60793213D02*
X160948390Y-60793213D01*
X160948390Y-60793213D02*
X160757914Y-60745594D01*
X160757914Y-60745594D02*
X160662676Y-60697975D01*
X160662676Y-60697975D02*
X160567438Y-60602737D01*
X160567438Y-60602737D02*
X160519819Y-60459880D01*
X160519819Y-60459880D02*
X160519819Y-60364642D01*
X160519819Y-60364642D02*
X160567438Y-60221785D01*
X160567438Y-60221785D02*
X160615057Y-60174166D01*
X160615057Y-59793213D02*
X160567438Y-59745594D01*
X160567438Y-59745594D02*
X160519819Y-59650356D01*
X160519819Y-59650356D02*
X160519819Y-59412261D01*
X160519819Y-59412261D02*
X160567438Y-59317023D01*
X160567438Y-59317023D02*
X160615057Y-59269404D01*
X160615057Y-59269404D02*
X160710295Y-59221785D01*
X160710295Y-59221785D02*
X160805533Y-59221785D01*
X160805533Y-59221785D02*
X160948390Y-59269404D01*
X160948390Y-59269404D02*
X161519819Y-59840832D01*
X161519819Y-59840832D02*
X161519819Y-59221785D01*
X112863333Y-106497080D02*
X112815714Y-106544700D01*
X112815714Y-106544700D02*
X112672857Y-106592319D01*
X112672857Y-106592319D02*
X112577619Y-106592319D01*
X112577619Y-106592319D02*
X112434762Y-106544700D01*
X112434762Y-106544700D02*
X112339524Y-106449461D01*
X112339524Y-106449461D02*
X112291905Y-106354223D01*
X112291905Y-106354223D02*
X112244286Y-106163747D01*
X112244286Y-106163747D02*
X112244286Y-106020890D01*
X112244286Y-106020890D02*
X112291905Y-105830414D01*
X112291905Y-105830414D02*
X112339524Y-105735176D01*
X112339524Y-105735176D02*
X112434762Y-105639938D01*
X112434762Y-105639938D02*
X112577619Y-105592319D01*
X112577619Y-105592319D02*
X112672857Y-105592319D01*
X112672857Y-105592319D02*
X112815714Y-105639938D01*
X112815714Y-105639938D02*
X112863333Y-105687557D01*
X113768095Y-105592319D02*
X113291905Y-105592319D01*
X113291905Y-105592319D02*
X113244286Y-106068509D01*
X113244286Y-106068509D02*
X113291905Y-106020890D01*
X113291905Y-106020890D02*
X113387143Y-105973271D01*
X113387143Y-105973271D02*
X113625238Y-105973271D01*
X113625238Y-105973271D02*
X113720476Y-106020890D01*
X113720476Y-106020890D02*
X113768095Y-106068509D01*
X113768095Y-106068509D02*
X113815714Y-106163747D01*
X113815714Y-106163747D02*
X113815714Y-106401842D01*
X113815714Y-106401842D02*
X113768095Y-106497080D01*
X113768095Y-106497080D02*
X113720476Y-106544700D01*
X113720476Y-106544700D02*
X113625238Y-106592319D01*
X113625238Y-106592319D02*
X113387143Y-106592319D01*
X113387143Y-106592319D02*
X113291905Y-106544700D01*
X113291905Y-106544700D02*
X113244286Y-106497080D01*
X136599819Y-60841666D02*
X136123628Y-61174999D01*
X136599819Y-61413094D02*
X135599819Y-61413094D01*
X135599819Y-61413094D02*
X135599819Y-61032142D01*
X135599819Y-61032142D02*
X135647438Y-60936904D01*
X135647438Y-60936904D02*
X135695057Y-60889285D01*
X135695057Y-60889285D02*
X135790295Y-60841666D01*
X135790295Y-60841666D02*
X135933152Y-60841666D01*
X135933152Y-60841666D02*
X136028390Y-60889285D01*
X136028390Y-60889285D02*
X136076009Y-60936904D01*
X136076009Y-60936904D02*
X136123628Y-61032142D01*
X136123628Y-61032142D02*
X136123628Y-61413094D01*
X135599819Y-60508332D02*
X135599819Y-59841666D01*
X135599819Y-59841666D02*
X136599819Y-60270237D01*
X89534819Y-100028333D02*
X90249104Y-100028333D01*
X90249104Y-100028333D02*
X90391961Y-100075952D01*
X90391961Y-100075952D02*
X90487200Y-100171190D01*
X90487200Y-100171190D02*
X90534819Y-100314047D01*
X90534819Y-100314047D02*
X90534819Y-100409285D01*
X89963390Y-99409285D02*
X89915771Y-99504523D01*
X89915771Y-99504523D02*
X89868152Y-99552142D01*
X89868152Y-99552142D02*
X89772914Y-99599761D01*
X89772914Y-99599761D02*
X89725295Y-99599761D01*
X89725295Y-99599761D02*
X89630057Y-99552142D01*
X89630057Y-99552142D02*
X89582438Y-99504523D01*
X89582438Y-99504523D02*
X89534819Y-99409285D01*
X89534819Y-99409285D02*
X89534819Y-99218809D01*
X89534819Y-99218809D02*
X89582438Y-99123571D01*
X89582438Y-99123571D02*
X89630057Y-99075952D01*
X89630057Y-99075952D02*
X89725295Y-99028333D01*
X89725295Y-99028333D02*
X89772914Y-99028333D01*
X89772914Y-99028333D02*
X89868152Y-99075952D01*
X89868152Y-99075952D02*
X89915771Y-99123571D01*
X89915771Y-99123571D02*
X89963390Y-99218809D01*
X89963390Y-99218809D02*
X89963390Y-99409285D01*
X89963390Y-99409285D02*
X90011009Y-99504523D01*
X90011009Y-99504523D02*
X90058628Y-99552142D01*
X90058628Y-99552142D02*
X90153866Y-99599761D01*
X90153866Y-99599761D02*
X90344342Y-99599761D01*
X90344342Y-99599761D02*
X90439580Y-99552142D01*
X90439580Y-99552142D02*
X90487200Y-99504523D01*
X90487200Y-99504523D02*
X90534819Y-99409285D01*
X90534819Y-99409285D02*
X90534819Y-99218809D01*
X90534819Y-99218809D02*
X90487200Y-99123571D01*
X90487200Y-99123571D02*
X90439580Y-99075952D01*
X90439580Y-99075952D02*
X90344342Y-99028333D01*
X90344342Y-99028333D02*
X90153866Y-99028333D01*
X90153866Y-99028333D02*
X90058628Y-99075952D01*
X90058628Y-99075952D02*
X90011009Y-99123571D01*
X90011009Y-99123571D02*
X89963390Y-99218809D01*
X117149642Y-100212319D02*
X116816309Y-99736128D01*
X116578214Y-100212319D02*
X116578214Y-99212319D01*
X116578214Y-99212319D02*
X116959166Y-99212319D01*
X116959166Y-99212319D02*
X117054404Y-99259938D01*
X117054404Y-99259938D02*
X117102023Y-99307557D01*
X117102023Y-99307557D02*
X117149642Y-99402795D01*
X117149642Y-99402795D02*
X117149642Y-99545652D01*
X117149642Y-99545652D02*
X117102023Y-99640890D01*
X117102023Y-99640890D02*
X117054404Y-99688509D01*
X117054404Y-99688509D02*
X116959166Y-99736128D01*
X116959166Y-99736128D02*
X116578214Y-99736128D01*
X118102023Y-100212319D02*
X117530595Y-100212319D01*
X117816309Y-100212319D02*
X117816309Y-99212319D01*
X117816309Y-99212319D02*
X117721071Y-99355176D01*
X117721071Y-99355176D02*
X117625833Y-99450414D01*
X117625833Y-99450414D02*
X117530595Y-99498033D01*
X118721071Y-99212319D02*
X118816309Y-99212319D01*
X118816309Y-99212319D02*
X118911547Y-99259938D01*
X118911547Y-99259938D02*
X118959166Y-99307557D01*
X118959166Y-99307557D02*
X119006785Y-99402795D01*
X119006785Y-99402795D02*
X119054404Y-99593271D01*
X119054404Y-99593271D02*
X119054404Y-99831366D01*
X119054404Y-99831366D02*
X119006785Y-100021842D01*
X119006785Y-100021842D02*
X118959166Y-100117080D01*
X118959166Y-100117080D02*
X118911547Y-100164700D01*
X118911547Y-100164700D02*
X118816309Y-100212319D01*
X118816309Y-100212319D02*
X118721071Y-100212319D01*
X118721071Y-100212319D02*
X118625833Y-100164700D01*
X118625833Y-100164700D02*
X118578214Y-100117080D01*
X118578214Y-100117080D02*
X118530595Y-100021842D01*
X118530595Y-100021842D02*
X118482976Y-99831366D01*
X118482976Y-99831366D02*
X118482976Y-99593271D01*
X118482976Y-99593271D02*
X118530595Y-99402795D01*
X118530595Y-99402795D02*
X118578214Y-99307557D01*
X118578214Y-99307557D02*
X118625833Y-99259938D01*
X118625833Y-99259938D02*
X118721071Y-99212319D01*
X131111666Y-45809819D02*
X131111666Y-46524104D01*
X131111666Y-46524104D02*
X131064047Y-46666961D01*
X131064047Y-46666961D02*
X130968809Y-46762200D01*
X130968809Y-46762200D02*
X130825952Y-46809819D01*
X130825952Y-46809819D02*
X130730714Y-46809819D01*
X132111666Y-46809819D02*
X131540238Y-46809819D01*
X131825952Y-46809819D02*
X131825952Y-45809819D01*
X131825952Y-45809819D02*
X131730714Y-45952676D01*
X131730714Y-45952676D02*
X131635476Y-46047914D01*
X131635476Y-46047914D02*
X131540238Y-46095533D01*
X123372319Y-100774404D02*
X124181842Y-100774404D01*
X124181842Y-100774404D02*
X124277080Y-100726785D01*
X124277080Y-100726785D02*
X124324700Y-100679166D01*
X124324700Y-100679166D02*
X124372319Y-100583928D01*
X124372319Y-100583928D02*
X124372319Y-100393452D01*
X124372319Y-100393452D02*
X124324700Y-100298214D01*
X124324700Y-100298214D02*
X124277080Y-100250595D01*
X124277080Y-100250595D02*
X124181842Y-100202976D01*
X124181842Y-100202976D02*
X123372319Y-100202976D01*
X123705652Y-99298214D02*
X124372319Y-99298214D01*
X123324700Y-99536309D02*
X124038985Y-99774404D01*
X124038985Y-99774404D02*
X124038985Y-99155357D01*
X161591666Y-103257329D02*
X161591666Y-103971614D01*
X161591666Y-103971614D02*
X161544047Y-104114471D01*
X161544047Y-104114471D02*
X161448809Y-104209710D01*
X161448809Y-104209710D02*
X161305952Y-104257329D01*
X161305952Y-104257329D02*
X161210714Y-104257329D01*
X161972619Y-103257329D02*
X162591666Y-103257329D01*
X162591666Y-103257329D02*
X162258333Y-103638281D01*
X162258333Y-103638281D02*
X162401190Y-103638281D01*
X162401190Y-103638281D02*
X162496428Y-103685900D01*
X162496428Y-103685900D02*
X162544047Y-103733519D01*
X162544047Y-103733519D02*
X162591666Y-103828757D01*
X162591666Y-103828757D02*
X162591666Y-104066852D01*
X162591666Y-104066852D02*
X162544047Y-104162090D01*
X162544047Y-104162090D02*
X162496428Y-104209710D01*
X162496428Y-104209710D02*
X162401190Y-104257329D01*
X162401190Y-104257329D02*
X162115476Y-104257329D01*
X162115476Y-104257329D02*
X162020238Y-104209710D01*
X162020238Y-104209710D02*
X161972619Y-104162090D01*
X159054819Y-100028343D02*
X159769104Y-100028343D01*
X159769104Y-100028343D02*
X159911961Y-100075962D01*
X159911961Y-100075962D02*
X160007200Y-100171200D01*
X160007200Y-100171200D02*
X160054819Y-100314057D01*
X160054819Y-100314057D02*
X160054819Y-100409295D01*
X159388152Y-99123581D02*
X160054819Y-99123581D01*
X159007200Y-99361676D02*
X159721485Y-99599771D01*
X159721485Y-99599771D02*
X159721485Y-98980724D01*
X117625833Y-103322080D02*
X117578214Y-103369700D01*
X117578214Y-103369700D02*
X117435357Y-103417319D01*
X117435357Y-103417319D02*
X117340119Y-103417319D01*
X117340119Y-103417319D02*
X117197262Y-103369700D01*
X117197262Y-103369700D02*
X117102024Y-103274461D01*
X117102024Y-103274461D02*
X117054405Y-103179223D01*
X117054405Y-103179223D02*
X117006786Y-102988747D01*
X117006786Y-102988747D02*
X117006786Y-102845890D01*
X117006786Y-102845890D02*
X117054405Y-102655414D01*
X117054405Y-102655414D02*
X117102024Y-102560176D01*
X117102024Y-102560176D02*
X117197262Y-102464938D01*
X117197262Y-102464938D02*
X117340119Y-102417319D01*
X117340119Y-102417319D02*
X117435357Y-102417319D01*
X117435357Y-102417319D02*
X117578214Y-102464938D01*
X117578214Y-102464938D02*
X117625833Y-102512557D01*
X118482976Y-102417319D02*
X118292500Y-102417319D01*
X118292500Y-102417319D02*
X118197262Y-102464938D01*
X118197262Y-102464938D02*
X118149643Y-102512557D01*
X118149643Y-102512557D02*
X118054405Y-102655414D01*
X118054405Y-102655414D02*
X118006786Y-102845890D01*
X118006786Y-102845890D02*
X118006786Y-103226842D01*
X118006786Y-103226842D02*
X118054405Y-103322080D01*
X118054405Y-103322080D02*
X118102024Y-103369700D01*
X118102024Y-103369700D02*
X118197262Y-103417319D01*
X118197262Y-103417319D02*
X118387738Y-103417319D01*
X118387738Y-103417319D02*
X118482976Y-103369700D01*
X118482976Y-103369700D02*
X118530595Y-103322080D01*
X118530595Y-103322080D02*
X118578214Y-103226842D01*
X118578214Y-103226842D02*
X118578214Y-102988747D01*
X118578214Y-102988747D02*
X118530595Y-102893509D01*
X118530595Y-102893509D02*
X118482976Y-102845890D01*
X118482976Y-102845890D02*
X118387738Y-102798271D01*
X118387738Y-102798271D02*
X118197262Y-102798271D01*
X118197262Y-102798271D02*
X118102024Y-102845890D01*
X118102024Y-102845890D02*
X118054405Y-102893509D01*
X118054405Y-102893509D02*
X118006786Y-102988747D01*
X99250595Y-54112319D02*
X99250595Y-53112319D01*
X99250595Y-53588509D02*
X99822023Y-53588509D01*
X99822023Y-54112319D02*
X99822023Y-53112319D01*
X100822023Y-54112319D02*
X100250595Y-54112319D01*
X100536309Y-54112319D02*
X100536309Y-53112319D01*
X100536309Y-53112319D02*
X100441071Y-53255176D01*
X100441071Y-53255176D02*
X100345833Y-53350414D01*
X100345833Y-53350414D02*
X100250595Y-53398033D01*
X129264580Y-60491666D02*
X129312200Y-60539285D01*
X129312200Y-60539285D02*
X129359819Y-60682142D01*
X129359819Y-60682142D02*
X129359819Y-60777380D01*
X129359819Y-60777380D02*
X129312200Y-60920237D01*
X129312200Y-60920237D02*
X129216961Y-61015475D01*
X129216961Y-61015475D02*
X129121723Y-61063094D01*
X129121723Y-61063094D02*
X128931247Y-61110713D01*
X128931247Y-61110713D02*
X128788390Y-61110713D01*
X128788390Y-61110713D02*
X128597914Y-61063094D01*
X128597914Y-61063094D02*
X128502676Y-61015475D01*
X128502676Y-61015475D02*
X128407438Y-60920237D01*
X128407438Y-60920237D02*
X128359819Y-60777380D01*
X128359819Y-60777380D02*
X128359819Y-60682142D01*
X128359819Y-60682142D02*
X128407438Y-60539285D01*
X128407438Y-60539285D02*
X128455057Y-60491666D01*
X129359819Y-59539285D02*
X129359819Y-60110713D01*
X129359819Y-59824999D02*
X128359819Y-59824999D01*
X128359819Y-59824999D02*
X128502676Y-59920237D01*
X128502676Y-59920237D02*
X128597914Y-60015475D01*
X128597914Y-60015475D02*
X128645533Y-60110713D01*
X152264819Y-49863333D02*
X152979104Y-49863333D01*
X152979104Y-49863333D02*
X153121961Y-49910952D01*
X153121961Y-49910952D02*
X153217200Y-50006190D01*
X153217200Y-50006190D02*
X153264819Y-50149047D01*
X153264819Y-50149047D02*
X153264819Y-50244285D01*
X152264819Y-49482380D02*
X152264819Y-48815714D01*
X152264819Y-48815714D02*
X153264819Y-49244285D01*
X140409819Y-60841666D02*
X139933628Y-61174999D01*
X140409819Y-61413094D02*
X139409819Y-61413094D01*
X139409819Y-61413094D02*
X139409819Y-61032142D01*
X139409819Y-61032142D02*
X139457438Y-60936904D01*
X139457438Y-60936904D02*
X139505057Y-60889285D01*
X139505057Y-60889285D02*
X139600295Y-60841666D01*
X139600295Y-60841666D02*
X139743152Y-60841666D01*
X139743152Y-60841666D02*
X139838390Y-60889285D01*
X139838390Y-60889285D02*
X139886009Y-60936904D01*
X139886009Y-60936904D02*
X139933628Y-61032142D01*
X139933628Y-61032142D02*
X139933628Y-61413094D01*
X139409819Y-59984523D02*
X139409819Y-60174999D01*
X139409819Y-60174999D02*
X139457438Y-60270237D01*
X139457438Y-60270237D02*
X139505057Y-60317856D01*
X139505057Y-60317856D02*
X139647914Y-60413094D01*
X139647914Y-60413094D02*
X139838390Y-60460713D01*
X139838390Y-60460713D02*
X140219342Y-60460713D01*
X140219342Y-60460713D02*
X140314580Y-60413094D01*
X140314580Y-60413094D02*
X140362200Y-60365475D01*
X140362200Y-60365475D02*
X140409819Y-60270237D01*
X140409819Y-60270237D02*
X140409819Y-60079761D01*
X140409819Y-60079761D02*
X140362200Y-59984523D01*
X140362200Y-59984523D02*
X140314580Y-59936904D01*
X140314580Y-59936904D02*
X140219342Y-59889285D01*
X140219342Y-59889285D02*
X139981247Y-59889285D01*
X139981247Y-59889285D02*
X139886009Y-59936904D01*
X139886009Y-59936904D02*
X139838390Y-59984523D01*
X139838390Y-59984523D02*
X139790771Y-60079761D01*
X139790771Y-60079761D02*
X139790771Y-60270237D01*
X139790771Y-60270237D02*
X139838390Y-60365475D01*
X139838390Y-60365475D02*
X139886009Y-60413094D01*
X139886009Y-60413094D02*
X139981247Y-60460713D01*
X164973095Y-45667319D02*
X164973095Y-44667319D01*
X164973095Y-45143509D02*
X165544523Y-45143509D01*
X165544523Y-45667319D02*
X165544523Y-44667319D01*
X165973095Y-44762557D02*
X166020714Y-44714938D01*
X166020714Y-44714938D02*
X166115952Y-44667319D01*
X166115952Y-44667319D02*
X166354047Y-44667319D01*
X166354047Y-44667319D02*
X166449285Y-44714938D01*
X166449285Y-44714938D02*
X166496904Y-44762557D01*
X166496904Y-44762557D02*
X166544523Y-44857795D01*
X166544523Y-44857795D02*
X166544523Y-44953033D01*
X166544523Y-44953033D02*
X166496904Y-45095890D01*
X166496904Y-45095890D02*
X165925476Y-45667319D01*
X165925476Y-45667319D02*
X166544523Y-45667319D01*
X114174866Y-57899166D02*
X115308200Y-57899166D01*
X115308200Y-57899166D02*
X115441533Y-57832500D01*
X115441533Y-57832500D02*
X115508200Y-57765833D01*
X115508200Y-57765833D02*
X115574866Y-57632500D01*
X115574866Y-57632500D02*
X115574866Y-57365833D01*
X115574866Y-57365833D02*
X115508200Y-57232500D01*
X115508200Y-57232500D02*
X115441533Y-57165833D01*
X115441533Y-57165833D02*
X115308200Y-57099166D01*
X115308200Y-57099166D02*
X114174866Y-57099166D01*
X114174866Y-56565833D02*
X114174866Y-55699166D01*
X114174866Y-55699166D02*
X114708200Y-56165833D01*
X114708200Y-56165833D02*
X114708200Y-55965833D01*
X114708200Y-55965833D02*
X114774866Y-55832499D01*
X114774866Y-55832499D02*
X114841533Y-55765833D01*
X114841533Y-55765833D02*
X114974866Y-55699166D01*
X114974866Y-55699166D02*
X115308200Y-55699166D01*
X115308200Y-55699166D02*
X115441533Y-55765833D01*
X115441533Y-55765833D02*
X115508200Y-55832499D01*
X115508200Y-55832499D02*
X115574866Y-55965833D01*
X115574866Y-55965833D02*
X115574866Y-56365833D01*
X115574866Y-56365833D02*
X115508200Y-56499166D01*
X115508200Y-56499166D02*
X115441533Y-56565833D01*
X119510185Y-59993213D02*
X119510185Y-59621785D01*
X119733042Y-60067499D02*
X118953042Y-59807499D01*
X118953042Y-59807499D02*
X119733042Y-59547499D01*
X119733042Y-58878928D02*
X119733042Y-59324642D01*
X119733042Y-59101785D02*
X118953042Y-59101785D01*
X118953042Y-59101785D02*
X119064471Y-59176071D01*
X119064471Y-59176071D02*
X119138757Y-59250356D01*
X119138757Y-59250356D02*
X119175900Y-59324642D01*
X118953042Y-58173214D02*
X118953042Y-58544642D01*
X118953042Y-58544642D02*
X119324471Y-58581785D01*
X119324471Y-58581785D02*
X119287328Y-58544642D01*
X119287328Y-58544642D02*
X119250185Y-58470357D01*
X119250185Y-58470357D02*
X119250185Y-58284642D01*
X119250185Y-58284642D02*
X119287328Y-58210357D01*
X119287328Y-58210357D02*
X119324471Y-58173214D01*
X119324471Y-58173214D02*
X119398757Y-58136071D01*
X119398757Y-58136071D02*
X119584471Y-58136071D01*
X119584471Y-58136071D02*
X119658757Y-58173214D01*
X119658757Y-58173214D02*
X119695900Y-58210357D01*
X119695900Y-58210357D02*
X119733042Y-58284642D01*
X119733042Y-58284642D02*
X119733042Y-58470357D01*
X119733042Y-58470357D02*
X119695900Y-58544642D01*
X119695900Y-58544642D02*
X119658757Y-58581785D01*
X119695900Y-57764642D02*
X119733042Y-57764642D01*
X119733042Y-57764642D02*
X119807328Y-57801785D01*
X119807328Y-57801785D02*
X119844471Y-57838928D01*
X119027328Y-57467499D02*
X118990185Y-57430356D01*
X118990185Y-57430356D02*
X118953042Y-57356071D01*
X118953042Y-57356071D02*
X118953042Y-57170356D01*
X118953042Y-57170356D02*
X118990185Y-57096071D01*
X118990185Y-57096071D02*
X119027328Y-57058928D01*
X119027328Y-57058928D02*
X119101614Y-57021785D01*
X119101614Y-57021785D02*
X119175900Y-57021785D01*
X119175900Y-57021785D02*
X119287328Y-57058928D01*
X119287328Y-57058928D02*
X119733042Y-57504642D01*
X119733042Y-57504642D02*
X119733042Y-57021785D01*
X119733042Y-56687499D02*
X119213042Y-56687499D01*
X119287328Y-56687499D02*
X119250185Y-56650356D01*
X119250185Y-56650356D02*
X119213042Y-56576071D01*
X119213042Y-56576071D02*
X119213042Y-56464642D01*
X119213042Y-56464642D02*
X119250185Y-56390356D01*
X119250185Y-56390356D02*
X119324471Y-56353214D01*
X119324471Y-56353214D02*
X119733042Y-56353214D01*
X119324471Y-56353214D02*
X119250185Y-56316071D01*
X119250185Y-56316071D02*
X119213042Y-56241785D01*
X119213042Y-56241785D02*
X119213042Y-56130356D01*
X119213042Y-56130356D02*
X119250185Y-56056071D01*
X119250185Y-56056071D02*
X119324471Y-56018928D01*
X119324471Y-56018928D02*
X119733042Y-56018928D01*
X119733042Y-55647499D02*
X119213042Y-55647499D01*
X119287328Y-55647499D02*
X119250185Y-55610356D01*
X119250185Y-55610356D02*
X119213042Y-55536071D01*
X119213042Y-55536071D02*
X119213042Y-55424642D01*
X119213042Y-55424642D02*
X119250185Y-55350356D01*
X119250185Y-55350356D02*
X119324471Y-55313214D01*
X119324471Y-55313214D02*
X119733042Y-55313214D01*
X119324471Y-55313214D02*
X119250185Y-55276071D01*
X119250185Y-55276071D02*
X119213042Y-55201785D01*
X119213042Y-55201785D02*
X119213042Y-55090356D01*
X119213042Y-55090356D02*
X119250185Y-55016071D01*
X119250185Y-55016071D02*
X119324471Y-54978928D01*
X119324471Y-54978928D02*
X119733042Y-54978928D01*
X99568095Y-113484819D02*
X99568095Y-112484819D01*
X99568095Y-112961009D02*
X100139523Y-112961009D01*
X100139523Y-113484819D02*
X100139523Y-112484819D01*
X101044285Y-112818152D02*
X101044285Y-113484819D01*
X100806190Y-112437200D02*
X100568095Y-113151485D01*
X100568095Y-113151485D02*
X101187142Y-113151485D01*
X159899819Y-53038333D02*
X160614104Y-53038333D01*
X160614104Y-53038333D02*
X160756961Y-53085952D01*
X160756961Y-53085952D02*
X160852200Y-53181190D01*
X160852200Y-53181190D02*
X160899819Y-53324047D01*
X160899819Y-53324047D02*
X160899819Y-53419285D01*
X159899819Y-52133571D02*
X159899819Y-52324047D01*
X159899819Y-52324047D02*
X159947438Y-52419285D01*
X159947438Y-52419285D02*
X159995057Y-52466904D01*
X159995057Y-52466904D02*
X160137914Y-52562142D01*
X160137914Y-52562142D02*
X160328390Y-52609761D01*
X160328390Y-52609761D02*
X160709342Y-52609761D01*
X160709342Y-52609761D02*
X160804580Y-52562142D01*
X160804580Y-52562142D02*
X160852200Y-52514523D01*
X160852200Y-52514523D02*
X160899819Y-52419285D01*
X160899819Y-52419285D02*
X160899819Y-52228809D01*
X160899819Y-52228809D02*
X160852200Y-52133571D01*
X160852200Y-52133571D02*
X160804580Y-52085952D01*
X160804580Y-52085952D02*
X160709342Y-52038333D01*
X160709342Y-52038333D02*
X160471247Y-52038333D01*
X160471247Y-52038333D02*
X160376009Y-52085952D01*
X160376009Y-52085952D02*
X160328390Y-52133571D01*
X160328390Y-52133571D02*
X160280771Y-52228809D01*
X160280771Y-52228809D02*
X160280771Y-52419285D01*
X160280771Y-52419285D02*
X160328390Y-52514523D01*
X160328390Y-52514523D02*
X160376009Y-52562142D01*
X160376009Y-52562142D02*
X160471247Y-52609761D01*
X120917080Y-100411666D02*
X120964700Y-100459285D01*
X120964700Y-100459285D02*
X121012319Y-100602142D01*
X121012319Y-100602142D02*
X121012319Y-100697380D01*
X121012319Y-100697380D02*
X120964700Y-100840237D01*
X120964700Y-100840237D02*
X120869461Y-100935475D01*
X120869461Y-100935475D02*
X120774223Y-100983094D01*
X120774223Y-100983094D02*
X120583747Y-101030713D01*
X120583747Y-101030713D02*
X120440890Y-101030713D01*
X120440890Y-101030713D02*
X120250414Y-100983094D01*
X120250414Y-100983094D02*
X120155176Y-100935475D01*
X120155176Y-100935475D02*
X120059938Y-100840237D01*
X120059938Y-100840237D02*
X120012319Y-100697380D01*
X120012319Y-100697380D02*
X120012319Y-100602142D01*
X120012319Y-100602142D02*
X120059938Y-100459285D01*
X120059938Y-100459285D02*
X120107557Y-100411666D01*
X120012319Y-100078332D02*
X120012319Y-99411666D01*
X120012319Y-99411666D02*
X121012319Y-99840237D01*
X101266666Y-57127319D02*
X101266666Y-57841604D01*
X101266666Y-57841604D02*
X101219047Y-57984461D01*
X101219047Y-57984461D02*
X101123809Y-58079700D01*
X101123809Y-58079700D02*
X100980952Y-58127319D01*
X100980952Y-58127319D02*
X100885714Y-58127319D01*
X102219047Y-57127319D02*
X101742857Y-57127319D01*
X101742857Y-57127319D02*
X101695238Y-57603509D01*
X101695238Y-57603509D02*
X101742857Y-57555890D01*
X101742857Y-57555890D02*
X101838095Y-57508271D01*
X101838095Y-57508271D02*
X102076190Y-57508271D01*
X102076190Y-57508271D02*
X102171428Y-57555890D01*
X102171428Y-57555890D02*
X102219047Y-57603509D01*
X102219047Y-57603509D02*
X102266666Y-57698747D01*
X102266666Y-57698747D02*
X102266666Y-57936842D01*
X102266666Y-57936842D02*
X102219047Y-58032080D01*
X102219047Y-58032080D02*
X102171428Y-58079700D01*
X102171428Y-58079700D02*
X102076190Y-58127319D01*
X102076190Y-58127319D02*
X101838095Y-58127319D01*
X101838095Y-58127319D02*
X101742857Y-58079700D01*
X101742857Y-58079700D02*
X101695238Y-58032080D01*
X163479819Y-81089404D02*
X164289342Y-81089404D01*
X164289342Y-81089404D02*
X164384580Y-81041785D01*
X164384580Y-81041785D02*
X164432200Y-80994166D01*
X164432200Y-80994166D02*
X164479819Y-80898928D01*
X164479819Y-80898928D02*
X164479819Y-80708452D01*
X164479819Y-80708452D02*
X164432200Y-80613214D01*
X164432200Y-80613214D02*
X164384580Y-80565595D01*
X164384580Y-80565595D02*
X164289342Y-80517976D01*
X164289342Y-80517976D02*
X163479819Y-80517976D01*
X164479819Y-79517976D02*
X164479819Y-80089404D01*
X164479819Y-79803690D02*
X163479819Y-79803690D01*
X163479819Y-79803690D02*
X163622676Y-79898928D01*
X163622676Y-79898928D02*
X163717914Y-79994166D01*
X163717914Y-79994166D02*
X163765533Y-80089404D01*
D11*
%TO.C,C3*%
X129900000Y-53606248D02*
X129900000Y-55028752D01*
X131720000Y-53606248D02*
X131720000Y-55028752D01*
%TO.C,R8*%
X112802936Y-100547500D02*
X113257064Y-100547500D01*
X112802936Y-102017500D02*
X113257064Y-102017500D01*
%TO.C,U2*%
X147330000Y-60040000D02*
X147330000Y-58090000D01*
X147330000Y-60040000D02*
X147330000Y-61990000D01*
X156200000Y-60040000D02*
X156200000Y-56590000D01*
X156200000Y-60040000D02*
X156200000Y-61990000D01*
%TO.C,C4*%
X136885000Y-56306252D02*
X136885000Y-54883748D01*
X138705000Y-56306252D02*
X138705000Y-54883748D01*
%TO.C,R9*%
X113257064Y-97372500D02*
X112802936Y-97372500D01*
X113257064Y-98842500D02*
X112802936Y-98842500D01*
%TO.C,C2*%
X158650000Y-59746248D02*
X158650000Y-60268752D01*
X160120000Y-59746248D02*
X160120000Y-60268752D01*
%TO.C,C5*%
X113291252Y-103722500D02*
X112768748Y-103722500D01*
X113291252Y-105192500D02*
X112768748Y-105192500D01*
%TO.C,R7*%
X137060000Y-60902064D02*
X137060000Y-60447936D01*
X138530000Y-60902064D02*
X138530000Y-60447936D01*
%TO.C,J8*%
X91210000Y-95775000D02*
X95210000Y-95775000D01*
X91210000Y-102015000D02*
X91210000Y-95775000D01*
X95210000Y-95475000D02*
X109450000Y-95475000D01*
X95210000Y-95775000D02*
X95210000Y-95475000D01*
X95210000Y-102015000D02*
X91210000Y-102015000D01*
X95210000Y-103915000D02*
X95210000Y-102015000D01*
X109450000Y-95475000D02*
X109450000Y-103915000D01*
X109450000Y-103915000D02*
X95210000Y-103915000D01*
%TO.C,R10*%
X118019564Y-97372500D02*
X117565436Y-97372500D01*
X118019564Y-98842500D02*
X117565436Y-98842500D01*
%TO.C,J1*%
D12*
X116312950Y-44450000D02*
X113772950Y-44450000D01*
X113772950Y-34290000D01*
X116312950Y-34290000D01*
X116312950Y-44450000D01*
X120275350Y-44450000D02*
X117735350Y-44450000D01*
X117735350Y-34290000D01*
X120275350Y-34290000D01*
X120275350Y-44450000D01*
X124237750Y-44450000D02*
X121697750Y-44450000D01*
X121697750Y-34290000D01*
X124237750Y-34290000D01*
X124237750Y-44450000D01*
X128200150Y-44450000D02*
X125660150Y-44450000D01*
X125660150Y-34290000D01*
X128200150Y-34290000D01*
X128200150Y-44450000D01*
X132162550Y-44450000D02*
X129622550Y-44450000D01*
X129622550Y-34290000D01*
X132162550Y-34290000D01*
X132162550Y-44450000D01*
X136124950Y-44450000D02*
X133584950Y-44450000D01*
X133584950Y-34290000D01*
X136124950Y-34290000D01*
X136124950Y-44450000D01*
X140087350Y-44450000D02*
X137547350Y-44450000D01*
X137547350Y-34290000D01*
X140087350Y-34290000D01*
X140087350Y-44450000D01*
X144049750Y-44450000D02*
X141509750Y-44450000D01*
X141509750Y-34290000D01*
X144049750Y-34290000D01*
X144049750Y-44450000D01*
X148012150Y-44450000D02*
X145472150Y-44450000D01*
X145472150Y-34290000D01*
X148012150Y-34290000D01*
X148012150Y-44450000D01*
X151974550Y-44450000D02*
X149434550Y-44450000D01*
X149434550Y-34290000D01*
X151974550Y-34290000D01*
X151974550Y-44450000D01*
D11*
%TO.C,U4*%
X124757500Y-100012500D02*
X124757500Y-98062500D01*
X124757500Y-100012500D02*
X124757500Y-101962500D01*
X129877500Y-100012500D02*
X129877500Y-98062500D01*
X129877500Y-100012500D02*
X129877500Y-101962500D01*
X124852500Y-102712500D02*
X124522500Y-102952500D01*
X124522500Y-102472500D01*
X124852500Y-102712500D01*
G36*
X124852500Y-102712500D02*
G01*
X124522500Y-102952500D01*
X124522500Y-102472500D01*
X124852500Y-102712500D01*
G37*
%TO.C,J3*%
X160595000Y-99680010D02*
X160595000Y-97080010D01*
X163255000Y-97080010D02*
X160595000Y-97080010D01*
X163255000Y-99680010D02*
X160595000Y-99680010D01*
X163255000Y-99680010D02*
X163255000Y-97080010D01*
X163255000Y-100950010D02*
X163255000Y-102280010D01*
X163255000Y-102280010D02*
X161925000Y-102280010D01*
%TO.C,J4*%
X137720000Y-97095010D02*
X137720000Y-102295010D01*
X155560000Y-99695010D02*
X155560000Y-102295010D01*
X155560000Y-102295010D02*
X137720000Y-102295010D01*
X158160000Y-97095010D02*
X137720000Y-97095010D01*
X158160000Y-97095010D02*
X158160000Y-99695010D01*
X158160000Y-99695010D02*
X155560000Y-99695010D01*
X158160000Y-100965010D02*
X158160000Y-102295010D01*
X158160000Y-102295010D02*
X156830000Y-102295010D01*
%TO.C,C6*%
X118053752Y-100547500D02*
X117531248Y-100547500D01*
X118053752Y-102017500D02*
X117531248Y-102017500D01*
%TO.C,C1*%
X129900000Y-61036252D02*
X129900000Y-59613748D01*
X131720000Y-61036252D02*
X131720000Y-59613748D01*
%TO.C,J7*%
X144070000Y-48200000D02*
X144070000Y-50860000D01*
X149210000Y-48200000D02*
X144070000Y-48200000D01*
X149210000Y-48200000D02*
X149210000Y-50860000D01*
X149210000Y-50860000D02*
X144070000Y-50860000D01*
X150480000Y-48200000D02*
X151810000Y-48200000D01*
X151810000Y-48200000D02*
X151810000Y-49530000D01*
%TO.C,R6*%
X140870000Y-60902064D02*
X140870000Y-60447936D01*
X142340000Y-60902064D02*
X142340000Y-60447936D01*
D13*
%TO.C,U3*%
X106299000Y-52260500D02*
X106299000Y-62674500D01*
X108204000Y-52260500D02*
X106299000Y-52260500D01*
X108204000Y-53149500D02*
X108204000Y-52260500D01*
X108204000Y-61785500D02*
X108204000Y-62674500D01*
X108204000Y-62674500D02*
X106299000Y-62674500D01*
X109728000Y-52260500D02*
X109728000Y-53149500D01*
X109728000Y-53149500D02*
X108204000Y-53149500D01*
X109728000Y-61785500D02*
X108204000Y-61785500D01*
X109728000Y-62674500D02*
X109728000Y-61785500D01*
D14*
X113284000Y-52895500D02*
X113284000Y-62039500D01*
X113284000Y-52895500D02*
X121539000Y-52895500D01*
X121539000Y-62039500D02*
X113284000Y-62039500D01*
X121539000Y-62039500D02*
X121539000Y-52895500D01*
D13*
X122174000Y-52260500D02*
X109728000Y-52260500D01*
X122174000Y-62674500D02*
X109728000Y-62674500D01*
X122174000Y-62674500D02*
X122174000Y-52260500D01*
X111531400Y-57467500D02*
G75*
G02*
X107924600Y-57467500I-1803400J0D01*
G01*
X107924600Y-57467500D02*
G75*
G02*
X111531400Y-57467500I1803400J0D01*
G01*
D15*
X123063000Y-55562500D02*
X122174000Y-55562500D01*
X122174000Y-54292500D01*
X123063000Y-54292500D01*
X123063000Y-55562500D01*
G36*
X123063000Y-55562500D02*
G01*
X122174000Y-55562500D01*
X122174000Y-54292500D01*
X123063000Y-54292500D01*
X123063000Y-55562500D01*
G37*
X123063000Y-58102500D02*
X122174000Y-58102500D01*
X122174000Y-56832500D01*
X123063000Y-56832500D01*
X123063000Y-58102500D01*
G36*
X123063000Y-58102500D02*
G01*
X122174000Y-58102500D01*
X122174000Y-56832500D01*
X123063000Y-56832500D01*
X123063000Y-58102500D01*
G37*
X123063000Y-60642500D02*
X122174000Y-60642500D01*
X122174000Y-59372500D01*
X123063000Y-59372500D01*
X123063000Y-60642500D01*
G36*
X123063000Y-60642500D02*
G01*
X122174000Y-60642500D01*
X122174000Y-59372500D01*
X123063000Y-59372500D01*
X123063000Y-60642500D01*
G37*
D11*
%TO.C,J6*%
X144085000Y-51375000D02*
X144085000Y-54035000D01*
X156845000Y-51375000D02*
X144085000Y-51375000D01*
X156845000Y-51375000D02*
X156845000Y-54035000D01*
X156845000Y-54035000D02*
X144085000Y-54035000D01*
X158115000Y-51375000D02*
X159445000Y-51375000D01*
X159445000Y-51375000D02*
X159445000Y-52705000D01*
%TO.C,C7*%
X121502500Y-100506252D02*
X121502500Y-99983748D01*
X122972500Y-100506252D02*
X122972500Y-99983748D01*
%TO.C,J5*%
X100270000Y-58672500D02*
X101600000Y-58672500D01*
X100270000Y-60002500D02*
X100270000Y-58672500D01*
X100270000Y-61272500D02*
X100270000Y-63872500D01*
X100270000Y-61272500D02*
X102930000Y-61272500D01*
X100270000Y-63872500D02*
X102930000Y-63872500D01*
X102930000Y-61272500D02*
X102930000Y-63872500D01*
%TO.C,U1*%
X102405000Y-67377500D02*
X102405000Y-93277500D01*
X102405000Y-93277500D02*
X163025000Y-93277500D01*
X162665000Y-77287501D02*
X163025000Y-77287501D01*
X162665000Y-83367500D02*
X162665000Y-77287501D01*
X163025000Y-67377500D02*
X102405000Y-67377500D01*
X163025000Y-77287501D02*
X163025000Y-67377500D01*
X163025000Y-83367500D02*
X162665000Y-83367500D01*
X163025000Y-93277500D02*
X163025000Y-83367500D01*
%TD*%
M02*
