%TF.GenerationSoftware,KiCad,Pcbnew,8.0.2*%
%TF.CreationDate,2024-08-26T06:59:03-04:00*%
%TF.ProjectId,TRS-80-M3-VID2,5452532d-3830-42d4-9d33-2d564944322e,rev?*%
%TF.SameCoordinates,Original*%
%TF.FileFunction,Soldermask,Bot*%
%TF.FilePolarity,Negative*%
%FSLAX46Y46*%
G04 Gerber Fmt 4.6, Leading zero omitted, Abs format (unit mm)*
G04 Created by KiCad (PCBNEW 8.0.2) date 2024-08-26 06:59:03*
%MOMM*%
%LPD*%
G01*
G04 APERTURE LIST*
%ADD10C,0.800000*%
%ADD11C,6.000000*%
%ADD12O,1.800000X2.800000*%
%ADD13R,2.540000X10.160000*%
%ADD14R,1.700000X1.700000*%
%ADD15O,1.700000X1.700000*%
%ADD16C,6.350000*%
%ADD17O,3.048000X1.524000*%
%ADD18O,1.200000X2.000000*%
G04 APERTURE END LIST*
D10*
%TO.C,H3*%
X163485000Y-108585000D03*
X164144010Y-106994010D03*
X164144010Y-110175990D03*
X165735000Y-106335000D03*
D11*
X165735000Y-108585000D03*
D10*
X165735000Y-110835000D03*
X167325990Y-106994010D03*
X167325990Y-110175990D03*
X167985000Y-108585000D03*
%TD*%
D12*
%TO.C,J8*%
X104430000Y-97795000D03*
X102630000Y-99795000D03*
X96530000Y-99795000D03*
X98930000Y-97795000D03*
X108130000Y-99795000D03*
%TD*%
D13*
%TO.C,J1*%
X115042950Y-39370000D03*
X119005350Y-39370000D03*
X122967750Y-39370000D03*
X126930150Y-39370000D03*
X130892550Y-39370000D03*
X134854950Y-39370000D03*
X138817350Y-39370000D03*
X142779750Y-39370000D03*
X146742150Y-39370000D03*
X150704550Y-39370000D03*
%TD*%
D14*
%TO.C,J3*%
X161925000Y-100950010D03*
D15*
X161925000Y-98410010D03*
%TD*%
D14*
%TO.C,J4*%
X156830000Y-100965010D03*
D15*
X156830000Y-98425010D03*
X154290000Y-100965010D03*
X154290000Y-98425010D03*
X151750000Y-100965010D03*
X151750000Y-98425010D03*
X149210000Y-100965010D03*
X149210000Y-98425010D03*
X146670000Y-100965010D03*
X146670000Y-98425010D03*
X144130000Y-100965010D03*
X144130000Y-98425010D03*
X141590000Y-100965010D03*
X141590000Y-98425010D03*
X139050000Y-100965010D03*
X139050000Y-98425010D03*
%TD*%
D10*
%TO.C,H1*%
X97765990Y-49215990D03*
X98425000Y-47625000D03*
X98425000Y-50806980D03*
X100015990Y-46965990D03*
D11*
X100015990Y-49215990D03*
D10*
X100015990Y-51465990D03*
X101606980Y-47625000D03*
X101606980Y-50806980D03*
X102265990Y-49215990D03*
%TD*%
D14*
%TO.C,J7*%
X150480000Y-49530000D03*
D15*
X147940000Y-49530000D03*
X145400000Y-49530000D03*
%TD*%
D10*
%TO.C,H2*%
X163485000Y-49212500D03*
X164144010Y-47621510D03*
X164144010Y-50803490D03*
X165735000Y-46962500D03*
D11*
X165735000Y-49212500D03*
D10*
X165735000Y-51462500D03*
X167325990Y-47621510D03*
X167325990Y-50803490D03*
X167985000Y-49212500D03*
%TD*%
D16*
%TO.C,U3*%
X109728000Y-57467500D03*
D17*
X124714000Y-57467500D03*
X124714000Y-60007500D03*
X124714000Y-54927500D03*
%TD*%
D10*
%TO.C,H4*%
X97762500Y-108585000D03*
X98421510Y-106994010D03*
X98421510Y-110175990D03*
X100012500Y-106335000D03*
D11*
X100012500Y-108585000D03*
D10*
X100012500Y-110835000D03*
X101603490Y-106994010D03*
X101603490Y-110175990D03*
X102262500Y-108585000D03*
%TD*%
D14*
%TO.C,J6*%
X158115000Y-52705000D03*
D15*
X155575000Y-52705000D03*
X153035000Y-52705000D03*
X150495000Y-52705000D03*
X147955000Y-52705000D03*
X145415000Y-52705000D03*
%TD*%
D14*
%TO.C,J5*%
X101600000Y-60002500D03*
D15*
X101600000Y-62542500D03*
%TD*%
D18*
%TO.C,U1*%
X161925000Y-68877500D03*
X159385000Y-68877500D03*
X156845000Y-68877500D03*
X154305000Y-68877500D03*
X151765000Y-68877500D03*
X149225000Y-68877500D03*
X146685000Y-68877500D03*
X144145000Y-68877500D03*
X141605000Y-68877500D03*
X139065000Y-68877500D03*
X136525000Y-68877500D03*
X133985000Y-68877500D03*
X131445000Y-68877500D03*
X128905000Y-68877500D03*
X126365000Y-68877500D03*
X123825000Y-68877500D03*
X121285000Y-68877500D03*
X118745000Y-68877500D03*
X116205000Y-68877500D03*
X113665000Y-68877500D03*
X111125000Y-68877500D03*
X108585000Y-68877500D03*
X106045000Y-68877500D03*
X103505000Y-68877500D03*
X103505000Y-91777500D03*
X106045000Y-91777500D03*
X108585000Y-91777500D03*
X111125000Y-91777500D03*
X113665000Y-91777500D03*
X116205000Y-91777500D03*
X118745000Y-91777500D03*
X121285000Y-91777500D03*
X123825000Y-91777500D03*
X126365000Y-91777500D03*
X128905000Y-91777500D03*
X131445000Y-91777500D03*
X133985000Y-91777500D03*
X136525000Y-91777500D03*
X139065000Y-91777500D03*
X141605000Y-91777500D03*
X144145000Y-91777500D03*
X146685000Y-91777500D03*
X149225000Y-91777500D03*
X151765000Y-91777500D03*
X154305000Y-91777500D03*
X156845000Y-91777500D03*
X159385000Y-91777500D03*
X161925000Y-91777500D03*
%TD*%
M02*
