%TF.GenerationSoftware,KiCad,Pcbnew,8.0.2*%
%TF.CreationDate,2024-08-26T06:59:03-04:00*%
%TF.ProjectId,TRS-80-M3-VID2,5452532d-3830-42d4-9d33-2d564944322e,rev?*%
%TF.SameCoordinates,Original*%
%TF.FileFunction,Soldermask,Top*%
%TF.FilePolarity,Negative*%
%FSLAX46Y46*%
G04 Gerber Fmt 4.6, Leading zero omitted, Abs format (unit mm)*
G04 Created by KiCad (PCBNEW 8.0.2) date 2024-08-26 06:59:03*
%MOMM*%
%LPD*%
G01*
G04 APERTURE LIST*
G04 Aperture macros list*
%AMRoundRect*
0 Rectangle with rounded corners*
0 $1 Rounding radius*
0 $2 $3 $4 $5 $6 $7 $8 $9 X,Y pos of 4 corners*
0 Add a 4 corners polygon primitive as box body*
4,1,4,$2,$3,$4,$5,$6,$7,$8,$9,$2,$3,0*
0 Add four circle primitives for the rounded corners*
1,1,$1+$1,$2,$3*
1,1,$1+$1,$4,$5*
1,1,$1+$1,$6,$7*
1,1,$1+$1,$8,$9*
0 Add four rect primitives between the rounded corners*
20,1,$1+$1,$2,$3,$4,$5,0*
20,1,$1+$1,$4,$5,$6,$7,0*
20,1,$1+$1,$6,$7,$8,$9,0*
20,1,$1+$1,$8,$9,$2,$3,0*%
G04 Aperture macros list end*
%ADD10RoundRect,0.250000X-0.650000X0.412500X-0.650000X-0.412500X0.650000X-0.412500X0.650000X0.412500X0*%
%ADD11RoundRect,0.250000X-0.350000X-0.450000X0.350000X-0.450000X0.350000X0.450000X-0.350000X0.450000X0*%
%ADD12RoundRect,0.150000X-0.150000X0.825000X-0.150000X-0.825000X0.150000X-0.825000X0.150000X0.825000X0*%
%ADD13RoundRect,0.250000X0.650000X-0.412500X0.650000X0.412500X-0.650000X0.412500X-0.650000X-0.412500X0*%
%ADD14RoundRect,0.250000X0.350000X0.450000X-0.350000X0.450000X-0.350000X-0.450000X0.350000X-0.450000X0*%
%ADD15C,0.800000*%
%ADD16C,6.000000*%
%ADD17RoundRect,0.250000X-0.475000X0.337500X-0.475000X-0.337500X0.475000X-0.337500X0.475000X0.337500X0*%
%ADD18RoundRect,0.250000X0.337500X0.475000X-0.337500X0.475000X-0.337500X-0.475000X0.337500X-0.475000X0*%
%ADD19RoundRect,0.250000X0.450000X-0.350000X0.450000X0.350000X-0.450000X0.350000X-0.450000X-0.350000X0*%
%ADD20O,1.800000X2.800000*%
%ADD21RoundRect,0.150000X0.150000X-0.825000X0.150000X0.825000X-0.150000X0.825000X-0.150000X-0.825000X0*%
%ADD22R,1.700000X1.700000*%
%ADD23O,1.700000X1.700000*%
%ADD24C,6.350000*%
%ADD25O,3.048000X1.524000*%
%ADD26RoundRect,0.250000X0.475000X-0.337500X0.475000X0.337500X-0.475000X0.337500X-0.475000X-0.337500X0*%
%ADD27O,1.200000X2.000000*%
G04 APERTURE END LIST*
D10*
%TO.C,C3*%
X130810000Y-52755000D03*
X130810000Y-55880000D03*
%TD*%
D11*
%TO.C,R8*%
X112030000Y-101282500D03*
X114030000Y-101282500D03*
%TD*%
D12*
%TO.C,U2*%
X155575000Y-57565000D03*
X154305000Y-57565000D03*
X153035000Y-57565000D03*
X151765000Y-57565000D03*
X150495000Y-57565000D03*
X149225000Y-57565000D03*
X147955000Y-57565000D03*
X147955000Y-62515000D03*
X149225000Y-62515000D03*
X150495000Y-62515000D03*
X151765000Y-62515000D03*
X153035000Y-62515000D03*
X154305000Y-62515000D03*
X155575000Y-62515000D03*
%TD*%
D13*
%TO.C,C4*%
X137795000Y-57157500D03*
X137795000Y-54032500D03*
%TD*%
D14*
%TO.C,R9*%
X114030000Y-98107500D03*
X112030000Y-98107500D03*
%TD*%
D15*
%TO.C,H3*%
X163485000Y-108585000D03*
X164144010Y-106994010D03*
X164144010Y-110175990D03*
X165735000Y-106335000D03*
D16*
X165735000Y-108585000D03*
D15*
X165735000Y-110835000D03*
X167325990Y-106994010D03*
X167325990Y-110175990D03*
X167985000Y-108585000D03*
%TD*%
D17*
%TO.C,C2*%
X159385000Y-58970000D03*
X159385000Y-61045000D03*
%TD*%
D18*
%TO.C,C5*%
X114067500Y-104457500D03*
X111992500Y-104457500D03*
%TD*%
D19*
%TO.C,R7*%
X137795000Y-61675000D03*
X137795000Y-59675000D03*
%TD*%
D20*
%TO.C,J8*%
X104430000Y-97795000D03*
X102630000Y-99795000D03*
X96530000Y-99795000D03*
X98930000Y-97795000D03*
X108130000Y-99795000D03*
%TD*%
D14*
%TO.C,R10*%
X118792500Y-98107500D03*
X116792500Y-98107500D03*
%TD*%
D21*
%TO.C,U4*%
X125412500Y-102487500D03*
X126682500Y-102487500D03*
X127952500Y-102487500D03*
X129222500Y-102487500D03*
X129222500Y-97537500D03*
X127952500Y-97537500D03*
X126682500Y-97537500D03*
X125412500Y-97537500D03*
%TD*%
D22*
%TO.C,J3*%
X161925000Y-100950010D03*
D23*
X161925000Y-98410010D03*
%TD*%
D22*
%TO.C,J4*%
X156830000Y-100965010D03*
D23*
X156830000Y-98425010D03*
X154290000Y-100965010D03*
X154290000Y-98425010D03*
X151750000Y-100965010D03*
X151750000Y-98425010D03*
X149210000Y-100965010D03*
X149210000Y-98425010D03*
X146670000Y-100965010D03*
X146670000Y-98425010D03*
X144130000Y-100965010D03*
X144130000Y-98425010D03*
X141590000Y-100965010D03*
X141590000Y-98425010D03*
X139050000Y-100965010D03*
X139050000Y-98425010D03*
%TD*%
D18*
%TO.C,C6*%
X118830000Y-101282500D03*
X116755000Y-101282500D03*
%TD*%
D15*
%TO.C,H1*%
X97765990Y-49215990D03*
X98425000Y-47625000D03*
X98425000Y-50806980D03*
X100015990Y-46965990D03*
D16*
X100015990Y-49215990D03*
D15*
X100015990Y-51465990D03*
X101606980Y-47625000D03*
X101606980Y-50806980D03*
X102265990Y-49215990D03*
%TD*%
D13*
%TO.C,C1*%
X130810000Y-61887500D03*
X130810000Y-58762500D03*
%TD*%
D22*
%TO.C,J7*%
X150480000Y-49530000D03*
D23*
X147940000Y-49530000D03*
X145400000Y-49530000D03*
%TD*%
D19*
%TO.C,R6*%
X141605000Y-61675000D03*
X141605000Y-59675000D03*
%TD*%
D15*
%TO.C,H2*%
X163485000Y-49212500D03*
X164144010Y-47621510D03*
X164144010Y-50803490D03*
X165735000Y-46962500D03*
D16*
X165735000Y-49212500D03*
D15*
X165735000Y-51462500D03*
X167325990Y-47621510D03*
X167325990Y-50803490D03*
X167985000Y-49212500D03*
%TD*%
D24*
%TO.C,U3*%
X109728000Y-57467500D03*
D25*
X124714000Y-57467500D03*
X124714000Y-60007500D03*
X124714000Y-54927500D03*
%TD*%
D15*
%TO.C,H4*%
X97762500Y-108585000D03*
X98421510Y-106994010D03*
X98421510Y-110175990D03*
X100012500Y-106335000D03*
D16*
X100012500Y-108585000D03*
D15*
X100012500Y-110835000D03*
X101603490Y-106994010D03*
X101603490Y-110175990D03*
X102262500Y-108585000D03*
%TD*%
D22*
%TO.C,J6*%
X158115000Y-52705000D03*
D23*
X155575000Y-52705000D03*
X153035000Y-52705000D03*
X150495000Y-52705000D03*
X147955000Y-52705000D03*
X145415000Y-52705000D03*
%TD*%
D26*
%TO.C,C7*%
X122237500Y-101282500D03*
X122237500Y-99207500D03*
%TD*%
D22*
%TO.C,J5*%
X101600000Y-60002500D03*
D23*
X101600000Y-62542500D03*
%TD*%
D27*
%TO.C,U1*%
X161925000Y-68877500D03*
X159385000Y-68877500D03*
X156845000Y-68877500D03*
X154305000Y-68877500D03*
X151765000Y-68877500D03*
X149225000Y-68877500D03*
X146685000Y-68877500D03*
X144145000Y-68877500D03*
X141605000Y-68877500D03*
X139065000Y-68877500D03*
X136525000Y-68877500D03*
X133985000Y-68877500D03*
X131445000Y-68877500D03*
X128905000Y-68877500D03*
X126365000Y-68877500D03*
X123825000Y-68877500D03*
X121285000Y-68877500D03*
X118745000Y-68877500D03*
X116205000Y-68877500D03*
X113665000Y-68877500D03*
X111125000Y-68877500D03*
X108585000Y-68877500D03*
X106045000Y-68877500D03*
X103505000Y-68877500D03*
X103505000Y-91777500D03*
X106045000Y-91777500D03*
X108585000Y-91777500D03*
X111125000Y-91777500D03*
X113665000Y-91777500D03*
X116205000Y-91777500D03*
X118745000Y-91777500D03*
X121285000Y-91777500D03*
X123825000Y-91777500D03*
X126365000Y-91777500D03*
X128905000Y-91777500D03*
X131445000Y-91777500D03*
X133985000Y-91777500D03*
X136525000Y-91777500D03*
X139065000Y-91777500D03*
X141605000Y-91777500D03*
X144145000Y-91777500D03*
X146685000Y-91777500D03*
X149225000Y-91777500D03*
X151765000Y-91777500D03*
X154305000Y-91777500D03*
X156845000Y-91777500D03*
X159385000Y-91777500D03*
X161925000Y-91777500D03*
%TD*%
M02*
