%TF.GenerationSoftware,KiCad,Pcbnew,8.0.2*%
%TF.CreationDate,2024-08-26T06:59:03-04:00*%
%TF.ProjectId,TRS-80-M3-VID2,5452532d-3830-42d4-9d33-2d564944322e,rev?*%
%TF.SameCoordinates,Original*%
%TF.FileFunction,Copper,L2,Bot*%
%TF.FilePolarity,Positive*%
%FSLAX46Y46*%
G04 Gerber Fmt 4.6, Leading zero omitted, Abs format (unit mm)*
G04 Created by KiCad (PCBNEW 8.0.2) date 2024-08-26 06:59:03*
%MOMM*%
%LPD*%
G01*
G04 APERTURE LIST*
%TA.AperFunction,ComponentPad*%
%ADD10C,0.800000*%
%TD*%
%TA.AperFunction,ComponentPad*%
%ADD11C,6.000000*%
%TD*%
%TA.AperFunction,ComponentPad*%
%ADD12O,1.800000X2.800000*%
%TD*%
%TA.AperFunction,ConnectorPad*%
%ADD13R,2.540000X10.160000*%
%TD*%
%TA.AperFunction,ComponentPad*%
%ADD14R,1.700000X1.700000*%
%TD*%
%TA.AperFunction,ComponentPad*%
%ADD15O,1.700000X1.700000*%
%TD*%
%TA.AperFunction,ComponentPad*%
%ADD16C,6.350000*%
%TD*%
%TA.AperFunction,ComponentPad*%
%ADD17O,3.048000X1.524000*%
%TD*%
%TA.AperFunction,ComponentPad*%
%ADD18O,1.200000X2.000000*%
%TD*%
%TA.AperFunction,ViaPad*%
%ADD19C,0.800000*%
%TD*%
%TA.AperFunction,Conductor*%
%ADD20C,0.635000*%
%TD*%
%TA.AperFunction,Conductor*%
%ADD21C,0.304800*%
%TD*%
%TA.AperFunction,Conductor*%
%ADD22C,1.270000*%
%TD*%
G04 APERTURE END LIST*
D10*
%TO.P,H3,1*%
%TO.N,N/C*%
X163485000Y-108585000D03*
X164144010Y-106994010D03*
X164144010Y-110175990D03*
X165735000Y-106335000D03*
D11*
X165735000Y-108585000D03*
D10*
X165735000Y-110835000D03*
X167325990Y-106994010D03*
X167325990Y-110175990D03*
X167985000Y-108585000D03*
%TD*%
D12*
%TO.P,J8,R*%
%TO.N,unconnected-(J8-PadR)*%
X104430000Y-97795000D03*
%TO.P,J8,RN*%
%TO.N,N/C*%
X102630000Y-99795000D03*
%TO.P,J8,S*%
%TO.N,GND*%
X96530000Y-99795000D03*
%TO.P,J8,T*%
%TO.N,Net-(C5-Pad2)*%
X98930000Y-97795000D03*
%TO.P,J8,TN*%
%TO.N,N/C*%
X108130000Y-99795000D03*
%TD*%
D13*
%TO.P,J1,1,Pin_1*%
%TO.N,GND*%
X115042950Y-39370000D03*
%TO.P,J1,2,Pin_2*%
%TO.N,VIDEO2*%
X119005350Y-39370000D03*
%TO.P,J1,3,Pin_3*%
%TO.N,WIPER*%
X122967750Y-39370000D03*
%TO.P,J1,4,Pin_4*%
%TO.N,POT*%
X126930150Y-39370000D03*
%TO.P,J1,5,Pin_5*%
%TO.N,unconnected-(J1-Pin_5-Pad5)*%
X130892550Y-39370000D03*
%TO.P,J1,6,Pin_6*%
%TO.N,HSYNC*%
X134854950Y-39370000D03*
%TO.P,J1,7,Pin_7*%
%TO.N,+12V*%
X138817350Y-39370000D03*
%TO.P,J1,8,Pin_8*%
%TO.N,VIDEO*%
X142779750Y-39370000D03*
%TO.P,J1,9,Pin_9*%
%TO.N,VSYNC*%
X146742150Y-39370000D03*
%TO.P,J1,10,Pin_10*%
%TO.N,GND*%
X150704550Y-39370000D03*
%TD*%
D14*
%TO.P,J3,1,Pin_1*%
%TO.N,GND*%
X161925000Y-100950010D03*
D15*
%TO.P,J3,2,Pin_2*%
%TO.N,Net-(J3-Pin_2)*%
X161925000Y-98410010D03*
%TD*%
D14*
%TO.P,J4,1,Pin_1*%
%TO.N,GND*%
X156830000Y-100965010D03*
D15*
%TO.P,J4,2,Pin_2*%
%TO.N,Net-(J4-Pin_2)*%
X156830000Y-98425010D03*
%TO.P,J4,3,Pin_3*%
%TO.N,GND*%
X154290000Y-100965010D03*
%TO.P,J4,4,Pin_4*%
%TO.N,Net-(J4-Pin_4)*%
X154290000Y-98425010D03*
%TO.P,J4,5,Pin_5*%
%TO.N,GND*%
X151750000Y-100965010D03*
%TO.P,J4,6,Pin_6*%
%TO.N,Net-(J4-Pin_6)*%
X151750000Y-98425010D03*
%TO.P,J4,7,Pin_7*%
%TO.N,GND*%
X149210000Y-100965010D03*
%TO.P,J4,8,Pin_8*%
%TO.N,Net-(J4-Pin_8)*%
X149210000Y-98425010D03*
%TO.P,J4,9,Pin_9*%
%TO.N,GND*%
X146670000Y-100965010D03*
%TO.P,J4,10,Pin_10*%
%TO.N,Net-(J4-Pin_10)*%
X146670000Y-98425010D03*
%TO.P,J4,11,Pin_11*%
%TO.N,GND*%
X144130000Y-100965010D03*
%TO.P,J4,12,Pin_12*%
%TO.N,Net-(J4-Pin_12)*%
X144130000Y-98425010D03*
%TO.P,J4,13,Pin_13*%
%TO.N,GND*%
X141590000Y-100965010D03*
%TO.P,J4,14,Pin_14*%
%TO.N,Net-(J4-Pin_14)*%
X141590000Y-98425010D03*
%TO.P,J4,15,Pin_15*%
%TO.N,GND*%
X139050000Y-100965010D03*
%TO.P,J4,16,Pin_16*%
%TO.N,Net-(J4-Pin_16)*%
X139050000Y-98425010D03*
%TD*%
D10*
%TO.P,H1,1*%
%TO.N,N/C*%
X97765990Y-49215990D03*
X98425000Y-47625000D03*
X98425000Y-50806980D03*
X100015990Y-46965990D03*
D11*
X100015990Y-49215990D03*
D10*
X100015990Y-51465990D03*
X101606980Y-47625000D03*
X101606980Y-50806980D03*
X102265990Y-49215990D03*
%TD*%
D14*
%TO.P,J7,1,Pin_1*%
%TO.N,VIDEO*%
X150480000Y-49530000D03*
D15*
%TO.P,J7,2,Pin_2*%
%TO.N,Net-(J6-Pin_2)*%
X147940000Y-49530000D03*
%TO.P,J7,3,Pin_3*%
%TO.N,VIDEO2*%
X145400000Y-49530000D03*
%TD*%
D10*
%TO.P,H2,1*%
%TO.N,N/C*%
X163485000Y-49212500D03*
X164144010Y-47621510D03*
X164144010Y-50803490D03*
X165735000Y-46962500D03*
D11*
X165735000Y-49212500D03*
D10*
X165735000Y-51462500D03*
X167325990Y-47621510D03*
X167325990Y-50803490D03*
X167985000Y-49212500D03*
%TD*%
D16*
%TO.P,U3,*%
%TO.N,*%
X109728000Y-57467500D03*
D17*
%TO.P,U3,GND*%
%TO.N,GND*%
X124714000Y-57467500D03*
%TO.P,U3,IN*%
%TO.N,+12V*%
X124714000Y-60007500D03*
%TO.P,U3,OUT*%
%TO.N,+5V*%
X124714000Y-54927500D03*
%TD*%
D10*
%TO.P,H4,1*%
%TO.N,N/C*%
X97762500Y-108585000D03*
X98421510Y-106994010D03*
X98421510Y-110175990D03*
X100012500Y-106335000D03*
D11*
X100012500Y-108585000D03*
D10*
X100012500Y-110835000D03*
X101603490Y-106994010D03*
X101603490Y-110175990D03*
X102262500Y-108585000D03*
%TD*%
D14*
%TO.P,J6,1,Pin_1*%
%TO.N,GND*%
X158115000Y-52705000D03*
D15*
%TO.P,J6,2,Pin_2*%
%TO.N,Net-(J6-Pin_2)*%
X155575000Y-52705000D03*
%TO.P,J6,3,Pin_3*%
%TO.N,GND*%
X153035000Y-52705000D03*
%TO.P,J6,4,Pin_4*%
%TO.N,VSYNC*%
X150495000Y-52705000D03*
%TO.P,J6,5,Pin_5*%
%TO.N,GND*%
X147955000Y-52705000D03*
%TO.P,J6,6,Pin_6*%
%TO.N,HSYNC*%
X145415000Y-52705000D03*
%TD*%
D14*
%TO.P,J5,1,Pin_1*%
%TO.N,+5V*%
X101600000Y-60002500D03*
D15*
%TO.P,J5,2,Pin_2*%
%TO.N,Net-(J5-Pin_2)*%
X101600000Y-62542500D03*
%TD*%
D18*
%TO.P,U1,1,Pad_38*%
%TO.N,unconnected-(U1-Pad_38-Pad1)*%
X161925000Y-68877500D03*
%TO.P,U1,2,Pad_37*%
%TO.N,unconnected-(U1-Pad_37-Pad2)*%
X159385000Y-68877500D03*
%TO.P,U1,3,Pad_36*%
%TO.N,unconnected-(U1-Pad_36-Pad3)*%
X156845000Y-68877500D03*
%TO.P,U1,4,Pad_39*%
%TO.N,unconnected-(U1-Pad_39-Pad4)*%
X154305000Y-68877500D03*
%TO.P,U1,5,Pad_25*%
%TO.N,VSYNCX*%
X151765000Y-68877500D03*
%TO.P,U1,6,Pad_26*%
%TO.N,VIDEOX*%
X149225000Y-68877500D03*
%TO.P,U1,7,Pad_27*%
%TO.N,HSYNCX*%
X146685000Y-68877500D03*
%TO.P,U1,8,Pad_28*%
%TO.N,unconnected-(U1-Pad_28-Pad8)*%
X144145000Y-68877500D03*
%TO.P,U1,9,Pad_29*%
%TO.N,Net-(R6-Pad1)*%
X141605000Y-68877500D03*
%TO.P,U1,10,Pad_30*%
%TO.N,Net-(R7-Pad1)*%
X139065000Y-68877500D03*
%TO.P,U1,11,Pad_33*%
%TO.N,unconnected-(U1-Pad_33-Pad11)*%
X136525000Y-68877500D03*
%TO.P,U1,12,Pad_34*%
%TO.N,unconnected-(U1-Pad_34-Pad12)*%
X133985000Y-68877500D03*
%TO.P,U1,13,Pad_40*%
%TO.N,unconnected-(U1-Pad_40-Pad13)*%
X131445000Y-68877500D03*
%TO.P,U1,14,Pad_35*%
%TO.N,unconnected-(U1-Pad_35-Pad14)*%
X128905000Y-68877500D03*
%TO.P,U1,15,Pad_41*%
%TO.N,unconnected-(U1-Pad_41-Pad15)*%
X126365000Y-68877500D03*
%TO.P,U1,16,Pad_42*%
%TO.N,unconnected-(U1-Pad_42-Pad16)*%
X123825000Y-68877500D03*
%TO.P,U1,17,Pad_51*%
%TO.N,unconnected-(U1-Pad_51-Pad17)*%
X121285000Y-68877500D03*
%TO.P,U1,18,Pad_53*%
%TO.N,unconnected-(U1-Pad_53-Pad18)*%
X118745000Y-68877500D03*
%TO.P,U1,19,Pad_54*%
%TO.N,unconnected-(U1-Pad_54-Pad19)*%
X116205000Y-68877500D03*
%TO.P,U1,20,Pad_55*%
%TO.N,unconnected-(U1-Pad_55-Pad20)*%
X113665000Y-68877500D03*
%TO.P,U1,21,Pad_56*%
%TO.N,unconnected-(U1-Pad_56-Pad21)*%
X111125000Y-68877500D03*
%TO.P,U1,22,Pad_57*%
%TO.N,VGA_VSYNC*%
X108585000Y-68877500D03*
%TO.P,U1,23,Pad_68*%
%TO.N,unconnected-(U1-Pad_68-Pad23)*%
X106045000Y-68877500D03*
%TO.P,U1,24,Pad_69*%
%TO.N,unconnected-(U1-Pad_69-Pad24)*%
X103505000Y-68877500D03*
%TO.P,U1,25,3V3*%
%TO.N,+3V3*%
X103505000Y-91777500D03*
%TO.P,U1,26,GND*%
%TO.N,GND*%
X106045000Y-91777500D03*
%TO.P,U1,27,Pad_32*%
%TO.N,VGA_HSYNC*%
X108585000Y-91777500D03*
%TO.P,U1,28,Pad_31*%
%TO.N,ADC_CLK*%
X111125000Y-91777500D03*
%TO.P,U1,29,Pad_49*%
%TO.N,ADC_DTA*%
X113665000Y-91777500D03*
%TO.P,U1,30,Pad_48*%
%TO.N,ADC_CS*%
X116205000Y-91777500D03*
%TO.P,U1,31,5V*%
%TO.N,Net-(J5-Pin_2)*%
X118745000Y-91777500D03*
%TO.P,U1,32,Pad_70*%
%TO.N,unconnected-(U1-Pad_70-Pad32)*%
X121285000Y-91777500D03*
%TO.P,U1,33,Pad_71*%
%TO.N,unconnected-(U1-Pad_71-Pad33)*%
X123825000Y-91777500D03*
%TO.P,U1,34,Pad_72*%
%TO.N,unconnected-(U1-Pad_72-Pad34)*%
X126365000Y-91777500D03*
%TO.P,U1,35,Pad_73*%
%TO.N,unconnected-(U1-Pad_73-Pad35)*%
X128905000Y-91777500D03*
%TO.P,U1,36,Pad_74*%
%TO.N,unconnected-(U1-Pad_74-Pad36)*%
X131445000Y-91777500D03*
%TO.P,U1,37,Pad_75*%
%TO.N,unconnected-(U1-Pad_75-Pad37)*%
X133985000Y-91777500D03*
%TO.P,U1,38,Pad_76*%
%TO.N,unconnected-(U1-Pad_76-Pad38)*%
X136525000Y-91777500D03*
%TO.P,U1,39,Pad_77*%
%TO.N,unconnected-(U1-Pad_77-Pad39)*%
X139065000Y-91777500D03*
%TO.P,U1,40,Pad_79*%
%TO.N,Net-(J4-Pin_16)*%
X141605000Y-91777500D03*
%TO.P,U1,41,Pad_80*%
%TO.N,Net-(J4-Pin_14)*%
X144145000Y-91777500D03*
%TO.P,U1,42,Pad_81*%
%TO.N,Net-(J4-Pin_12)*%
X146685000Y-91777500D03*
%TO.P,U1,43,Pad_82*%
%TO.N,Net-(J4-Pin_10)*%
X149225000Y-91777500D03*
%TO.P,U1,44,Pad_83*%
%TO.N,Net-(J4-Pin_8)*%
X151765000Y-91777500D03*
%TO.P,U1,45,Pad_84*%
%TO.N,Net-(J4-Pin_6)*%
X154305000Y-91777500D03*
%TO.P,U1,46,Pad_85*%
%TO.N,Net-(J4-Pin_4)*%
X156845000Y-91777500D03*
%TO.P,U1,47,Pad_86*%
%TO.N,Net-(J4-Pin_2)*%
X159385000Y-91777500D03*
%TO.P,U1,48,Pad_63*%
%TO.N,Net-(J3-Pin_2)*%
X161925000Y-91777500D03*
%TD*%
D19*
%TO.N,GND*%
X112077500Y-99695000D03*
X147955000Y-55880000D03*
X150495000Y-64452500D03*
X122237500Y-102552500D03*
X154305000Y-64452500D03*
X129222500Y-100012500D03*
X150495000Y-59690000D03*
X159385000Y-57467500D03*
X137795000Y-52387500D03*
X116522500Y-99695000D03*
%TO.N,+3V3*%
X155575000Y-65755000D03*
X137795000Y-65722500D03*
%TO.N,Net-(J5-Pin_2)*%
X101600000Y-67310000D03*
%TO.N,VIDEO2*%
X119005350Y-45980350D03*
%TO.N,Net-(J6-Pin_2)*%
X155575000Y-55362400D03*
%TO.N,VSYNC*%
X146742150Y-46037500D03*
%TO.N,VIDEO*%
X142779750Y-46037500D03*
%TO.N,HSYNC*%
X136842500Y-46037500D03*
%TO.N,+12V*%
X133032500Y-49212500D03*
%TO.N,WIPER*%
X122967750Y-46990000D03*
%TO.N,POT*%
X126930150Y-46990000D03*
%TD*%
D20*
%TO.N,+5V*%
X124714000Y-51435000D02*
X124714000Y-54927500D01*
X104775000Y-51435000D02*
X124714000Y-51435000D01*
X101600000Y-60002500D02*
X101600000Y-54610000D01*
X101600000Y-54610000D02*
X104775000Y-51435000D01*
D21*
%TO.N,GND*%
X156829989Y-100965000D02*
X139049989Y-100965000D01*
D22*
X150704550Y-39370000D02*
X150704550Y-45085000D01*
X115042950Y-39370000D02*
X115042950Y-45192950D01*
D20*
%TO.N,+3V3*%
X137795000Y-65722500D02*
X155567500Y-65722500D01*
%TO.N,Net-(J5-Pin_2)*%
X101600000Y-62542500D02*
X101600000Y-67310000D01*
%TO.N,VIDEO2*%
X119005350Y-39370000D02*
X119005350Y-45980350D01*
D21*
%TO.N,Net-(J6-Pin_2)*%
X155575000Y-52705000D02*
X155575000Y-55362400D01*
D20*
%TO.N,VSYNC*%
X146742150Y-46037500D02*
X146742150Y-39370000D01*
%TO.N,VIDEO*%
X142779750Y-39370000D02*
X142779750Y-46037500D01*
%TO.N,HSYNC*%
X134854950Y-46037500D02*
X134854950Y-39370000D01*
X136842500Y-46037500D02*
X134937500Y-46037500D01*
%TO.N,+12V*%
X138817350Y-39370000D02*
X138817350Y-47625000D01*
X133032500Y-47625000D02*
X138747500Y-47625000D01*
X133032500Y-47625000D02*
X133032500Y-49212500D01*
%TO.N,WIPER*%
X122967750Y-39370000D02*
X122967750Y-46990000D01*
%TO.N,POT*%
X126930150Y-39370000D02*
X126930150Y-46990000D01*
%TD*%
%TA.AperFunction,Conductor*%
%TO.N,GND*%
G36*
X141124075Y-100772017D02*
G01*
X141090000Y-100899184D01*
X141090000Y-101030836D01*
X141124075Y-101158003D01*
X141159297Y-101219010D01*
X139480703Y-101219010D01*
X139515925Y-101158003D01*
X139550000Y-101030836D01*
X139550000Y-100899184D01*
X139515925Y-100772017D01*
X139480703Y-100711010D01*
X141159297Y-100711010D01*
X141124075Y-100772017D01*
G37*
%TD.AperFunction*%
%TA.AperFunction,Conductor*%
G36*
X143664075Y-100772017D02*
G01*
X143630000Y-100899184D01*
X143630000Y-101030836D01*
X143664075Y-101158003D01*
X143699297Y-101219010D01*
X142020703Y-101219010D01*
X142055925Y-101158003D01*
X142090000Y-101030836D01*
X142090000Y-100899184D01*
X142055925Y-100772017D01*
X142020703Y-100711010D01*
X143699297Y-100711010D01*
X143664075Y-100772017D01*
G37*
%TD.AperFunction*%
%TA.AperFunction,Conductor*%
G36*
X146204075Y-100772017D02*
G01*
X146170000Y-100899184D01*
X146170000Y-101030836D01*
X146204075Y-101158003D01*
X146239297Y-101219010D01*
X144560703Y-101219010D01*
X144595925Y-101158003D01*
X144630000Y-101030836D01*
X144630000Y-100899184D01*
X144595925Y-100772017D01*
X144560703Y-100711010D01*
X146239297Y-100711010D01*
X146204075Y-100772017D01*
G37*
%TD.AperFunction*%
%TA.AperFunction,Conductor*%
G36*
X148744075Y-100772017D02*
G01*
X148710000Y-100899184D01*
X148710000Y-101030836D01*
X148744075Y-101158003D01*
X148779297Y-101219010D01*
X147100703Y-101219010D01*
X147135925Y-101158003D01*
X147170000Y-101030836D01*
X147170000Y-100899184D01*
X147135925Y-100772017D01*
X147100703Y-100711010D01*
X148779297Y-100711010D01*
X148744075Y-100772017D01*
G37*
%TD.AperFunction*%
%TA.AperFunction,Conductor*%
G36*
X151284075Y-100772017D02*
G01*
X151250000Y-100899184D01*
X151250000Y-101030836D01*
X151284075Y-101158003D01*
X151319297Y-101219010D01*
X149640703Y-101219010D01*
X149675925Y-101158003D01*
X149710000Y-101030836D01*
X149710000Y-100899184D01*
X149675925Y-100772017D01*
X149640703Y-100711010D01*
X151319297Y-100711010D01*
X151284075Y-100772017D01*
G37*
%TD.AperFunction*%
%TA.AperFunction,Conductor*%
G36*
X153824075Y-100772017D02*
G01*
X153790000Y-100899184D01*
X153790000Y-101030836D01*
X153824075Y-101158003D01*
X153859297Y-101219010D01*
X152180703Y-101219010D01*
X152215925Y-101158003D01*
X152250000Y-101030836D01*
X152250000Y-100899184D01*
X152215925Y-100772017D01*
X152180703Y-100711010D01*
X153859297Y-100711010D01*
X153824075Y-100772017D01*
G37*
%TD.AperFunction*%
%TA.AperFunction,Conductor*%
G36*
X156364075Y-100772017D02*
G01*
X156330000Y-100899184D01*
X156330000Y-101030836D01*
X156364075Y-101158003D01*
X156399297Y-101219010D01*
X154720703Y-101219010D01*
X154755925Y-101158003D01*
X154790000Y-101030836D01*
X154790000Y-100899184D01*
X154755925Y-100772017D01*
X154720703Y-100711010D01*
X156399297Y-100711010D01*
X156364075Y-100772017D01*
G37*
%TD.AperFunction*%
%TA.AperFunction,Conductor*%
G36*
X146709116Y-50410002D02*
G01*
X146762701Y-50444440D01*
X146930443Y-50626657D01*
X146930448Y-50626661D01*
X146930450Y-50626663D01*
X147124724Y-50777873D01*
X147341236Y-50895043D01*
X147341237Y-50895043D01*
X147341238Y-50895044D01*
X147463489Y-50937012D01*
X147574082Y-50974979D01*
X147816908Y-51015500D01*
X147816912Y-51015500D01*
X148063088Y-51015500D01*
X148063092Y-51015500D01*
X148305918Y-50974979D01*
X148538764Y-50895043D01*
X148755276Y-50777873D01*
X148762054Y-50772598D01*
X148816326Y-50730355D01*
X148896846Y-50667683D01*
X148962888Y-50641627D01*
X149032533Y-50655412D01*
X149082690Y-50702975D01*
X149123866Y-50772599D01*
X149123869Y-50772603D01*
X149237396Y-50886130D01*
X149237400Y-50886133D01*
X149237402Y-50886135D01*
X149375607Y-50967869D01*
X149529796Y-51012665D01*
X149565819Y-51015500D01*
X150086273Y-51015499D01*
X150154392Y-51035501D01*
X150200885Y-51089156D01*
X150210989Y-51159430D01*
X150181496Y-51224011D01*
X150127183Y-51260672D01*
X149896239Y-51339955D01*
X149896236Y-51339957D01*
X149679724Y-51457126D01*
X149679723Y-51457127D01*
X149485443Y-51608342D01*
X149318715Y-51789457D01*
X149254332Y-51888003D01*
X149200328Y-51934091D01*
X149129980Y-51943666D01*
X149065623Y-51913688D01*
X149043365Y-51888000D01*
X149030328Y-51868045D01*
X148877902Y-51702465D01*
X148700301Y-51564232D01*
X148700300Y-51564231D01*
X148502371Y-51457117D01*
X148502369Y-51457116D01*
X148289512Y-51384043D01*
X148289501Y-51384040D01*
X148209000Y-51370606D01*
X148209000Y-52274297D01*
X148147993Y-52239075D01*
X148020826Y-52205000D01*
X147889174Y-52205000D01*
X147762007Y-52239075D01*
X147701000Y-52274297D01*
X147701000Y-51370607D01*
X147700999Y-51370606D01*
X147620498Y-51384040D01*
X147620487Y-51384043D01*
X147407630Y-51457116D01*
X147407628Y-51457117D01*
X147209699Y-51564231D01*
X147209698Y-51564232D01*
X147032097Y-51702465D01*
X146879670Y-51868045D01*
X146866632Y-51888003D01*
X146812628Y-51934091D01*
X146742280Y-51943666D01*
X146677923Y-51913688D01*
X146655667Y-51888002D01*
X146591286Y-51789459D01*
X146424556Y-51608342D01*
X146367882Y-51564231D01*
X146230276Y-51457127D01*
X146230275Y-51457126D01*
X146095228Y-51384043D01*
X146013764Y-51339957D01*
X146013762Y-51339956D01*
X146013761Y-51339955D01*
X145780922Y-51260022D01*
X145780903Y-51260017D01*
X145664116Y-51240529D01*
X145600216Y-51209588D01*
X145563189Y-51149011D01*
X145564790Y-51078033D01*
X145604511Y-51019187D01*
X145664114Y-50991967D01*
X145765918Y-50974979D01*
X145998764Y-50895043D01*
X146215276Y-50777873D01*
X146409550Y-50626663D01*
X146442876Y-50590462D01*
X146577299Y-50444440D01*
X146638152Y-50407869D01*
X146709116Y-50410002D01*
G37*
%TD.AperFunction*%
%TA.AperFunction,Conductor*%
G36*
X165737748Y-44475620D02*
G01*
X166142361Y-44493286D01*
X166153310Y-44494243D01*
X166552124Y-44546748D01*
X166562940Y-44548656D01*
X166736612Y-44587158D01*
X166955654Y-44635718D01*
X166966272Y-44638563D01*
X167349897Y-44759520D01*
X167360226Y-44763279D01*
X167731866Y-44917217D01*
X167741828Y-44921863D01*
X168098625Y-45107600D01*
X168108128Y-45113086D01*
X168262605Y-45211499D01*
X168447387Y-45329218D01*
X168456391Y-45335522D01*
X168764590Y-45572011D01*
X168775526Y-45580402D01*
X168783932Y-45587455D01*
X169053548Y-45834513D01*
X169080509Y-45859218D01*
X169088277Y-45866986D01*
X169360042Y-46163565D01*
X169367097Y-46171973D01*
X169611977Y-46491108D01*
X169618281Y-46500112D01*
X169834408Y-46839363D01*
X169839904Y-46848883D01*
X170025636Y-47205671D01*
X170030282Y-47215633D01*
X170184220Y-47587273D01*
X170187979Y-47597602D01*
X170308936Y-47981227D01*
X170311781Y-47991845D01*
X170398842Y-48384555D01*
X170400751Y-48395380D01*
X170453255Y-48794188D01*
X170454213Y-48805138D01*
X170471880Y-49209751D01*
X170472000Y-49215247D01*
X170472000Y-108707156D01*
X170471880Y-108712652D01*
X170454213Y-109117264D01*
X170453255Y-109128214D01*
X170400752Y-109527021D01*
X170398843Y-109537847D01*
X170311780Y-109930560D01*
X170308935Y-109941177D01*
X170187978Y-110324800D01*
X170184219Y-110335129D01*
X170030281Y-110706768D01*
X170025635Y-110716730D01*
X169839903Y-111073518D01*
X169834407Y-111083038D01*
X169618276Y-111422296D01*
X169611971Y-111431300D01*
X169367105Y-111750414D01*
X169360040Y-111758834D01*
X169088279Y-112055409D01*
X169080506Y-112063182D01*
X168783938Y-112334937D01*
X168775518Y-112342003D01*
X168456389Y-112586878D01*
X168447385Y-112593182D01*
X168108135Y-112809309D01*
X168098624Y-112814800D01*
X167817866Y-112960954D01*
X167741827Y-113000537D01*
X167731865Y-113005182D01*
X167360226Y-113159120D01*
X167349897Y-113162879D01*
X166966271Y-113283836D01*
X166955653Y-113286681D01*
X166562944Y-113373742D01*
X166552119Y-113375651D01*
X166153310Y-113428155D01*
X166142361Y-113429113D01*
X165847282Y-113441997D01*
X165737648Y-113446784D01*
X165732168Y-113446904D01*
X100015248Y-113446904D01*
X100009752Y-113446784D01*
X99605138Y-113429117D01*
X99594188Y-113428159D01*
X99195379Y-113375655D01*
X99184554Y-113373746D01*
X98791845Y-113286685D01*
X98781227Y-113283840D01*
X98397601Y-113162883D01*
X98387272Y-113159124D01*
X98015633Y-113005186D01*
X98005671Y-113000540D01*
X97648882Y-112814808D01*
X97639362Y-112809312D01*
X97300111Y-112593185D01*
X97291107Y-112586881D01*
X96971972Y-112342001D01*
X96963564Y-112334946D01*
X96666985Y-112063181D01*
X96659217Y-112055412D01*
X96387461Y-111758843D01*
X96380396Y-111750423D01*
X96135525Y-111431302D01*
X96129220Y-111422298D01*
X96041717Y-111284945D01*
X95913084Y-111083032D01*
X95907598Y-111073529D01*
X95721860Y-110716730D01*
X95717215Y-110706770D01*
X95563276Y-110335131D01*
X95559517Y-110324802D01*
X95559516Y-110324800D01*
X95438556Y-109941163D01*
X95435719Y-109930576D01*
X95348648Y-109537827D01*
X95346746Y-109527043D01*
X95294239Y-109128214D01*
X95293282Y-109117265D01*
X95275620Y-108712743D01*
X95275500Y-108707247D01*
X95275500Y-108584993D01*
X96372011Y-108584993D01*
X96372011Y-108585006D01*
X96391952Y-108965526D01*
X96451564Y-109341900D01*
X96550186Y-109709964D01*
X96550190Y-109709977D01*
X96686743Y-110065710D01*
X96686747Y-110065718D01*
X96686748Y-110065720D01*
X96859744Y-110405245D01*
X97067283Y-110724826D01*
X97067288Y-110724832D01*
X97067290Y-110724835D01*
X97307085Y-111020958D01*
X97307099Y-111020974D01*
X97576525Y-111290400D01*
X97576533Y-111290407D01*
X97576537Y-111290411D01*
X97872674Y-111530217D01*
X98192255Y-111737756D01*
X98531780Y-111910752D01*
X98531784Y-111910753D01*
X98531789Y-111910756D01*
X98841670Y-112029708D01*
X98887527Y-112047311D01*
X99255600Y-112145936D01*
X99631965Y-112205546D01*
X99631967Y-112205546D01*
X99631973Y-112205547D01*
X100012494Y-112225489D01*
X100012500Y-112225489D01*
X100012506Y-112225489D01*
X100393026Y-112205547D01*
X100393030Y-112205546D01*
X100393035Y-112205546D01*
X100769400Y-112145936D01*
X101137473Y-112047311D01*
X101493220Y-111910752D01*
X101832745Y-111737756D01*
X102152326Y-111530217D01*
X102448463Y-111290411D01*
X102717911Y-111020963D01*
X102957717Y-110724826D01*
X103165256Y-110405245D01*
X103338252Y-110065720D01*
X103474811Y-109709973D01*
X103573436Y-109341900D01*
X103633046Y-108965535D01*
X103633046Y-108965530D01*
X103633047Y-108965526D01*
X103652989Y-108585006D01*
X103652989Y-108584993D01*
X162094511Y-108584993D01*
X162094511Y-108585006D01*
X162114452Y-108965526D01*
X162174064Y-109341900D01*
X162272686Y-109709964D01*
X162272690Y-109709977D01*
X162409243Y-110065710D01*
X162409247Y-110065718D01*
X162409248Y-110065720D01*
X162582244Y-110405245D01*
X162789783Y-110724826D01*
X162789788Y-110724832D01*
X162789790Y-110724835D01*
X163029585Y-111020958D01*
X163029599Y-111020974D01*
X163299025Y-111290400D01*
X163299033Y-111290407D01*
X163299037Y-111290411D01*
X163595174Y-111530217D01*
X163914755Y-111737756D01*
X164254280Y-111910752D01*
X164254284Y-111910753D01*
X164254289Y-111910756D01*
X164564170Y-112029708D01*
X164610027Y-112047311D01*
X164978100Y-112145936D01*
X165354465Y-112205546D01*
X165354467Y-112205546D01*
X165354473Y-112205547D01*
X165734994Y-112225489D01*
X165735000Y-112225489D01*
X165735006Y-112225489D01*
X166115526Y-112205547D01*
X166115530Y-112205546D01*
X166115535Y-112205546D01*
X166491900Y-112145936D01*
X166859973Y-112047311D01*
X167215720Y-111910752D01*
X167555245Y-111737756D01*
X167874826Y-111530217D01*
X168170963Y-111290411D01*
X168440411Y-111020963D01*
X168680217Y-110724826D01*
X168887756Y-110405245D01*
X169060752Y-110065720D01*
X169197311Y-109709973D01*
X169295936Y-109341900D01*
X169355546Y-108965535D01*
X169355546Y-108965530D01*
X169355547Y-108965526D01*
X169375489Y-108585006D01*
X169375489Y-108584993D01*
X169355547Y-108204473D01*
X169355546Y-108204465D01*
X169295936Y-107828100D01*
X169197311Y-107460027D01*
X169179708Y-107414170D01*
X169060756Y-107104289D01*
X169060752Y-107104281D01*
X169060752Y-107104280D01*
X168887756Y-106764756D01*
X168680217Y-106445174D01*
X168680210Y-106445164D01*
X168440414Y-106149041D01*
X168440411Y-106149037D01*
X168440407Y-106149033D01*
X168440400Y-106149025D01*
X168170974Y-105879599D01*
X168170958Y-105879585D01*
X167874835Y-105639790D01*
X167874832Y-105639788D01*
X167874826Y-105639783D01*
X167555245Y-105432244D01*
X167215720Y-105259248D01*
X167215719Y-105259247D01*
X167215718Y-105259247D01*
X167215710Y-105259243D01*
X166859977Y-105122690D01*
X166859964Y-105122686D01*
X166491900Y-105024064D01*
X166115526Y-104964452D01*
X165735006Y-104944511D01*
X165734994Y-104944511D01*
X165354473Y-104964452D01*
X164978099Y-105024064D01*
X164610035Y-105122686D01*
X164610022Y-105122690D01*
X164254289Y-105259243D01*
X164254281Y-105259247D01*
X163914765Y-105432239D01*
X163914759Y-105432242D01*
X163595181Y-105639777D01*
X163595164Y-105639789D01*
X163299041Y-105879585D01*
X163299025Y-105879599D01*
X163029599Y-106149025D01*
X163029585Y-106149041D01*
X162789789Y-106445164D01*
X162789777Y-106445181D01*
X162582242Y-106764759D01*
X162582239Y-106764765D01*
X162409247Y-107104281D01*
X162409243Y-107104289D01*
X162272690Y-107460022D01*
X162272686Y-107460035D01*
X162174064Y-107828099D01*
X162114452Y-108204473D01*
X162094511Y-108584993D01*
X103652989Y-108584993D01*
X103633047Y-108204473D01*
X103633046Y-108204465D01*
X103573436Y-107828100D01*
X103474811Y-107460027D01*
X103457208Y-107414170D01*
X103338256Y-107104289D01*
X103338252Y-107104281D01*
X103338252Y-107104280D01*
X103165256Y-106764756D01*
X102957717Y-106445174D01*
X102957710Y-106445164D01*
X102717914Y-106149041D01*
X102717911Y-106149037D01*
X102717907Y-106149033D01*
X102717900Y-106149025D01*
X102448474Y-105879599D01*
X102448458Y-105879585D01*
X102152335Y-105639790D01*
X102152332Y-105639788D01*
X102152326Y-105639783D01*
X101832745Y-105432244D01*
X101493220Y-105259248D01*
X101493219Y-105259247D01*
X101493218Y-105259247D01*
X101493210Y-105259243D01*
X101137477Y-105122690D01*
X101137464Y-105122686D01*
X100769400Y-105024064D01*
X100393026Y-104964452D01*
X100012506Y-104944511D01*
X100012494Y-104944511D01*
X99631973Y-104964452D01*
X99255599Y-105024064D01*
X98887535Y-105122686D01*
X98887522Y-105122690D01*
X98531789Y-105259243D01*
X98531781Y-105259247D01*
X98192265Y-105432239D01*
X98192259Y-105432242D01*
X97872681Y-105639777D01*
X97872664Y-105639789D01*
X97576541Y-105879585D01*
X97576525Y-105879599D01*
X97307099Y-106149025D01*
X97307085Y-106149041D01*
X97067289Y-106445164D01*
X97067277Y-106445181D01*
X96859742Y-106764759D01*
X96859739Y-106764765D01*
X96686747Y-107104281D01*
X96686743Y-107104289D01*
X96550190Y-107460022D01*
X96550186Y-107460035D01*
X96451564Y-107828099D01*
X96391952Y-108204473D01*
X96372011Y-108584993D01*
X95275500Y-108584993D01*
X95275500Y-101335904D01*
X95295502Y-101267783D01*
X95349158Y-101221290D01*
X95419432Y-101211186D01*
X95484012Y-101240680D01*
X95490595Y-101246809D01*
X95612746Y-101368960D01*
X95792043Y-101499227D01*
X95989514Y-101599843D01*
X95989516Y-101599844D01*
X96200289Y-101668329D01*
X96276000Y-101680320D01*
X96276000Y-100725702D01*
X96337007Y-100760925D01*
X96464174Y-100795000D01*
X96595826Y-100795000D01*
X96722993Y-100760925D01*
X96784000Y-100725702D01*
X96784000Y-101680320D01*
X96859709Y-101668329D01*
X96859711Y-101668329D01*
X97070483Y-101599844D01*
X97070485Y-101599843D01*
X97267956Y-101499227D01*
X97447253Y-101368960D01*
X97603960Y-101212253D01*
X97734227Y-101032956D01*
X97834843Y-100835485D01*
X97834844Y-100835483D01*
X97903329Y-100624710D01*
X97938000Y-100405808D01*
X97938000Y-100049000D01*
X97030000Y-100049000D01*
X97030000Y-99541000D01*
X97990191Y-99541000D01*
X97990191Y-99545128D01*
X98034758Y-99548280D01*
X98064877Y-99564433D01*
X98125223Y-99608277D01*
X98340573Y-99718004D01*
X98570436Y-99792691D01*
X98809154Y-99830500D01*
X98809157Y-99830500D01*
X99050843Y-99830500D01*
X99050846Y-99830500D01*
X99289564Y-99792691D01*
X99519427Y-99718004D01*
X99734777Y-99608277D01*
X99930311Y-99466214D01*
X100101214Y-99295311D01*
X100189239Y-99174154D01*
X101094500Y-99174154D01*
X101094500Y-100415846D01*
X101123985Y-100602007D01*
X101132310Y-100654569D01*
X101206917Y-100884184D01*
X101206996Y-100884427D01*
X101316723Y-101099777D01*
X101458786Y-101295311D01*
X101458788Y-101295313D01*
X101458790Y-101295316D01*
X101629683Y-101466209D01*
X101629686Y-101466211D01*
X101629689Y-101466214D01*
X101825223Y-101608277D01*
X102040573Y-101718004D01*
X102270436Y-101792691D01*
X102509154Y-101830500D01*
X102509157Y-101830500D01*
X102750843Y-101830500D01*
X102750846Y-101830500D01*
X102989564Y-101792691D01*
X103219427Y-101718004D01*
X103434777Y-101608277D01*
X103630311Y-101466214D01*
X103801214Y-101295311D01*
X103943277Y-101099777D01*
X104053004Y-100884427D01*
X104127691Y-100654564D01*
X104165500Y-100415846D01*
X104165500Y-99955274D01*
X104185502Y-99887153D01*
X104239158Y-99840660D01*
X104304126Y-99831318D01*
X104304222Y-99830112D01*
X104309151Y-99830500D01*
X104309154Y-99830500D01*
X104550843Y-99830500D01*
X104550846Y-99830500D01*
X104789564Y-99792691D01*
X105019427Y-99718004D01*
X105234777Y-99608277D01*
X105430311Y-99466214D01*
X105601214Y-99295311D01*
X105689239Y-99174154D01*
X106594500Y-99174154D01*
X106594500Y-100415846D01*
X106623985Y-100602007D01*
X106632310Y-100654569D01*
X106706917Y-100884184D01*
X106706996Y-100884427D01*
X106816723Y-101099777D01*
X106958786Y-101295311D01*
X106958788Y-101295313D01*
X106958790Y-101295316D01*
X107129683Y-101466209D01*
X107129686Y-101466211D01*
X107129689Y-101466214D01*
X107325223Y-101608277D01*
X107540573Y-101718004D01*
X107770436Y-101792691D01*
X108009154Y-101830500D01*
X108009157Y-101830500D01*
X108250843Y-101830500D01*
X108250846Y-101830500D01*
X108489564Y-101792691D01*
X108719427Y-101718004D01*
X108934777Y-101608277D01*
X109130311Y-101466214D01*
X109301214Y-101295311D01*
X109443277Y-101099777D01*
X109553004Y-100884427D01*
X109627691Y-100654564D01*
X109665500Y-100415846D01*
X109665500Y-99174154D01*
X109627691Y-98935436D01*
X109553004Y-98705573D01*
X109443277Y-98490223D01*
X109395897Y-98425010D01*
X137559409Y-98425010D01*
X137564812Y-98490219D01*
X137579740Y-98670360D01*
X137640171Y-98909000D01*
X137640174Y-98909007D01*
X137739063Y-99134452D01*
X137873713Y-99340550D01*
X138040443Y-99521667D01*
X138040448Y-99521671D01*
X138040450Y-99521673D01*
X138224031Y-99664560D01*
X138238837Y-99676084D01*
X138237335Y-99678013D01*
X138276825Y-99724260D01*
X138286419Y-99794606D01*
X138256459Y-99858971D01*
X138239226Y-99875202D01*
X138127097Y-99962475D01*
X137974674Y-100128051D01*
X137851580Y-100316461D01*
X137761179Y-100522553D01*
X137761176Y-100522560D01*
X137713455Y-100711009D01*
X137713456Y-100711010D01*
X138619297Y-100711010D01*
X138584075Y-100772017D01*
X138550000Y-100899184D01*
X138550000Y-101030836D01*
X138584075Y-101158003D01*
X138619297Y-101219010D01*
X137713455Y-101219010D01*
X137761176Y-101407459D01*
X137761179Y-101407466D01*
X137851580Y-101613558D01*
X137974674Y-101801968D01*
X138127097Y-101967544D01*
X138304698Y-102105777D01*
X138304699Y-102105778D01*
X138502628Y-102212892D01*
X138502630Y-102212893D01*
X138715483Y-102285965D01*
X138715492Y-102285967D01*
X138796000Y-102299401D01*
X138796000Y-101395712D01*
X138857007Y-101430935D01*
X138984174Y-101465010D01*
X139115826Y-101465010D01*
X139242993Y-101430935D01*
X139304000Y-101395712D01*
X139304000Y-102299400D01*
X139384507Y-102285967D01*
X139384516Y-102285965D01*
X139597369Y-102212893D01*
X139597371Y-102212892D01*
X139795300Y-102105778D01*
X139795301Y-102105777D01*
X139972902Y-101967544D01*
X140125327Y-101801965D01*
X140214517Y-101665451D01*
X140268521Y-101619362D01*
X140338868Y-101609787D01*
X140403226Y-101639764D01*
X140425483Y-101665451D01*
X140514672Y-101801965D01*
X140667097Y-101967544D01*
X140844698Y-102105777D01*
X140844699Y-102105778D01*
X141042628Y-102212892D01*
X141042630Y-102212893D01*
X141255483Y-102285965D01*
X141255492Y-102285967D01*
X141336000Y-102299401D01*
X141336000Y-101395712D01*
X141397007Y-101430935D01*
X141524174Y-101465010D01*
X141655826Y-101465010D01*
X141782993Y-101430935D01*
X141844000Y-101395712D01*
X141844000Y-102299400D01*
X141924507Y-102285967D01*
X141924516Y-102285965D01*
X142137369Y-102212893D01*
X142137371Y-102212892D01*
X142335300Y-102105778D01*
X142335301Y-102105777D01*
X142512902Y-101967544D01*
X142665327Y-101801965D01*
X142754517Y-101665451D01*
X142808521Y-101619362D01*
X142878868Y-101609787D01*
X142943226Y-101639764D01*
X142965483Y-101665451D01*
X143054672Y-101801965D01*
X143207097Y-101967544D01*
X143384698Y-102105777D01*
X143384699Y-102105778D01*
X143582628Y-102212892D01*
X143582630Y-102212893D01*
X143795483Y-102285965D01*
X143795492Y-102285967D01*
X143876000Y-102299401D01*
X143876000Y-101395712D01*
X143937007Y-101430935D01*
X144064174Y-101465010D01*
X144195826Y-101465010D01*
X144322993Y-101430935D01*
X144384000Y-101395712D01*
X144384000Y-102299400D01*
X144464507Y-102285967D01*
X144464516Y-102285965D01*
X144677369Y-102212893D01*
X144677371Y-102212892D01*
X144875300Y-102105778D01*
X144875301Y-102105777D01*
X145052902Y-101967544D01*
X145205327Y-101801965D01*
X145294517Y-101665451D01*
X145348521Y-101619362D01*
X145418868Y-101609787D01*
X145483226Y-101639764D01*
X145505483Y-101665451D01*
X145594672Y-101801965D01*
X145747097Y-101967544D01*
X145924698Y-102105777D01*
X145924699Y-102105778D01*
X146122628Y-102212892D01*
X146122630Y-102212893D01*
X146335483Y-102285965D01*
X146335492Y-102285967D01*
X146416000Y-102299401D01*
X146416000Y-101395712D01*
X146477007Y-101430935D01*
X146604174Y-101465010D01*
X146735826Y-101465010D01*
X146862993Y-101430935D01*
X146924000Y-101395712D01*
X146924000Y-102299400D01*
X147004507Y-102285967D01*
X147004516Y-102285965D01*
X147217369Y-102212893D01*
X147217371Y-102212892D01*
X147415300Y-102105778D01*
X147415301Y-102105777D01*
X147592902Y-101967544D01*
X147745327Y-101801965D01*
X147834517Y-101665451D01*
X147888521Y-101619362D01*
X147958868Y-101609787D01*
X148023226Y-101639764D01*
X148045483Y-101665451D01*
X148134672Y-101801965D01*
X148287097Y-101967544D01*
X148464698Y-102105777D01*
X148464699Y-102105778D01*
X148662628Y-102212892D01*
X148662630Y-102212893D01*
X148875483Y-102285965D01*
X148875492Y-102285967D01*
X148956000Y-102299401D01*
X148956000Y-101395712D01*
X149017007Y-101430935D01*
X149144174Y-101465010D01*
X149275826Y-101465010D01*
X149402993Y-101430935D01*
X149464000Y-101395712D01*
X149464000Y-102299400D01*
X149544507Y-102285967D01*
X149544516Y-102285965D01*
X149757369Y-102212893D01*
X149757371Y-102212892D01*
X149955300Y-102105778D01*
X149955301Y-102105777D01*
X150132902Y-101967544D01*
X150285327Y-101801965D01*
X150374517Y-101665451D01*
X150428521Y-101619362D01*
X150498868Y-101609787D01*
X150563226Y-101639764D01*
X150585483Y-101665451D01*
X150674672Y-101801965D01*
X150827097Y-101967544D01*
X151004698Y-102105777D01*
X151004699Y-102105778D01*
X151202628Y-102212892D01*
X151202630Y-102212893D01*
X151415483Y-102285965D01*
X151415492Y-102285967D01*
X151496000Y-102299401D01*
X151496000Y-101395712D01*
X151557007Y-101430935D01*
X151684174Y-101465010D01*
X151815826Y-101465010D01*
X151942993Y-101430935D01*
X152004000Y-101395712D01*
X152004000Y-102299400D01*
X152084507Y-102285967D01*
X152084516Y-102285965D01*
X152297369Y-102212893D01*
X152297371Y-102212892D01*
X152495300Y-102105778D01*
X152495301Y-102105777D01*
X152672902Y-101967544D01*
X152825327Y-101801965D01*
X152914517Y-101665451D01*
X152968521Y-101619362D01*
X153038868Y-101609787D01*
X153103226Y-101639764D01*
X153125483Y-101665451D01*
X153214672Y-101801965D01*
X153367097Y-101967544D01*
X153544698Y-102105777D01*
X153544699Y-102105778D01*
X153742628Y-102212892D01*
X153742630Y-102212893D01*
X153955483Y-102285965D01*
X153955492Y-102285967D01*
X154036000Y-102299401D01*
X154036000Y-101395712D01*
X154097007Y-101430935D01*
X154224174Y-101465010D01*
X154355826Y-101465010D01*
X154482993Y-101430935D01*
X154544000Y-101395712D01*
X154544000Y-102299400D01*
X154624507Y-102285967D01*
X154624516Y-102285965D01*
X154837369Y-102212893D01*
X154837371Y-102212892D01*
X155035300Y-102105778D01*
X155035301Y-102105777D01*
X155212902Y-101967544D01*
X155274426Y-101900710D01*
X155335279Y-101864138D01*
X155406243Y-101866271D01*
X155464789Y-101906432D01*
X155485185Y-101942013D01*
X155529556Y-102060976D01*
X155617095Y-102177914D01*
X155734034Y-102265454D01*
X155870906Y-102316504D01*
X155931402Y-102323009D01*
X155931415Y-102323010D01*
X156576000Y-102323010D01*
X156576000Y-101395712D01*
X156637007Y-101430935D01*
X156764174Y-101465010D01*
X156895826Y-101465010D01*
X157022993Y-101430935D01*
X157084000Y-101395712D01*
X157084000Y-102323010D01*
X157728585Y-102323010D01*
X157728597Y-102323009D01*
X157789093Y-102316504D01*
X157925964Y-102265454D01*
X157925965Y-102265454D01*
X158042904Y-102177914D01*
X158130444Y-102060975D01*
X158130444Y-102060974D01*
X158181494Y-101924103D01*
X158187999Y-101863607D01*
X158188000Y-101863595D01*
X158188000Y-101219010D01*
X157260703Y-101219010D01*
X157295925Y-101158003D01*
X157330000Y-101030836D01*
X157330000Y-100899184D01*
X157295925Y-100772017D01*
X157260703Y-100711010D01*
X158188000Y-100711010D01*
X158188000Y-100066424D01*
X158187999Y-100066412D01*
X158181494Y-100005916D01*
X158130444Y-99869045D01*
X158130444Y-99869044D01*
X158042904Y-99752105D01*
X157925964Y-99664565D01*
X157922453Y-99662648D01*
X157919622Y-99659817D01*
X157918748Y-99659163D01*
X157918842Y-99659037D01*
X157872250Y-99612447D01*
X157857157Y-99543073D01*
X157881966Y-99476552D01*
X157890126Y-99466732D01*
X158006286Y-99340550D01*
X158140936Y-99134453D01*
X158239827Y-98909004D01*
X158300261Y-98670353D01*
X158320591Y-98425010D01*
X158319348Y-98410010D01*
X160434409Y-98410010D01*
X160441055Y-98490219D01*
X160454740Y-98655360D01*
X160515171Y-98894000D01*
X160515174Y-98894007D01*
X160614063Y-99119452D01*
X160748713Y-99325550D01*
X160864863Y-99451722D01*
X160896284Y-99515387D01*
X160888297Y-99585932D01*
X160843438Y-99640961D01*
X160832553Y-99647643D01*
X160829041Y-99649560D01*
X160712095Y-99737105D01*
X160624555Y-99854044D01*
X160624555Y-99854045D01*
X160573505Y-99990916D01*
X160567000Y-100051412D01*
X160567000Y-100696010D01*
X161494297Y-100696010D01*
X161459075Y-100757017D01*
X161425000Y-100884184D01*
X161425000Y-101015836D01*
X161459075Y-101143003D01*
X161494297Y-101204010D01*
X160567000Y-101204010D01*
X160567000Y-101848607D01*
X160573505Y-101909103D01*
X160624555Y-102045974D01*
X160624555Y-102045975D01*
X160712095Y-102162914D01*
X160829034Y-102250454D01*
X160965906Y-102301504D01*
X161026402Y-102308009D01*
X161026415Y-102308010D01*
X161671000Y-102308010D01*
X161671000Y-101380712D01*
X161732007Y-101415935D01*
X161859174Y-101450010D01*
X161990826Y-101450010D01*
X162117993Y-101415935D01*
X162179000Y-101380712D01*
X162179000Y-102308010D01*
X162823585Y-102308010D01*
X162823597Y-102308009D01*
X162884093Y-102301504D01*
X163020964Y-102250454D01*
X163020965Y-102250454D01*
X163137904Y-102162914D01*
X163225444Y-102045975D01*
X163225444Y-102045974D01*
X163276494Y-101909103D01*
X163282999Y-101848607D01*
X163283000Y-101848595D01*
X163283000Y-101204010D01*
X162355703Y-101204010D01*
X162390925Y-101143003D01*
X162425000Y-101015836D01*
X162425000Y-100884184D01*
X162390925Y-100757017D01*
X162355703Y-100696010D01*
X163283000Y-100696010D01*
X163283000Y-100051424D01*
X163282999Y-100051412D01*
X163276494Y-99990916D01*
X163225444Y-99854045D01*
X163225444Y-99854044D01*
X163137904Y-99737105D01*
X163020964Y-99649565D01*
X163017453Y-99647648D01*
X163014622Y-99644817D01*
X163013748Y-99644163D01*
X163013842Y-99644037D01*
X162967250Y-99597447D01*
X162952157Y-99528073D01*
X162976966Y-99461552D01*
X162985126Y-99451732D01*
X163101286Y-99325550D01*
X163235936Y-99119453D01*
X163334827Y-98894004D01*
X163395261Y-98655353D01*
X163415591Y-98410010D01*
X163395261Y-98164667D01*
X163384909Y-98123786D01*
X163334828Y-97926019D01*
X163334825Y-97926012D01*
X163311131Y-97871996D01*
X163235936Y-97700567D01*
X163101286Y-97494469D01*
X162934556Y-97313352D01*
X162740276Y-97162137D01*
X162740275Y-97162136D01*
X162640933Y-97108375D01*
X162523764Y-97044967D01*
X162523762Y-97044966D01*
X162523761Y-97044965D01*
X162290922Y-96965032D01*
X162290915Y-96965030D01*
X162186993Y-96947688D01*
X162048092Y-96924510D01*
X161801908Y-96924510D01*
X161680385Y-96944788D01*
X161559084Y-96965030D01*
X161559077Y-96965032D01*
X161326238Y-97044965D01*
X161326236Y-97044967D01*
X161109724Y-97162136D01*
X161109723Y-97162137D01*
X160915443Y-97313352D01*
X160748713Y-97494469D01*
X160614063Y-97700567D01*
X160515174Y-97926012D01*
X160515171Y-97926019D01*
X160454740Y-98164659D01*
X160454739Y-98164665D01*
X160454739Y-98164667D01*
X160434409Y-98410010D01*
X158319348Y-98410010D01*
X158300261Y-98179667D01*
X158296463Y-98164667D01*
X158239828Y-97941019D01*
X158239825Y-97941012D01*
X158233248Y-97926019D01*
X158140936Y-97715567D01*
X158131136Y-97700567D01*
X158006286Y-97509469D01*
X157839556Y-97328352D01*
X157645276Y-97177137D01*
X157645275Y-97177136D01*
X157545933Y-97123375D01*
X157428764Y-97059967D01*
X157428762Y-97059966D01*
X157428761Y-97059965D01*
X157195922Y-96980032D01*
X157195915Y-96980030D01*
X157091993Y-96962688D01*
X156953092Y-96939510D01*
X156706908Y-96939510D01*
X156585385Y-96959788D01*
X156464084Y-96980030D01*
X156464077Y-96980032D01*
X156231238Y-97059965D01*
X156231236Y-97059967D01*
X156014724Y-97177136D01*
X156014723Y-97177137D01*
X155820446Y-97328350D01*
X155652701Y-97510569D01*
X155591848Y-97547140D01*
X155520883Y-97545005D01*
X155467299Y-97510569D01*
X155299553Y-97328350D01*
X155299552Y-97328349D01*
X155299550Y-97328347D01*
X155105276Y-97177137D01*
X155105275Y-97177136D01*
X155005933Y-97123375D01*
X154888764Y-97059967D01*
X154888762Y-97059966D01*
X154888761Y-97059965D01*
X154655922Y-96980032D01*
X154655915Y-96980030D01*
X154551993Y-96962688D01*
X154413092Y-96939510D01*
X154166908Y-96939510D01*
X154045385Y-96959788D01*
X153924084Y-96980030D01*
X153924077Y-96980032D01*
X153691238Y-97059965D01*
X153691236Y-97059967D01*
X153474724Y-97177136D01*
X153474723Y-97177137D01*
X153280446Y-97328350D01*
X153112701Y-97510569D01*
X153051848Y-97547140D01*
X152980883Y-97545005D01*
X152927299Y-97510569D01*
X152759553Y-97328350D01*
X152759552Y-97328349D01*
X152759550Y-97328347D01*
X152565276Y-97177137D01*
X152565275Y-97177136D01*
X152465933Y-97123375D01*
X152348764Y-97059967D01*
X152348762Y-97059966D01*
X152348761Y-97059965D01*
X152115922Y-96980032D01*
X152115915Y-96980030D01*
X152011993Y-96962688D01*
X151873092Y-96939510D01*
X151626908Y-96939510D01*
X151505385Y-96959788D01*
X151384084Y-96980030D01*
X151384077Y-96980032D01*
X151151238Y-97059965D01*
X151151236Y-97059967D01*
X150934724Y-97177136D01*
X150934723Y-97177137D01*
X150740446Y-97328350D01*
X150572701Y-97510569D01*
X150511848Y-97547140D01*
X150440883Y-97545005D01*
X150387299Y-97510569D01*
X150219553Y-97328350D01*
X150219552Y-97328349D01*
X150219550Y-97328347D01*
X150025276Y-97177137D01*
X150025275Y-97177136D01*
X149925933Y-97123375D01*
X149808764Y-97059967D01*
X149808762Y-97059966D01*
X149808761Y-97059965D01*
X149575922Y-96980032D01*
X149575915Y-96980030D01*
X149471993Y-96962688D01*
X149333092Y-96939510D01*
X149086908Y-96939510D01*
X148965385Y-96959788D01*
X148844084Y-96980030D01*
X148844077Y-96980032D01*
X148611238Y-97059965D01*
X148611236Y-97059967D01*
X148394724Y-97177136D01*
X148394723Y-97177137D01*
X148200446Y-97328350D01*
X148032701Y-97510569D01*
X147971848Y-97547140D01*
X147900883Y-97545005D01*
X147847299Y-97510569D01*
X147679553Y-97328350D01*
X147679552Y-97328349D01*
X147679550Y-97328347D01*
X147485276Y-97177137D01*
X147485275Y-97177136D01*
X147385933Y-97123375D01*
X147268764Y-97059967D01*
X147268762Y-97059966D01*
X147268761Y-97059965D01*
X147035922Y-96980032D01*
X147035915Y-96980030D01*
X146931993Y-96962688D01*
X146793092Y-96939510D01*
X146546908Y-96939510D01*
X146425385Y-96959788D01*
X146304084Y-96980030D01*
X146304077Y-96980032D01*
X146071238Y-97059965D01*
X146071236Y-97059967D01*
X145854724Y-97177136D01*
X145854723Y-97177137D01*
X145660446Y-97328350D01*
X145492701Y-97510569D01*
X145431848Y-97547140D01*
X145360883Y-97545005D01*
X145307299Y-97510569D01*
X145139553Y-97328350D01*
X145139552Y-97328349D01*
X145139550Y-97328347D01*
X144945276Y-97177137D01*
X144945275Y-97177136D01*
X144845933Y-97123375D01*
X144728764Y-97059967D01*
X144728762Y-97059966D01*
X144728761Y-97059965D01*
X144495922Y-96980032D01*
X144495915Y-96980030D01*
X144391993Y-96962688D01*
X144253092Y-96939510D01*
X144006908Y-96939510D01*
X143885385Y-96959788D01*
X143764084Y-96980030D01*
X143764077Y-96980032D01*
X143531238Y-97059965D01*
X143531236Y-97059967D01*
X143314724Y-97177136D01*
X143314723Y-97177137D01*
X143120446Y-97328350D01*
X142952701Y-97510569D01*
X142891848Y-97547140D01*
X142820883Y-97545005D01*
X142767299Y-97510569D01*
X142599553Y-97328350D01*
X142599552Y-97328349D01*
X142599550Y-97328347D01*
X142405276Y-97177137D01*
X142405275Y-97177136D01*
X142305933Y-97123375D01*
X142188764Y-97059967D01*
X142188762Y-97059966D01*
X142188761Y-97059965D01*
X141955922Y-96980032D01*
X141955915Y-96980030D01*
X141851993Y-96962688D01*
X141713092Y-96939510D01*
X141466908Y-96939510D01*
X141345385Y-96959788D01*
X141224084Y-96980030D01*
X141224077Y-96980032D01*
X140991238Y-97059965D01*
X140991236Y-97059967D01*
X140774724Y-97177136D01*
X140774723Y-97177137D01*
X140580446Y-97328350D01*
X140412701Y-97510569D01*
X140351848Y-97547140D01*
X140280883Y-97545005D01*
X140227299Y-97510569D01*
X140059553Y-97328350D01*
X140059552Y-97328349D01*
X140059550Y-97328347D01*
X139865276Y-97177137D01*
X139865275Y-97177136D01*
X139765933Y-97123375D01*
X139648764Y-97059967D01*
X139648762Y-97059966D01*
X139648761Y-97059965D01*
X139415922Y-96980032D01*
X139415915Y-96980030D01*
X139311993Y-96962688D01*
X139173092Y-96939510D01*
X138926908Y-96939510D01*
X138805385Y-96959788D01*
X138684084Y-96980030D01*
X138684077Y-96980032D01*
X138451238Y-97059965D01*
X138451236Y-97059967D01*
X138234724Y-97177136D01*
X138234723Y-97177137D01*
X138040443Y-97328352D01*
X137873713Y-97509469D01*
X137739063Y-97715567D01*
X137640174Y-97941012D01*
X137640171Y-97941019D01*
X137579740Y-98179659D01*
X137579739Y-98179665D01*
X137579739Y-98179667D01*
X137559409Y-98425010D01*
X109395897Y-98425010D01*
X109301214Y-98294689D01*
X109301211Y-98294686D01*
X109301209Y-98294683D01*
X109130316Y-98123790D01*
X109130313Y-98123788D01*
X109130311Y-98123786D01*
X108934777Y-97981723D01*
X108719427Y-97871996D01*
X108719424Y-97871995D01*
X108719422Y-97871994D01*
X108489569Y-97797310D01*
X108489565Y-97797309D01*
X108489564Y-97797309D01*
X108250846Y-97759500D01*
X108009154Y-97759500D01*
X107770436Y-97797309D01*
X107770430Y-97797310D01*
X107540577Y-97871994D01*
X107540571Y-97871997D01*
X107325219Y-97981725D01*
X107129686Y-98123788D01*
X107129683Y-98123790D01*
X106958790Y-98294683D01*
X106958788Y-98294686D01*
X106816725Y-98490219D01*
X106706997Y-98705571D01*
X106706994Y-98705577D01*
X106632310Y-98935430D01*
X106632309Y-98935435D01*
X106632309Y-98935436D01*
X106594500Y-99174154D01*
X105689239Y-99174154D01*
X105743277Y-99099777D01*
X105853004Y-98884427D01*
X105927691Y-98654564D01*
X105965500Y-98415846D01*
X105965500Y-97174154D01*
X105927691Y-96935436D01*
X105853004Y-96705573D01*
X105743277Y-96490223D01*
X105601214Y-96294689D01*
X105601211Y-96294686D01*
X105601209Y-96294683D01*
X105430316Y-96123790D01*
X105430313Y-96123788D01*
X105430311Y-96123786D01*
X105234777Y-95981723D01*
X105019427Y-95871996D01*
X105019424Y-95871995D01*
X105019422Y-95871994D01*
X104789569Y-95797310D01*
X104789565Y-95797309D01*
X104789564Y-95797309D01*
X104550846Y-95759500D01*
X104309154Y-95759500D01*
X104070436Y-95797309D01*
X104070430Y-95797310D01*
X103840577Y-95871994D01*
X103840571Y-95871997D01*
X103625219Y-95981725D01*
X103429686Y-96123788D01*
X103429683Y-96123790D01*
X103258790Y-96294683D01*
X103258788Y-96294686D01*
X103116725Y-96490219D01*
X103006997Y-96705571D01*
X103006994Y-96705577D01*
X102932310Y-96935430D01*
X102932309Y-96935435D01*
X102932309Y-96935436D01*
X102896404Y-97162137D01*
X102894500Y-97174157D01*
X102894500Y-97634725D01*
X102874498Y-97702846D01*
X102820842Y-97749339D01*
X102755874Y-97758680D01*
X102755779Y-97759888D01*
X102750850Y-97759500D01*
X102750846Y-97759500D01*
X102509154Y-97759500D01*
X102270436Y-97797309D01*
X102270430Y-97797310D01*
X102040577Y-97871994D01*
X102040571Y-97871997D01*
X101825219Y-97981725D01*
X101629686Y-98123788D01*
X101629683Y-98123790D01*
X101458790Y-98294683D01*
X101458788Y-98294686D01*
X101316725Y-98490219D01*
X101206997Y-98705571D01*
X101206994Y-98705577D01*
X101132310Y-98935430D01*
X101132309Y-98935435D01*
X101132309Y-98935436D01*
X101094500Y-99174154D01*
X100189239Y-99174154D01*
X100243277Y-99099777D01*
X100353004Y-98884427D01*
X100427691Y-98654564D01*
X100465500Y-98415846D01*
X100465500Y-97174154D01*
X100427691Y-96935436D01*
X100353004Y-96705573D01*
X100243277Y-96490223D01*
X100101214Y-96294689D01*
X100101211Y-96294686D01*
X100101209Y-96294683D01*
X99930316Y-96123790D01*
X99930313Y-96123788D01*
X99930311Y-96123786D01*
X99734777Y-95981723D01*
X99519427Y-95871996D01*
X99519424Y-95871995D01*
X99519422Y-95871994D01*
X99289569Y-95797310D01*
X99289565Y-95797309D01*
X99289564Y-95797309D01*
X99050846Y-95759500D01*
X98809154Y-95759500D01*
X98570436Y-95797309D01*
X98570430Y-95797310D01*
X98340577Y-95871994D01*
X98340571Y-95871997D01*
X98125219Y-95981725D01*
X97929686Y-96123788D01*
X97929683Y-96123790D01*
X97758790Y-96294683D01*
X97758788Y-96294686D01*
X97616725Y-96490219D01*
X97506997Y-96705571D01*
X97506994Y-96705577D01*
X97432310Y-96935430D01*
X97432309Y-96935435D01*
X97432309Y-96935436D01*
X97396404Y-97162137D01*
X97394500Y-97174157D01*
X97394500Y-97949635D01*
X97374498Y-98017756D01*
X97320842Y-98064249D01*
X97250568Y-98074353D01*
X97211298Y-98061902D01*
X97070491Y-97990158D01*
X97070483Y-97990155D01*
X96859709Y-97921669D01*
X96784000Y-97909678D01*
X96784000Y-98864297D01*
X96722993Y-98829075D01*
X96595826Y-98795000D01*
X96464174Y-98795000D01*
X96337007Y-98829075D01*
X96276000Y-98864297D01*
X96276000Y-97909678D01*
X96200290Y-97921669D01*
X95989516Y-97990155D01*
X95989514Y-97990156D01*
X95792043Y-98090772D01*
X95612746Y-98221039D01*
X95612743Y-98221042D01*
X95490595Y-98343191D01*
X95428283Y-98377217D01*
X95357468Y-98372152D01*
X95300632Y-98329605D01*
X95275821Y-98263085D01*
X95275500Y-98254096D01*
X95275500Y-91280264D01*
X102269500Y-91280264D01*
X102269500Y-92274736D01*
X102284743Y-92370974D01*
X102299923Y-92466816D01*
X102326810Y-92549565D01*
X102360018Y-92651767D01*
X102360019Y-92651768D01*
X102448308Y-92825046D01*
X102562615Y-92982376D01*
X102700123Y-93119884D01*
X102803473Y-93194972D01*
X102857457Y-93234194D01*
X103030733Y-93322482D01*
X103215686Y-93382577D01*
X103407764Y-93413000D01*
X103407766Y-93413000D01*
X103602234Y-93413000D01*
X103602236Y-93413000D01*
X103794314Y-93382577D01*
X103979267Y-93322482D01*
X104152543Y-93234194D01*
X104309874Y-93119886D01*
X104447386Y-92982374D01*
X104561694Y-92825043D01*
X104649982Y-92651767D01*
X104710077Y-92466814D01*
X104715096Y-92435124D01*
X104745506Y-92370974D01*
X104805774Y-92333446D01*
X104876763Y-92334459D01*
X104935936Y-92373690D01*
X104962684Y-92432255D01*
X104963129Y-92432149D01*
X104963675Y-92434424D01*
X104963991Y-92435116D01*
X104964282Y-92436952D01*
X104964284Y-92436960D01*
X105018174Y-92602819D01*
X105018177Y-92602825D01*
X105097356Y-92758221D01*
X105199867Y-92899315D01*
X105199869Y-92899318D01*
X105323181Y-93022630D01*
X105323184Y-93022632D01*
X105464278Y-93125143D01*
X105619674Y-93204322D01*
X105619680Y-93204325D01*
X105785534Y-93258214D01*
X105791000Y-93259080D01*
X105791000Y-92089186D01*
X105799394Y-92097580D01*
X105890606Y-92150241D01*
X105992339Y-92177500D01*
X106097661Y-92177500D01*
X106199394Y-92150241D01*
X106290606Y-92097580D01*
X106299000Y-92089186D01*
X106299000Y-93259080D01*
X106304465Y-93258214D01*
X106470319Y-93204325D01*
X106470325Y-93204322D01*
X106625721Y-93125143D01*
X106766815Y-93022632D01*
X106766818Y-93022630D01*
X106890130Y-92899318D01*
X106890132Y-92899315D01*
X106992643Y-92758221D01*
X107071822Y-92602825D01*
X107071825Y-92602819D01*
X107125715Y-92436962D01*
X107126005Y-92435134D01*
X107126307Y-92434494D01*
X107126871Y-92432149D01*
X107127363Y-92432267D01*
X107156412Y-92370979D01*
X107216678Y-92333448D01*
X107287667Y-92334456D01*
X107346842Y-92373685D01*
X107374903Y-92435124D01*
X107379922Y-92466811D01*
X107379923Y-92466814D01*
X107440018Y-92651767D01*
X107440019Y-92651768D01*
X107528308Y-92825046D01*
X107642615Y-92982376D01*
X107780123Y-93119884D01*
X107883473Y-93194972D01*
X107937457Y-93234194D01*
X108110733Y-93322482D01*
X108295686Y-93382577D01*
X108487764Y-93413000D01*
X108487766Y-93413000D01*
X108682234Y-93413000D01*
X108682236Y-93413000D01*
X108874314Y-93382577D01*
X109059267Y-93322482D01*
X109232543Y-93234194D01*
X109389874Y-93119886D01*
X109527386Y-92982374D01*
X109641694Y-92825043D01*
X109729982Y-92651767D01*
X109735167Y-92635806D01*
X109775240Y-92577203D01*
X109840636Y-92549565D01*
X109910593Y-92561672D01*
X109962900Y-92609677D01*
X109974831Y-92635804D01*
X109980018Y-92651767D01*
X109980019Y-92651768D01*
X110068308Y-92825046D01*
X110182615Y-92982376D01*
X110320123Y-93119884D01*
X110423473Y-93194972D01*
X110477457Y-93234194D01*
X110650733Y-93322482D01*
X110835686Y-93382577D01*
X111027764Y-93413000D01*
X111027766Y-93413000D01*
X111222234Y-93413000D01*
X111222236Y-93413000D01*
X111414314Y-93382577D01*
X111599267Y-93322482D01*
X111772543Y-93234194D01*
X111929874Y-93119886D01*
X112067386Y-92982374D01*
X112181694Y-92825043D01*
X112269982Y-92651767D01*
X112275167Y-92635806D01*
X112315240Y-92577203D01*
X112380636Y-92549565D01*
X112450593Y-92561672D01*
X112502900Y-92609677D01*
X112514831Y-92635804D01*
X112520018Y-92651767D01*
X112520019Y-92651768D01*
X112608308Y-92825046D01*
X112722615Y-92982376D01*
X112860123Y-93119884D01*
X112963473Y-93194972D01*
X113017457Y-93234194D01*
X113190733Y-93322482D01*
X113375686Y-93382577D01*
X113567764Y-93413000D01*
X113567766Y-93413000D01*
X113762234Y-93413000D01*
X113762236Y-93413000D01*
X113954314Y-93382577D01*
X114139267Y-93322482D01*
X114312543Y-93234194D01*
X114469874Y-93119886D01*
X114607386Y-92982374D01*
X114721694Y-92825043D01*
X114809982Y-92651767D01*
X114815167Y-92635806D01*
X114855240Y-92577203D01*
X114920636Y-92549565D01*
X114990593Y-92561672D01*
X115042900Y-92609677D01*
X115054831Y-92635804D01*
X115060018Y-92651767D01*
X115060019Y-92651768D01*
X115148308Y-92825046D01*
X115262615Y-92982376D01*
X115400123Y-93119884D01*
X115503473Y-93194972D01*
X115557457Y-93234194D01*
X115730733Y-93322482D01*
X115915686Y-93382577D01*
X116107764Y-93413000D01*
X116107766Y-93413000D01*
X116302234Y-93413000D01*
X116302236Y-93413000D01*
X116494314Y-93382577D01*
X116679267Y-93322482D01*
X116852543Y-93234194D01*
X117009874Y-93119886D01*
X117147386Y-92982374D01*
X117261694Y-92825043D01*
X117349982Y-92651767D01*
X117355167Y-92635806D01*
X117395240Y-92577203D01*
X117460636Y-92549565D01*
X117530593Y-92561672D01*
X117582900Y-92609677D01*
X117594831Y-92635804D01*
X117600018Y-92651767D01*
X117600019Y-92651768D01*
X117688308Y-92825046D01*
X117802615Y-92982376D01*
X117940123Y-93119884D01*
X118043473Y-93194972D01*
X118097457Y-93234194D01*
X118270733Y-93322482D01*
X118455686Y-93382577D01*
X118647764Y-93413000D01*
X118647766Y-93413000D01*
X118842234Y-93413000D01*
X118842236Y-93413000D01*
X119034314Y-93382577D01*
X119219267Y-93322482D01*
X119392543Y-93234194D01*
X119549874Y-93119886D01*
X119687386Y-92982374D01*
X119801694Y-92825043D01*
X119889982Y-92651767D01*
X119895167Y-92635806D01*
X119935240Y-92577203D01*
X120000636Y-92549565D01*
X120070593Y-92561672D01*
X120122900Y-92609677D01*
X120134831Y-92635804D01*
X120140018Y-92651767D01*
X120140019Y-92651768D01*
X120228308Y-92825046D01*
X120342615Y-92982376D01*
X120480123Y-93119884D01*
X120583473Y-93194972D01*
X120637457Y-93234194D01*
X120810733Y-93322482D01*
X120995686Y-93382577D01*
X121187764Y-93413000D01*
X121187766Y-93413000D01*
X121382234Y-93413000D01*
X121382236Y-93413000D01*
X121574314Y-93382577D01*
X121759267Y-93322482D01*
X121932543Y-93234194D01*
X122089874Y-93119886D01*
X122227386Y-92982374D01*
X122341694Y-92825043D01*
X122429982Y-92651767D01*
X122435167Y-92635806D01*
X122475240Y-92577203D01*
X122540636Y-92549565D01*
X122610593Y-92561672D01*
X122662900Y-92609677D01*
X122674831Y-92635804D01*
X122680018Y-92651767D01*
X122680019Y-92651768D01*
X122768308Y-92825046D01*
X122882615Y-92982376D01*
X123020123Y-93119884D01*
X123123473Y-93194972D01*
X123177457Y-93234194D01*
X123350733Y-93322482D01*
X123535686Y-93382577D01*
X123727764Y-93413000D01*
X123727766Y-93413000D01*
X123922234Y-93413000D01*
X123922236Y-93413000D01*
X124114314Y-93382577D01*
X124299267Y-93322482D01*
X124472543Y-93234194D01*
X124629874Y-93119886D01*
X124767386Y-92982374D01*
X124881694Y-92825043D01*
X124969982Y-92651767D01*
X124975167Y-92635806D01*
X125015240Y-92577203D01*
X125080636Y-92549565D01*
X125150593Y-92561672D01*
X125202900Y-92609677D01*
X125214831Y-92635804D01*
X125220018Y-92651767D01*
X125220019Y-92651768D01*
X125308308Y-92825046D01*
X125422615Y-92982376D01*
X125560123Y-93119884D01*
X125663473Y-93194972D01*
X125717457Y-93234194D01*
X125890733Y-93322482D01*
X126075686Y-93382577D01*
X126267764Y-93413000D01*
X126267766Y-93413000D01*
X126462234Y-93413000D01*
X126462236Y-93413000D01*
X126654314Y-93382577D01*
X126839267Y-93322482D01*
X127012543Y-93234194D01*
X127169874Y-93119886D01*
X127307386Y-92982374D01*
X127421694Y-92825043D01*
X127509982Y-92651767D01*
X127515167Y-92635806D01*
X127555240Y-92577203D01*
X127620636Y-92549565D01*
X127690593Y-92561672D01*
X127742900Y-92609677D01*
X127754831Y-92635804D01*
X127760018Y-92651767D01*
X127760019Y-92651768D01*
X127848308Y-92825046D01*
X127962615Y-92982376D01*
X128100123Y-93119884D01*
X128203473Y-93194972D01*
X128257457Y-93234194D01*
X128430733Y-93322482D01*
X128615686Y-93382577D01*
X128807764Y-93413000D01*
X128807766Y-93413000D01*
X129002234Y-93413000D01*
X129002236Y-93413000D01*
X129194314Y-93382577D01*
X129379267Y-93322482D01*
X129552543Y-93234194D01*
X129709874Y-93119886D01*
X129847386Y-92982374D01*
X129961694Y-92825043D01*
X130049982Y-92651767D01*
X130055167Y-92635806D01*
X130095240Y-92577203D01*
X130160636Y-92549565D01*
X130230593Y-92561672D01*
X130282900Y-92609677D01*
X130294831Y-92635804D01*
X130300018Y-92651767D01*
X130300019Y-92651768D01*
X130388308Y-92825046D01*
X130502615Y-92982376D01*
X130640123Y-93119884D01*
X130743473Y-93194972D01*
X130797457Y-93234194D01*
X130970733Y-93322482D01*
X131155686Y-93382577D01*
X131347764Y-93413000D01*
X131347766Y-93413000D01*
X131542234Y-93413000D01*
X131542236Y-93413000D01*
X131734314Y-93382577D01*
X131919267Y-93322482D01*
X132092543Y-93234194D01*
X132249874Y-93119886D01*
X132387386Y-92982374D01*
X132501694Y-92825043D01*
X132589982Y-92651767D01*
X132595167Y-92635806D01*
X132635240Y-92577203D01*
X132700636Y-92549565D01*
X132770593Y-92561672D01*
X132822900Y-92609677D01*
X132834831Y-92635804D01*
X132840018Y-92651767D01*
X132840019Y-92651768D01*
X132928308Y-92825046D01*
X133042615Y-92982376D01*
X133180123Y-93119884D01*
X133283473Y-93194972D01*
X133337457Y-93234194D01*
X133510733Y-93322482D01*
X133695686Y-93382577D01*
X133887764Y-93413000D01*
X133887766Y-93413000D01*
X134082234Y-93413000D01*
X134082236Y-93413000D01*
X134274314Y-93382577D01*
X134459267Y-93322482D01*
X134632543Y-93234194D01*
X134789874Y-93119886D01*
X134927386Y-92982374D01*
X135041694Y-92825043D01*
X135129982Y-92651767D01*
X135135167Y-92635806D01*
X135175240Y-92577203D01*
X135240636Y-92549565D01*
X135310593Y-92561672D01*
X135362900Y-92609677D01*
X135374831Y-92635804D01*
X135380018Y-92651767D01*
X135380019Y-92651768D01*
X135468308Y-92825046D01*
X135582615Y-92982376D01*
X135720123Y-93119884D01*
X135823473Y-93194972D01*
X135877457Y-93234194D01*
X136050733Y-93322482D01*
X136235686Y-93382577D01*
X136427764Y-93413000D01*
X136427766Y-93413000D01*
X136622234Y-93413000D01*
X136622236Y-93413000D01*
X136814314Y-93382577D01*
X136999267Y-93322482D01*
X137172543Y-93234194D01*
X137329874Y-93119886D01*
X137467386Y-92982374D01*
X137581694Y-92825043D01*
X137669982Y-92651767D01*
X137675167Y-92635806D01*
X137715240Y-92577203D01*
X137780636Y-92549565D01*
X137850593Y-92561672D01*
X137902900Y-92609677D01*
X137914831Y-92635804D01*
X137920018Y-92651767D01*
X137920019Y-92651768D01*
X138008308Y-92825046D01*
X138122615Y-92982376D01*
X138260123Y-93119884D01*
X138363473Y-93194972D01*
X138417457Y-93234194D01*
X138590733Y-93322482D01*
X138775686Y-93382577D01*
X138967764Y-93413000D01*
X138967766Y-93413000D01*
X139162234Y-93413000D01*
X139162236Y-93413000D01*
X139354314Y-93382577D01*
X139539267Y-93322482D01*
X139712543Y-93234194D01*
X139869874Y-93119886D01*
X140007386Y-92982374D01*
X140121694Y-92825043D01*
X140209982Y-92651767D01*
X140215167Y-92635806D01*
X140255240Y-92577203D01*
X140320636Y-92549565D01*
X140390593Y-92561672D01*
X140442900Y-92609677D01*
X140454831Y-92635804D01*
X140460018Y-92651767D01*
X140460019Y-92651768D01*
X140548308Y-92825046D01*
X140662615Y-92982376D01*
X140800123Y-93119884D01*
X140903473Y-93194972D01*
X140957457Y-93234194D01*
X141130733Y-93322482D01*
X141315686Y-93382577D01*
X141507764Y-93413000D01*
X141507766Y-93413000D01*
X141702234Y-93413000D01*
X141702236Y-93413000D01*
X141894314Y-93382577D01*
X142079267Y-93322482D01*
X142252543Y-93234194D01*
X142409874Y-93119886D01*
X142547386Y-92982374D01*
X142661694Y-92825043D01*
X142749982Y-92651767D01*
X142755167Y-92635806D01*
X142795240Y-92577203D01*
X142860636Y-92549565D01*
X142930593Y-92561672D01*
X142982900Y-92609677D01*
X142994831Y-92635804D01*
X143000018Y-92651767D01*
X143000019Y-92651768D01*
X143088308Y-92825046D01*
X143202615Y-92982376D01*
X143340123Y-93119884D01*
X143443473Y-93194972D01*
X143497457Y-93234194D01*
X143670733Y-93322482D01*
X143855686Y-93382577D01*
X144047764Y-93413000D01*
X144047766Y-93413000D01*
X144242234Y-93413000D01*
X144242236Y-93413000D01*
X144434314Y-93382577D01*
X144619267Y-93322482D01*
X144792543Y-93234194D01*
X144949874Y-93119886D01*
X145087386Y-92982374D01*
X145201694Y-92825043D01*
X145289982Y-92651767D01*
X145295167Y-92635806D01*
X145335240Y-92577203D01*
X145400636Y-92549565D01*
X145470593Y-92561672D01*
X145522900Y-92609677D01*
X145534831Y-92635804D01*
X145540018Y-92651767D01*
X145540019Y-92651768D01*
X145628308Y-92825046D01*
X145742615Y-92982376D01*
X145880123Y-93119884D01*
X145983473Y-93194972D01*
X146037457Y-93234194D01*
X146210733Y-93322482D01*
X146395686Y-93382577D01*
X146587764Y-93413000D01*
X146587766Y-93413000D01*
X146782234Y-93413000D01*
X146782236Y-93413000D01*
X146974314Y-93382577D01*
X147159267Y-93322482D01*
X147332543Y-93234194D01*
X147489874Y-93119886D01*
X147627386Y-92982374D01*
X147741694Y-92825043D01*
X147829982Y-92651767D01*
X147835167Y-92635806D01*
X147875240Y-92577203D01*
X147940636Y-92549565D01*
X148010593Y-92561672D01*
X148062900Y-92609677D01*
X148074831Y-92635804D01*
X148080018Y-92651767D01*
X148080019Y-92651768D01*
X148168308Y-92825046D01*
X148282615Y-92982376D01*
X148420123Y-93119884D01*
X148523473Y-93194972D01*
X148577457Y-93234194D01*
X148750733Y-93322482D01*
X148935686Y-93382577D01*
X149127764Y-93413000D01*
X149127766Y-93413000D01*
X149322234Y-93413000D01*
X149322236Y-93413000D01*
X149514314Y-93382577D01*
X149699267Y-93322482D01*
X149872543Y-93234194D01*
X150029874Y-93119886D01*
X150167386Y-92982374D01*
X150281694Y-92825043D01*
X150369982Y-92651767D01*
X150375167Y-92635806D01*
X150415240Y-92577203D01*
X150480636Y-92549565D01*
X150550593Y-92561672D01*
X150602900Y-92609677D01*
X150614831Y-92635804D01*
X150620018Y-92651767D01*
X150620019Y-92651768D01*
X150708308Y-92825046D01*
X150822615Y-92982376D01*
X150960123Y-93119884D01*
X151063473Y-93194972D01*
X151117457Y-93234194D01*
X151290733Y-93322482D01*
X151475686Y-93382577D01*
X151667764Y-93413000D01*
X151667766Y-93413000D01*
X151862234Y-93413000D01*
X151862236Y-93413000D01*
X152054314Y-93382577D01*
X152239267Y-93322482D01*
X152412543Y-93234194D01*
X152569874Y-93119886D01*
X152707386Y-92982374D01*
X152821694Y-92825043D01*
X152909982Y-92651767D01*
X152915167Y-92635806D01*
X152955240Y-92577203D01*
X153020636Y-92549565D01*
X153090593Y-92561672D01*
X153142900Y-92609677D01*
X153154831Y-92635804D01*
X153160018Y-92651767D01*
X153160019Y-92651768D01*
X153248308Y-92825046D01*
X153362615Y-92982376D01*
X153500123Y-93119884D01*
X153603473Y-93194972D01*
X153657457Y-93234194D01*
X153830733Y-93322482D01*
X154015686Y-93382577D01*
X154207764Y-93413000D01*
X154207766Y-93413000D01*
X154402234Y-93413000D01*
X154402236Y-93413000D01*
X154594314Y-93382577D01*
X154779267Y-93322482D01*
X154952543Y-93234194D01*
X155109874Y-93119886D01*
X155247386Y-92982374D01*
X155361694Y-92825043D01*
X155449982Y-92651767D01*
X155455167Y-92635806D01*
X155495240Y-92577203D01*
X155560636Y-92549565D01*
X155630593Y-92561672D01*
X155682900Y-92609677D01*
X155694831Y-92635804D01*
X155700018Y-92651767D01*
X155700019Y-92651768D01*
X155788308Y-92825046D01*
X155902615Y-92982376D01*
X156040123Y-93119884D01*
X156143473Y-93194972D01*
X156197457Y-93234194D01*
X156370733Y-93322482D01*
X156555686Y-93382577D01*
X156747764Y-93413000D01*
X156747766Y-93413000D01*
X156942234Y-93413000D01*
X156942236Y-93413000D01*
X157134314Y-93382577D01*
X157319267Y-93322482D01*
X157492543Y-93234194D01*
X157649874Y-93119886D01*
X157787386Y-92982374D01*
X157901694Y-92825043D01*
X157989982Y-92651767D01*
X157995167Y-92635806D01*
X158035240Y-92577203D01*
X158100636Y-92549565D01*
X158170593Y-92561672D01*
X158222900Y-92609677D01*
X158234831Y-92635804D01*
X158240018Y-92651767D01*
X158240019Y-92651768D01*
X158328308Y-92825046D01*
X158442615Y-92982376D01*
X158580123Y-93119884D01*
X158683473Y-93194972D01*
X158737457Y-93234194D01*
X158910733Y-93322482D01*
X159095686Y-93382577D01*
X159287764Y-93413000D01*
X159287766Y-93413000D01*
X159482234Y-93413000D01*
X159482236Y-93413000D01*
X159674314Y-93382577D01*
X159859267Y-93322482D01*
X160032543Y-93234194D01*
X160189874Y-93119886D01*
X160327386Y-92982374D01*
X160441694Y-92825043D01*
X160529982Y-92651767D01*
X160535167Y-92635806D01*
X160575240Y-92577203D01*
X160640636Y-92549565D01*
X160710593Y-92561672D01*
X160762900Y-92609677D01*
X160774831Y-92635804D01*
X160780018Y-92651767D01*
X160780019Y-92651768D01*
X160868308Y-92825046D01*
X160982615Y-92982376D01*
X161120123Y-93119884D01*
X161223473Y-93194972D01*
X161277457Y-93234194D01*
X161450733Y-93322482D01*
X161635686Y-93382577D01*
X161827764Y-93413000D01*
X161827766Y-93413000D01*
X162022234Y-93413000D01*
X162022236Y-93413000D01*
X162214314Y-93382577D01*
X162399267Y-93322482D01*
X162572543Y-93234194D01*
X162729874Y-93119886D01*
X162867386Y-92982374D01*
X162981694Y-92825043D01*
X163069982Y-92651767D01*
X163130077Y-92466814D01*
X163160500Y-92274736D01*
X163160500Y-91280264D01*
X163130077Y-91088186D01*
X163069982Y-90903233D01*
X162981694Y-90729957D01*
X162867386Y-90572626D01*
X162867384Y-90572623D01*
X162729876Y-90435115D01*
X162572546Y-90320808D01*
X162572545Y-90320807D01*
X162572543Y-90320806D01*
X162399267Y-90232518D01*
X162337616Y-90212486D01*
X162214316Y-90172423D01*
X162118275Y-90157211D01*
X162022236Y-90142000D01*
X161827764Y-90142000D01*
X161750932Y-90154169D01*
X161635683Y-90172423D01*
X161450733Y-90232518D01*
X161450731Y-90232519D01*
X161277453Y-90320808D01*
X161120123Y-90435115D01*
X160982615Y-90572623D01*
X160868308Y-90729953D01*
X160780019Y-90903231D01*
X160780018Y-90903234D01*
X160774833Y-90919192D01*
X160734759Y-90977798D01*
X160669362Y-91005434D01*
X160599405Y-90993327D01*
X160547099Y-90945320D01*
X160535167Y-90919192D01*
X160529982Y-90903233D01*
X160441694Y-90729957D01*
X160327386Y-90572626D01*
X160327384Y-90572623D01*
X160189876Y-90435115D01*
X160032546Y-90320808D01*
X160032545Y-90320807D01*
X160032543Y-90320806D01*
X159859267Y-90232518D01*
X159797616Y-90212486D01*
X159674316Y-90172423D01*
X159578275Y-90157211D01*
X159482236Y-90142000D01*
X159287764Y-90142000D01*
X159210932Y-90154169D01*
X159095683Y-90172423D01*
X158910733Y-90232518D01*
X158910731Y-90232519D01*
X158737453Y-90320808D01*
X158580123Y-90435115D01*
X158442615Y-90572623D01*
X158328308Y-90729953D01*
X158240019Y-90903231D01*
X158240018Y-90903234D01*
X158234833Y-90919192D01*
X158194759Y-90977798D01*
X158129362Y-91005434D01*
X158059405Y-90993327D01*
X158007099Y-90945320D01*
X157995167Y-90919192D01*
X157989982Y-90903233D01*
X157901694Y-90729957D01*
X157787386Y-90572626D01*
X157787384Y-90572623D01*
X157649876Y-90435115D01*
X157492546Y-90320808D01*
X157492545Y-90320807D01*
X157492543Y-90320806D01*
X157319267Y-90232518D01*
X157257616Y-90212486D01*
X157134316Y-90172423D01*
X157038275Y-90157211D01*
X156942236Y-90142000D01*
X156747764Y-90142000D01*
X156670932Y-90154169D01*
X156555683Y-90172423D01*
X156370733Y-90232518D01*
X156370731Y-90232519D01*
X156197453Y-90320808D01*
X156040123Y-90435115D01*
X155902615Y-90572623D01*
X155788308Y-90729953D01*
X155700019Y-90903231D01*
X155700018Y-90903234D01*
X155694833Y-90919192D01*
X155654759Y-90977798D01*
X155589362Y-91005434D01*
X155519405Y-90993327D01*
X155467099Y-90945320D01*
X155455167Y-90919192D01*
X155449982Y-90903233D01*
X155361694Y-90729957D01*
X155247386Y-90572626D01*
X155247384Y-90572623D01*
X155109876Y-90435115D01*
X154952546Y-90320808D01*
X154952545Y-90320807D01*
X154952543Y-90320806D01*
X154779267Y-90232518D01*
X154717616Y-90212486D01*
X154594316Y-90172423D01*
X154498275Y-90157211D01*
X154402236Y-90142000D01*
X154207764Y-90142000D01*
X154130932Y-90154169D01*
X154015683Y-90172423D01*
X153830733Y-90232518D01*
X153830731Y-90232519D01*
X153657453Y-90320808D01*
X153500123Y-90435115D01*
X153362615Y-90572623D01*
X153248308Y-90729953D01*
X153160019Y-90903231D01*
X153160018Y-90903234D01*
X153154833Y-90919192D01*
X153114759Y-90977798D01*
X153049362Y-91005434D01*
X152979405Y-90993327D01*
X152927099Y-90945320D01*
X152915167Y-90919192D01*
X152909982Y-90903233D01*
X152821694Y-90729957D01*
X152707386Y-90572626D01*
X152707384Y-90572623D01*
X152569876Y-90435115D01*
X152412546Y-90320808D01*
X152412545Y-90320807D01*
X152412543Y-90320806D01*
X152239267Y-90232518D01*
X152177616Y-90212486D01*
X152054316Y-90172423D01*
X151958275Y-90157211D01*
X151862236Y-90142000D01*
X151667764Y-90142000D01*
X151590932Y-90154169D01*
X151475683Y-90172423D01*
X151290733Y-90232518D01*
X151290731Y-90232519D01*
X151117453Y-90320808D01*
X150960123Y-90435115D01*
X150822615Y-90572623D01*
X150708308Y-90729953D01*
X150620019Y-90903231D01*
X150620018Y-90903234D01*
X150614833Y-90919192D01*
X150574759Y-90977798D01*
X150509362Y-91005434D01*
X150439405Y-90993327D01*
X150387099Y-90945320D01*
X150375167Y-90919192D01*
X150369982Y-90903233D01*
X150281694Y-90729957D01*
X150167386Y-90572626D01*
X150167384Y-90572623D01*
X150029876Y-90435115D01*
X149872546Y-90320808D01*
X149872545Y-90320807D01*
X149872543Y-90320806D01*
X149699267Y-90232518D01*
X149637616Y-90212486D01*
X149514316Y-90172423D01*
X149418275Y-90157211D01*
X149322236Y-90142000D01*
X149127764Y-90142000D01*
X149050932Y-90154169D01*
X148935683Y-90172423D01*
X148750733Y-90232518D01*
X148750731Y-90232519D01*
X148577453Y-90320808D01*
X148420123Y-90435115D01*
X148282615Y-90572623D01*
X148168308Y-90729953D01*
X148080019Y-90903231D01*
X148080018Y-90903234D01*
X148074833Y-90919192D01*
X148034759Y-90977798D01*
X147969362Y-91005434D01*
X147899405Y-90993327D01*
X147847099Y-90945320D01*
X147835167Y-90919192D01*
X147829982Y-90903233D01*
X147741694Y-90729957D01*
X147627386Y-90572626D01*
X147627384Y-90572623D01*
X147489876Y-90435115D01*
X147332546Y-90320808D01*
X147332545Y-90320807D01*
X147332543Y-90320806D01*
X147159267Y-90232518D01*
X147097616Y-90212486D01*
X146974316Y-90172423D01*
X146878275Y-90157211D01*
X146782236Y-90142000D01*
X146587764Y-90142000D01*
X146510932Y-90154169D01*
X146395683Y-90172423D01*
X146210733Y-90232518D01*
X146210731Y-90232519D01*
X146037453Y-90320808D01*
X145880123Y-90435115D01*
X145742615Y-90572623D01*
X145628308Y-90729953D01*
X145540019Y-90903231D01*
X145540018Y-90903234D01*
X145534833Y-90919192D01*
X145494759Y-90977798D01*
X145429362Y-91005434D01*
X145359405Y-90993327D01*
X145307099Y-90945320D01*
X145295167Y-90919192D01*
X145289982Y-90903233D01*
X145201694Y-90729957D01*
X145087386Y-90572626D01*
X145087384Y-90572623D01*
X144949876Y-90435115D01*
X144792546Y-90320808D01*
X144792545Y-90320807D01*
X144792543Y-90320806D01*
X144619267Y-90232518D01*
X144557616Y-90212486D01*
X144434316Y-90172423D01*
X144338275Y-90157211D01*
X144242236Y-90142000D01*
X144047764Y-90142000D01*
X143970932Y-90154169D01*
X143855683Y-90172423D01*
X143670733Y-90232518D01*
X143670731Y-90232519D01*
X143497453Y-90320808D01*
X143340123Y-90435115D01*
X143202615Y-90572623D01*
X143088308Y-90729953D01*
X143000019Y-90903231D01*
X143000018Y-90903234D01*
X142994833Y-90919192D01*
X142954759Y-90977798D01*
X142889362Y-91005434D01*
X142819405Y-90993327D01*
X142767099Y-90945320D01*
X142755167Y-90919192D01*
X142749982Y-90903233D01*
X142661694Y-90729957D01*
X142547386Y-90572626D01*
X142547384Y-90572623D01*
X142409876Y-90435115D01*
X142252546Y-90320808D01*
X142252545Y-90320807D01*
X142252543Y-90320806D01*
X142079267Y-90232518D01*
X142017616Y-90212486D01*
X141894316Y-90172423D01*
X141798275Y-90157211D01*
X141702236Y-90142000D01*
X141507764Y-90142000D01*
X141430932Y-90154169D01*
X141315683Y-90172423D01*
X141130733Y-90232518D01*
X141130731Y-90232519D01*
X140957453Y-90320808D01*
X140800123Y-90435115D01*
X140662615Y-90572623D01*
X140548308Y-90729953D01*
X140460019Y-90903231D01*
X140460018Y-90903234D01*
X140454833Y-90919192D01*
X140414759Y-90977798D01*
X140349362Y-91005434D01*
X140279405Y-90993327D01*
X140227099Y-90945320D01*
X140215167Y-90919192D01*
X140209982Y-90903233D01*
X140121694Y-90729957D01*
X140007386Y-90572626D01*
X140007384Y-90572623D01*
X139869876Y-90435115D01*
X139712546Y-90320808D01*
X139712545Y-90320807D01*
X139712543Y-90320806D01*
X139539267Y-90232518D01*
X139477616Y-90212486D01*
X139354316Y-90172423D01*
X139258275Y-90157211D01*
X139162236Y-90142000D01*
X138967764Y-90142000D01*
X138890932Y-90154169D01*
X138775683Y-90172423D01*
X138590733Y-90232518D01*
X138590731Y-90232519D01*
X138417453Y-90320808D01*
X138260123Y-90435115D01*
X138122615Y-90572623D01*
X138008308Y-90729953D01*
X137920019Y-90903231D01*
X137920018Y-90903234D01*
X137914833Y-90919192D01*
X137874759Y-90977798D01*
X137809362Y-91005434D01*
X137739405Y-90993327D01*
X137687099Y-90945320D01*
X137675167Y-90919192D01*
X137669982Y-90903233D01*
X137581694Y-90729957D01*
X137467386Y-90572626D01*
X137467384Y-90572623D01*
X137329876Y-90435115D01*
X137172546Y-90320808D01*
X137172545Y-90320807D01*
X137172543Y-90320806D01*
X136999267Y-90232518D01*
X136937616Y-90212486D01*
X136814316Y-90172423D01*
X136718275Y-90157211D01*
X136622236Y-90142000D01*
X136427764Y-90142000D01*
X136350932Y-90154169D01*
X136235683Y-90172423D01*
X136050733Y-90232518D01*
X136050731Y-90232519D01*
X135877453Y-90320808D01*
X135720123Y-90435115D01*
X135582615Y-90572623D01*
X135468308Y-90729953D01*
X135380019Y-90903231D01*
X135380018Y-90903234D01*
X135374833Y-90919192D01*
X135334759Y-90977798D01*
X135269362Y-91005434D01*
X135199405Y-90993327D01*
X135147099Y-90945320D01*
X135135167Y-90919192D01*
X135129982Y-90903233D01*
X135041694Y-90729957D01*
X134927386Y-90572626D01*
X134927384Y-90572623D01*
X134789876Y-90435115D01*
X134632546Y-90320808D01*
X134632545Y-90320807D01*
X134632543Y-90320806D01*
X134459267Y-90232518D01*
X134397616Y-90212486D01*
X134274316Y-90172423D01*
X134178275Y-90157211D01*
X134082236Y-90142000D01*
X133887764Y-90142000D01*
X133810932Y-90154169D01*
X133695683Y-90172423D01*
X133510733Y-90232518D01*
X133510731Y-90232519D01*
X133337453Y-90320808D01*
X133180123Y-90435115D01*
X133042615Y-90572623D01*
X132928308Y-90729953D01*
X132840019Y-90903231D01*
X132840018Y-90903234D01*
X132834833Y-90919192D01*
X132794759Y-90977798D01*
X132729362Y-91005434D01*
X132659405Y-90993327D01*
X132607099Y-90945320D01*
X132595167Y-90919192D01*
X132589982Y-90903233D01*
X132501694Y-90729957D01*
X132387386Y-90572626D01*
X132387384Y-90572623D01*
X132249876Y-90435115D01*
X132092546Y-90320808D01*
X132092545Y-90320807D01*
X132092543Y-90320806D01*
X131919267Y-90232518D01*
X131857616Y-90212486D01*
X131734316Y-90172423D01*
X131638275Y-90157211D01*
X131542236Y-90142000D01*
X131347764Y-90142000D01*
X131270932Y-90154169D01*
X131155683Y-90172423D01*
X130970733Y-90232518D01*
X130970731Y-90232519D01*
X130797453Y-90320808D01*
X130640123Y-90435115D01*
X130502615Y-90572623D01*
X130388308Y-90729953D01*
X130300019Y-90903231D01*
X130300018Y-90903234D01*
X130294833Y-90919192D01*
X130254759Y-90977798D01*
X130189362Y-91005434D01*
X130119405Y-90993327D01*
X130067099Y-90945320D01*
X130055167Y-90919192D01*
X130049982Y-90903233D01*
X129961694Y-90729957D01*
X129847386Y-90572626D01*
X129847384Y-90572623D01*
X129709876Y-90435115D01*
X129552546Y-90320808D01*
X129552545Y-90320807D01*
X129552543Y-90320806D01*
X129379267Y-90232518D01*
X129317616Y-90212486D01*
X129194316Y-90172423D01*
X129098275Y-90157211D01*
X129002236Y-90142000D01*
X128807764Y-90142000D01*
X128730932Y-90154169D01*
X128615683Y-90172423D01*
X128430733Y-90232518D01*
X128430731Y-90232519D01*
X128257453Y-90320808D01*
X128100123Y-90435115D01*
X127962615Y-90572623D01*
X127848308Y-90729953D01*
X127760019Y-90903231D01*
X127760018Y-90903234D01*
X127754833Y-90919192D01*
X127714759Y-90977798D01*
X127649362Y-91005434D01*
X127579405Y-90993327D01*
X127527099Y-90945320D01*
X127515167Y-90919192D01*
X127509982Y-90903233D01*
X127421694Y-90729957D01*
X127307386Y-90572626D01*
X127307384Y-90572623D01*
X127169876Y-90435115D01*
X127012546Y-90320808D01*
X127012545Y-90320807D01*
X127012543Y-90320806D01*
X126839267Y-90232518D01*
X126777616Y-90212486D01*
X126654316Y-90172423D01*
X126558275Y-90157211D01*
X126462236Y-90142000D01*
X126267764Y-90142000D01*
X126190932Y-90154169D01*
X126075683Y-90172423D01*
X125890733Y-90232518D01*
X125890731Y-90232519D01*
X125717453Y-90320808D01*
X125560123Y-90435115D01*
X125422615Y-90572623D01*
X125308308Y-90729953D01*
X125220019Y-90903231D01*
X125220018Y-90903234D01*
X125214833Y-90919192D01*
X125174759Y-90977798D01*
X125109362Y-91005434D01*
X125039405Y-90993327D01*
X124987099Y-90945320D01*
X124975167Y-90919192D01*
X124969982Y-90903233D01*
X124881694Y-90729957D01*
X124767386Y-90572626D01*
X124767384Y-90572623D01*
X124629876Y-90435115D01*
X124472546Y-90320808D01*
X124472545Y-90320807D01*
X124472543Y-90320806D01*
X124299267Y-90232518D01*
X124237616Y-90212486D01*
X124114316Y-90172423D01*
X124018275Y-90157211D01*
X123922236Y-90142000D01*
X123727764Y-90142000D01*
X123650932Y-90154169D01*
X123535683Y-90172423D01*
X123350733Y-90232518D01*
X123350731Y-90232519D01*
X123177453Y-90320808D01*
X123020123Y-90435115D01*
X122882615Y-90572623D01*
X122768308Y-90729953D01*
X122680019Y-90903231D01*
X122680018Y-90903234D01*
X122674833Y-90919192D01*
X122634759Y-90977798D01*
X122569362Y-91005434D01*
X122499405Y-90993327D01*
X122447099Y-90945320D01*
X122435167Y-90919192D01*
X122429982Y-90903233D01*
X122341694Y-90729957D01*
X122227386Y-90572626D01*
X122227384Y-90572623D01*
X122089876Y-90435115D01*
X121932546Y-90320808D01*
X121932545Y-90320807D01*
X121932543Y-90320806D01*
X121759267Y-90232518D01*
X121697616Y-90212486D01*
X121574316Y-90172423D01*
X121478275Y-90157211D01*
X121382236Y-90142000D01*
X121187764Y-90142000D01*
X121110932Y-90154169D01*
X120995683Y-90172423D01*
X120810733Y-90232518D01*
X120810731Y-90232519D01*
X120637453Y-90320808D01*
X120480123Y-90435115D01*
X120342615Y-90572623D01*
X120228308Y-90729953D01*
X120140019Y-90903231D01*
X120140018Y-90903234D01*
X120134833Y-90919192D01*
X120094759Y-90977798D01*
X120029362Y-91005434D01*
X119959405Y-90993327D01*
X119907099Y-90945320D01*
X119895167Y-90919192D01*
X119889982Y-90903233D01*
X119801694Y-90729957D01*
X119687386Y-90572626D01*
X119687384Y-90572623D01*
X119549876Y-90435115D01*
X119392546Y-90320808D01*
X119392545Y-90320807D01*
X119392543Y-90320806D01*
X119219267Y-90232518D01*
X119157616Y-90212486D01*
X119034316Y-90172423D01*
X118938275Y-90157211D01*
X118842236Y-90142000D01*
X118647764Y-90142000D01*
X118570932Y-90154169D01*
X118455683Y-90172423D01*
X118270733Y-90232518D01*
X118270731Y-90232519D01*
X118097453Y-90320808D01*
X117940123Y-90435115D01*
X117802615Y-90572623D01*
X117688308Y-90729953D01*
X117600019Y-90903231D01*
X117600018Y-90903234D01*
X117594833Y-90919192D01*
X117554759Y-90977798D01*
X117489362Y-91005434D01*
X117419405Y-90993327D01*
X117367099Y-90945320D01*
X117355167Y-90919192D01*
X117349982Y-90903233D01*
X117261694Y-90729957D01*
X117147386Y-90572626D01*
X117147384Y-90572623D01*
X117009876Y-90435115D01*
X116852546Y-90320808D01*
X116852545Y-90320807D01*
X116852543Y-90320806D01*
X116679267Y-90232518D01*
X116617616Y-90212486D01*
X116494316Y-90172423D01*
X116398275Y-90157211D01*
X116302236Y-90142000D01*
X116107764Y-90142000D01*
X116030932Y-90154169D01*
X115915683Y-90172423D01*
X115730733Y-90232518D01*
X115730731Y-90232519D01*
X115557453Y-90320808D01*
X115400123Y-90435115D01*
X115262615Y-90572623D01*
X115148308Y-90729953D01*
X115060019Y-90903231D01*
X115060018Y-90903234D01*
X115054833Y-90919192D01*
X115014759Y-90977798D01*
X114949362Y-91005434D01*
X114879405Y-90993327D01*
X114827099Y-90945320D01*
X114815167Y-90919192D01*
X114809982Y-90903233D01*
X114721694Y-90729957D01*
X114607386Y-90572626D01*
X114607384Y-90572623D01*
X114469876Y-90435115D01*
X114312546Y-90320808D01*
X114312545Y-90320807D01*
X114312543Y-90320806D01*
X114139267Y-90232518D01*
X114077616Y-90212486D01*
X113954316Y-90172423D01*
X113858275Y-90157211D01*
X113762236Y-90142000D01*
X113567764Y-90142000D01*
X113490932Y-90154169D01*
X113375683Y-90172423D01*
X113190733Y-90232518D01*
X113190731Y-90232519D01*
X113017453Y-90320808D01*
X112860123Y-90435115D01*
X112722615Y-90572623D01*
X112608308Y-90729953D01*
X112520019Y-90903231D01*
X112520018Y-90903234D01*
X112514833Y-90919192D01*
X112474759Y-90977798D01*
X112409362Y-91005434D01*
X112339405Y-90993327D01*
X112287099Y-90945320D01*
X112275167Y-90919192D01*
X112269982Y-90903233D01*
X112181694Y-90729957D01*
X112067386Y-90572626D01*
X112067384Y-90572623D01*
X111929876Y-90435115D01*
X111772546Y-90320808D01*
X111772545Y-90320807D01*
X111772543Y-90320806D01*
X111599267Y-90232518D01*
X111537616Y-90212486D01*
X111414316Y-90172423D01*
X111318275Y-90157211D01*
X111222236Y-90142000D01*
X111027764Y-90142000D01*
X110950932Y-90154169D01*
X110835683Y-90172423D01*
X110650733Y-90232518D01*
X110650731Y-90232519D01*
X110477453Y-90320808D01*
X110320123Y-90435115D01*
X110182615Y-90572623D01*
X110068308Y-90729953D01*
X109980019Y-90903231D01*
X109980018Y-90903234D01*
X109974833Y-90919192D01*
X109934759Y-90977798D01*
X109869362Y-91005434D01*
X109799405Y-90993327D01*
X109747099Y-90945320D01*
X109735167Y-90919192D01*
X109729982Y-90903233D01*
X109641694Y-90729957D01*
X109527386Y-90572626D01*
X109527384Y-90572623D01*
X109389876Y-90435115D01*
X109232546Y-90320808D01*
X109232545Y-90320807D01*
X109232543Y-90320806D01*
X109059267Y-90232518D01*
X108997616Y-90212486D01*
X108874316Y-90172423D01*
X108778275Y-90157211D01*
X108682236Y-90142000D01*
X108487764Y-90142000D01*
X108410932Y-90154169D01*
X108295683Y-90172423D01*
X108110733Y-90232518D01*
X108110731Y-90232519D01*
X107937453Y-90320808D01*
X107780123Y-90435115D01*
X107642615Y-90572623D01*
X107528308Y-90729953D01*
X107440019Y-90903231D01*
X107440018Y-90903233D01*
X107379922Y-91088187D01*
X107374903Y-91119876D01*
X107344490Y-91184028D01*
X107284221Y-91221554D01*
X107213232Y-91220539D01*
X107154061Y-91181306D01*
X107127318Y-91122743D01*
X107126871Y-91122851D01*
X107126321Y-91120560D01*
X107126005Y-91119868D01*
X107125714Y-91118035D01*
X107071825Y-90952180D01*
X107071822Y-90952174D01*
X106992643Y-90796778D01*
X106890132Y-90655684D01*
X106890130Y-90655681D01*
X106766818Y-90532369D01*
X106766815Y-90532367D01*
X106625721Y-90429856D01*
X106470325Y-90350677D01*
X106470319Y-90350674D01*
X106304461Y-90296784D01*
X106304449Y-90296781D01*
X106299000Y-90295917D01*
X106299000Y-91465814D01*
X106290606Y-91457420D01*
X106199394Y-91404759D01*
X106097661Y-91377500D01*
X105992339Y-91377500D01*
X105890606Y-91404759D01*
X105799394Y-91457420D01*
X105791000Y-91465814D01*
X105791000Y-90295917D01*
X105785550Y-90296781D01*
X105785538Y-90296784D01*
X105619680Y-90350674D01*
X105619674Y-90350677D01*
X105464278Y-90429856D01*
X105323184Y-90532367D01*
X105323181Y-90532369D01*
X105199869Y-90655681D01*
X105199867Y-90655684D01*
X105097356Y-90796778D01*
X105018177Y-90952174D01*
X105018174Y-90952180D01*
X104964284Y-91118039D01*
X104964283Y-91118042D01*
X104963991Y-91119886D01*
X104963686Y-91120527D01*
X104963129Y-91122851D01*
X104962640Y-91122733D01*
X104933573Y-91184036D01*
X104873301Y-91221557D01*
X104802312Y-91220536D01*
X104743143Y-91181298D01*
X104715096Y-91119874D01*
X104710077Y-91088186D01*
X104649982Y-90903233D01*
X104561694Y-90729957D01*
X104447386Y-90572626D01*
X104447384Y-90572623D01*
X104309876Y-90435115D01*
X104152546Y-90320808D01*
X104152545Y-90320807D01*
X104152543Y-90320806D01*
X103979267Y-90232518D01*
X103917616Y-90212486D01*
X103794316Y-90172423D01*
X103698275Y-90157211D01*
X103602236Y-90142000D01*
X103407764Y-90142000D01*
X103330932Y-90154169D01*
X103215683Y-90172423D01*
X103030733Y-90232518D01*
X103030731Y-90232519D01*
X102857453Y-90320808D01*
X102700123Y-90435115D01*
X102562615Y-90572623D01*
X102448308Y-90729953D01*
X102360019Y-90903231D01*
X102360018Y-90903233D01*
X102299923Y-91088183D01*
X102294432Y-91122851D01*
X102269500Y-91280264D01*
X95275500Y-91280264D01*
X95275500Y-62542500D01*
X100109409Y-62542500D01*
X100129740Y-62787850D01*
X100190171Y-63026490D01*
X100190174Y-63026497D01*
X100289063Y-63251942D01*
X100289064Y-63251943D01*
X100423714Y-63458040D01*
X100590450Y-63639163D01*
X100598391Y-63645343D01*
X100639862Y-63702967D01*
X100647000Y-63744775D01*
X100647000Y-66866697D01*
X100639279Y-66905522D01*
X100640491Y-66905890D01*
X100579481Y-67107013D01*
X100559490Y-67309996D01*
X100559490Y-67310003D01*
X100579481Y-67512986D01*
X100579482Y-67512992D01*
X100579483Y-67512993D01*
X100638694Y-67708186D01*
X100734848Y-67888076D01*
X100864248Y-68045752D01*
X101021924Y-68175152D01*
X101201814Y-68271306D01*
X101397007Y-68330517D01*
X101397011Y-68330517D01*
X101397013Y-68330518D01*
X101599997Y-68350510D01*
X101600000Y-68350510D01*
X101600003Y-68350510D01*
X101802986Y-68330518D01*
X101802987Y-68330517D01*
X101802993Y-68330517D01*
X101998186Y-68271306D01*
X102089961Y-68222250D01*
X102159465Y-68207779D01*
X102225762Y-68233182D01*
X102267800Y-68290395D01*
X102273805Y-68353083D01*
X102269500Y-68380264D01*
X102269500Y-69374733D01*
X102299923Y-69566816D01*
X102326810Y-69649565D01*
X102360018Y-69751767D01*
X102360019Y-69751768D01*
X102448308Y-69925046D01*
X102562615Y-70082376D01*
X102700123Y-70219884D01*
X102700126Y-70219886D01*
X102857457Y-70334194D01*
X103030733Y-70422482D01*
X103215686Y-70482577D01*
X103407764Y-70513000D01*
X103407766Y-70513000D01*
X103602234Y-70513000D01*
X103602236Y-70513000D01*
X103794314Y-70482577D01*
X103979267Y-70422482D01*
X104152543Y-70334194D01*
X104309874Y-70219886D01*
X104447386Y-70082374D01*
X104561694Y-69925043D01*
X104649982Y-69751767D01*
X104655167Y-69735806D01*
X104695240Y-69677203D01*
X104760636Y-69649565D01*
X104830593Y-69661672D01*
X104882900Y-69709677D01*
X104894831Y-69735804D01*
X104900018Y-69751767D01*
X104900019Y-69751768D01*
X104988308Y-69925046D01*
X105102615Y-70082376D01*
X105240123Y-70219884D01*
X105240126Y-70219886D01*
X105397457Y-70334194D01*
X105570733Y-70422482D01*
X105755686Y-70482577D01*
X105947764Y-70513000D01*
X105947766Y-70513000D01*
X106142234Y-70513000D01*
X106142236Y-70513000D01*
X106334314Y-70482577D01*
X106519267Y-70422482D01*
X106692543Y-70334194D01*
X106849874Y-70219886D01*
X106987386Y-70082374D01*
X107101694Y-69925043D01*
X107189982Y-69751767D01*
X107195167Y-69735806D01*
X107235240Y-69677203D01*
X107300636Y-69649565D01*
X107370593Y-69661672D01*
X107422900Y-69709677D01*
X107434831Y-69735804D01*
X107440018Y-69751767D01*
X107440019Y-69751768D01*
X107528308Y-69925046D01*
X107642615Y-70082376D01*
X107780123Y-70219884D01*
X107780126Y-70219886D01*
X107937457Y-70334194D01*
X108110733Y-70422482D01*
X108295686Y-70482577D01*
X108487764Y-70513000D01*
X108487766Y-70513000D01*
X108682234Y-70513000D01*
X108682236Y-70513000D01*
X108874314Y-70482577D01*
X109059267Y-70422482D01*
X109232543Y-70334194D01*
X109389874Y-70219886D01*
X109527386Y-70082374D01*
X109641694Y-69925043D01*
X109729982Y-69751767D01*
X109735167Y-69735806D01*
X109775240Y-69677203D01*
X109840636Y-69649565D01*
X109910593Y-69661672D01*
X109962900Y-69709677D01*
X109974831Y-69735804D01*
X109980018Y-69751767D01*
X109980019Y-69751768D01*
X110068308Y-69925046D01*
X110182615Y-70082376D01*
X110320123Y-70219884D01*
X110320126Y-70219886D01*
X110477457Y-70334194D01*
X110650733Y-70422482D01*
X110835686Y-70482577D01*
X111027764Y-70513000D01*
X111027766Y-70513000D01*
X111222234Y-70513000D01*
X111222236Y-70513000D01*
X111414314Y-70482577D01*
X111599267Y-70422482D01*
X111772543Y-70334194D01*
X111929874Y-70219886D01*
X112067386Y-70082374D01*
X112181694Y-69925043D01*
X112269982Y-69751767D01*
X112275167Y-69735806D01*
X112315240Y-69677203D01*
X112380636Y-69649565D01*
X112450593Y-69661672D01*
X112502900Y-69709677D01*
X112514831Y-69735804D01*
X112520018Y-69751767D01*
X112520019Y-69751768D01*
X112608308Y-69925046D01*
X112722615Y-70082376D01*
X112860123Y-70219884D01*
X112860126Y-70219886D01*
X113017457Y-70334194D01*
X113190733Y-70422482D01*
X113375686Y-70482577D01*
X113567764Y-70513000D01*
X113567766Y-70513000D01*
X113762234Y-70513000D01*
X113762236Y-70513000D01*
X113954314Y-70482577D01*
X114139267Y-70422482D01*
X114312543Y-70334194D01*
X114469874Y-70219886D01*
X114607386Y-70082374D01*
X114721694Y-69925043D01*
X114809982Y-69751767D01*
X114815167Y-69735806D01*
X114855240Y-69677203D01*
X114920636Y-69649565D01*
X114990593Y-69661672D01*
X115042900Y-69709677D01*
X115054831Y-69735804D01*
X115060018Y-69751767D01*
X115060019Y-69751768D01*
X115148308Y-69925046D01*
X115262615Y-70082376D01*
X115400123Y-70219884D01*
X115400126Y-70219886D01*
X115557457Y-70334194D01*
X115730733Y-70422482D01*
X115915686Y-70482577D01*
X116107764Y-70513000D01*
X116107766Y-70513000D01*
X116302234Y-70513000D01*
X116302236Y-70513000D01*
X116494314Y-70482577D01*
X116679267Y-70422482D01*
X116852543Y-70334194D01*
X117009874Y-70219886D01*
X117147386Y-70082374D01*
X117261694Y-69925043D01*
X117349982Y-69751767D01*
X117355167Y-69735806D01*
X117395240Y-69677203D01*
X117460636Y-69649565D01*
X117530593Y-69661672D01*
X117582900Y-69709677D01*
X117594831Y-69735804D01*
X117600018Y-69751767D01*
X117600019Y-69751768D01*
X117688308Y-69925046D01*
X117802615Y-70082376D01*
X117940123Y-70219884D01*
X117940126Y-70219886D01*
X118097457Y-70334194D01*
X118270733Y-70422482D01*
X118455686Y-70482577D01*
X118647764Y-70513000D01*
X118647766Y-70513000D01*
X118842234Y-70513000D01*
X118842236Y-70513000D01*
X119034314Y-70482577D01*
X119219267Y-70422482D01*
X119392543Y-70334194D01*
X119549874Y-70219886D01*
X119687386Y-70082374D01*
X119801694Y-69925043D01*
X119889982Y-69751767D01*
X119895167Y-69735806D01*
X119935240Y-69677203D01*
X120000636Y-69649565D01*
X120070593Y-69661672D01*
X120122900Y-69709677D01*
X120134831Y-69735804D01*
X120140018Y-69751767D01*
X120140019Y-69751768D01*
X120228308Y-69925046D01*
X120342615Y-70082376D01*
X120480123Y-70219884D01*
X120480126Y-70219886D01*
X120637457Y-70334194D01*
X120810733Y-70422482D01*
X120995686Y-70482577D01*
X121187764Y-70513000D01*
X121187766Y-70513000D01*
X121382234Y-70513000D01*
X121382236Y-70513000D01*
X121574314Y-70482577D01*
X121759267Y-70422482D01*
X121932543Y-70334194D01*
X122089874Y-70219886D01*
X122227386Y-70082374D01*
X122341694Y-69925043D01*
X122429982Y-69751767D01*
X122435167Y-69735806D01*
X122475240Y-69677203D01*
X122540636Y-69649565D01*
X122610593Y-69661672D01*
X122662900Y-69709677D01*
X122674831Y-69735804D01*
X122680018Y-69751767D01*
X122680019Y-69751768D01*
X122768308Y-69925046D01*
X122882615Y-70082376D01*
X123020123Y-70219884D01*
X123020126Y-70219886D01*
X123177457Y-70334194D01*
X123350733Y-70422482D01*
X123535686Y-70482577D01*
X123727764Y-70513000D01*
X123727766Y-70513000D01*
X123922234Y-70513000D01*
X123922236Y-70513000D01*
X124114314Y-70482577D01*
X124299267Y-70422482D01*
X124472543Y-70334194D01*
X124629874Y-70219886D01*
X124767386Y-70082374D01*
X124881694Y-69925043D01*
X124969982Y-69751767D01*
X124975167Y-69735806D01*
X125015240Y-69677203D01*
X125080636Y-69649565D01*
X125150593Y-69661672D01*
X125202900Y-69709677D01*
X125214831Y-69735804D01*
X125220018Y-69751767D01*
X125220019Y-69751768D01*
X125308308Y-69925046D01*
X125422615Y-70082376D01*
X125560123Y-70219884D01*
X125560126Y-70219886D01*
X125717457Y-70334194D01*
X125890733Y-70422482D01*
X126075686Y-70482577D01*
X126267764Y-70513000D01*
X126267766Y-70513000D01*
X126462234Y-70513000D01*
X126462236Y-70513000D01*
X126654314Y-70482577D01*
X126839267Y-70422482D01*
X127012543Y-70334194D01*
X127169874Y-70219886D01*
X127307386Y-70082374D01*
X127421694Y-69925043D01*
X127509982Y-69751767D01*
X127515167Y-69735806D01*
X127555240Y-69677203D01*
X127620636Y-69649565D01*
X127690593Y-69661672D01*
X127742900Y-69709677D01*
X127754831Y-69735804D01*
X127760018Y-69751767D01*
X127760019Y-69751768D01*
X127848308Y-69925046D01*
X127962615Y-70082376D01*
X128100123Y-70219884D01*
X128100126Y-70219886D01*
X128257457Y-70334194D01*
X128430733Y-70422482D01*
X128615686Y-70482577D01*
X128807764Y-70513000D01*
X128807766Y-70513000D01*
X129002234Y-70513000D01*
X129002236Y-70513000D01*
X129194314Y-70482577D01*
X129379267Y-70422482D01*
X129552543Y-70334194D01*
X129709874Y-70219886D01*
X129847386Y-70082374D01*
X129961694Y-69925043D01*
X130049982Y-69751767D01*
X130055167Y-69735806D01*
X130095240Y-69677203D01*
X130160636Y-69649565D01*
X130230593Y-69661672D01*
X130282900Y-69709677D01*
X130294831Y-69735804D01*
X130300018Y-69751767D01*
X130300019Y-69751768D01*
X130388308Y-69925046D01*
X130502615Y-70082376D01*
X130640123Y-70219884D01*
X130640126Y-70219886D01*
X130797457Y-70334194D01*
X130970733Y-70422482D01*
X131155686Y-70482577D01*
X131347764Y-70513000D01*
X131347766Y-70513000D01*
X131542234Y-70513000D01*
X131542236Y-70513000D01*
X131734314Y-70482577D01*
X131919267Y-70422482D01*
X132092543Y-70334194D01*
X132249874Y-70219886D01*
X132387386Y-70082374D01*
X132501694Y-69925043D01*
X132589982Y-69751767D01*
X132595167Y-69735806D01*
X132635240Y-69677203D01*
X132700636Y-69649565D01*
X132770593Y-69661672D01*
X132822900Y-69709677D01*
X132834831Y-69735804D01*
X132840018Y-69751767D01*
X132840019Y-69751768D01*
X132928308Y-69925046D01*
X133042615Y-70082376D01*
X133180123Y-70219884D01*
X133180126Y-70219886D01*
X133337457Y-70334194D01*
X133510733Y-70422482D01*
X133695686Y-70482577D01*
X133887764Y-70513000D01*
X133887766Y-70513000D01*
X134082234Y-70513000D01*
X134082236Y-70513000D01*
X134274314Y-70482577D01*
X134459267Y-70422482D01*
X134632543Y-70334194D01*
X134789874Y-70219886D01*
X134927386Y-70082374D01*
X135041694Y-69925043D01*
X135129982Y-69751767D01*
X135135167Y-69735806D01*
X135175240Y-69677203D01*
X135240636Y-69649565D01*
X135310593Y-69661672D01*
X135362900Y-69709677D01*
X135374831Y-69735804D01*
X135380018Y-69751767D01*
X135380019Y-69751768D01*
X135468308Y-69925046D01*
X135582615Y-70082376D01*
X135720123Y-70219884D01*
X135720126Y-70219886D01*
X135877457Y-70334194D01*
X136050733Y-70422482D01*
X136235686Y-70482577D01*
X136427764Y-70513000D01*
X136427766Y-70513000D01*
X136622234Y-70513000D01*
X136622236Y-70513000D01*
X136814314Y-70482577D01*
X136999267Y-70422482D01*
X137172543Y-70334194D01*
X137329874Y-70219886D01*
X137467386Y-70082374D01*
X137581694Y-69925043D01*
X137669982Y-69751767D01*
X137675167Y-69735806D01*
X137715240Y-69677203D01*
X137780636Y-69649565D01*
X137850593Y-69661672D01*
X137902900Y-69709677D01*
X137914831Y-69735804D01*
X137920018Y-69751767D01*
X137920019Y-69751768D01*
X138008308Y-69925046D01*
X138122615Y-70082376D01*
X138260123Y-70219884D01*
X138260126Y-70219886D01*
X138417457Y-70334194D01*
X138590733Y-70422482D01*
X138775686Y-70482577D01*
X138967764Y-70513000D01*
X138967766Y-70513000D01*
X139162234Y-70513000D01*
X139162236Y-70513000D01*
X139354314Y-70482577D01*
X139539267Y-70422482D01*
X139712543Y-70334194D01*
X139869874Y-70219886D01*
X140007386Y-70082374D01*
X140121694Y-69925043D01*
X140209982Y-69751767D01*
X140215167Y-69735806D01*
X140255240Y-69677203D01*
X140320636Y-69649565D01*
X140390593Y-69661672D01*
X140442900Y-69709677D01*
X140454831Y-69735804D01*
X140460018Y-69751767D01*
X140460019Y-69751768D01*
X140548308Y-69925046D01*
X140662615Y-70082376D01*
X140800123Y-70219884D01*
X140800126Y-70219886D01*
X140957457Y-70334194D01*
X141130733Y-70422482D01*
X141315686Y-70482577D01*
X141507764Y-70513000D01*
X141507766Y-70513000D01*
X141702234Y-70513000D01*
X141702236Y-70513000D01*
X141894314Y-70482577D01*
X142079267Y-70422482D01*
X142252543Y-70334194D01*
X142409874Y-70219886D01*
X142547386Y-70082374D01*
X142661694Y-69925043D01*
X142749982Y-69751767D01*
X142755167Y-69735806D01*
X142795240Y-69677203D01*
X142860636Y-69649565D01*
X142930593Y-69661672D01*
X142982900Y-69709677D01*
X142994831Y-69735804D01*
X143000018Y-69751767D01*
X143000019Y-69751768D01*
X143088308Y-69925046D01*
X143202615Y-70082376D01*
X143340123Y-70219884D01*
X143340126Y-70219886D01*
X143497457Y-70334194D01*
X143670733Y-70422482D01*
X143855686Y-70482577D01*
X144047764Y-70513000D01*
X144047766Y-70513000D01*
X144242234Y-70513000D01*
X144242236Y-70513000D01*
X144434314Y-70482577D01*
X144619267Y-70422482D01*
X144792543Y-70334194D01*
X144949874Y-70219886D01*
X145087386Y-70082374D01*
X145201694Y-69925043D01*
X145289982Y-69751767D01*
X145295167Y-69735806D01*
X145335240Y-69677203D01*
X145400636Y-69649565D01*
X145470593Y-69661672D01*
X145522900Y-69709677D01*
X145534831Y-69735804D01*
X145540018Y-69751767D01*
X145540019Y-69751768D01*
X145628308Y-69925046D01*
X145742615Y-70082376D01*
X145880123Y-70219884D01*
X145880126Y-70219886D01*
X146037457Y-70334194D01*
X146210733Y-70422482D01*
X146395686Y-70482577D01*
X146587764Y-70513000D01*
X146587766Y-70513000D01*
X146782234Y-70513000D01*
X146782236Y-70513000D01*
X146974314Y-70482577D01*
X147159267Y-70422482D01*
X147332543Y-70334194D01*
X147489874Y-70219886D01*
X147627386Y-70082374D01*
X147741694Y-69925043D01*
X147829982Y-69751767D01*
X147835167Y-69735806D01*
X147875240Y-69677203D01*
X147940636Y-69649565D01*
X148010593Y-69661672D01*
X148062900Y-69709677D01*
X148074831Y-69735804D01*
X148080018Y-69751767D01*
X148080019Y-69751768D01*
X148168308Y-69925046D01*
X148282615Y-70082376D01*
X148420123Y-70219884D01*
X148420126Y-70219886D01*
X148577457Y-70334194D01*
X148750733Y-70422482D01*
X148935686Y-70482577D01*
X149127764Y-70513000D01*
X149127766Y-70513000D01*
X149322234Y-70513000D01*
X149322236Y-70513000D01*
X149514314Y-70482577D01*
X149699267Y-70422482D01*
X149872543Y-70334194D01*
X150029874Y-70219886D01*
X150167386Y-70082374D01*
X150281694Y-69925043D01*
X150369982Y-69751767D01*
X150375167Y-69735806D01*
X150415240Y-69677203D01*
X150480636Y-69649565D01*
X150550593Y-69661672D01*
X150602900Y-69709677D01*
X150614831Y-69735804D01*
X150620018Y-69751767D01*
X150620019Y-69751768D01*
X150708308Y-69925046D01*
X150822615Y-70082376D01*
X150960123Y-70219884D01*
X150960126Y-70219886D01*
X151117457Y-70334194D01*
X151290733Y-70422482D01*
X151475686Y-70482577D01*
X151667764Y-70513000D01*
X151667766Y-70513000D01*
X151862234Y-70513000D01*
X151862236Y-70513000D01*
X152054314Y-70482577D01*
X152239267Y-70422482D01*
X152412543Y-70334194D01*
X152569874Y-70219886D01*
X152707386Y-70082374D01*
X152821694Y-69925043D01*
X152909982Y-69751767D01*
X152915167Y-69735806D01*
X152955240Y-69677203D01*
X153020636Y-69649565D01*
X153090593Y-69661672D01*
X153142900Y-69709677D01*
X153154831Y-69735804D01*
X153160018Y-69751767D01*
X153160019Y-69751768D01*
X153248308Y-69925046D01*
X153362615Y-70082376D01*
X153500123Y-70219884D01*
X153500126Y-70219886D01*
X153657457Y-70334194D01*
X153830733Y-70422482D01*
X154015686Y-70482577D01*
X154207764Y-70513000D01*
X154207766Y-70513000D01*
X154402234Y-70513000D01*
X154402236Y-70513000D01*
X154594314Y-70482577D01*
X154779267Y-70422482D01*
X154952543Y-70334194D01*
X155109874Y-70219886D01*
X155247386Y-70082374D01*
X155361694Y-69925043D01*
X155449982Y-69751767D01*
X155455167Y-69735806D01*
X155495240Y-69677203D01*
X155560636Y-69649565D01*
X155630593Y-69661672D01*
X155682900Y-69709677D01*
X155694831Y-69735804D01*
X155700018Y-69751767D01*
X155700019Y-69751768D01*
X155788308Y-69925046D01*
X155902615Y-70082376D01*
X156040123Y-70219884D01*
X156040126Y-70219886D01*
X156197457Y-70334194D01*
X156370733Y-70422482D01*
X156555686Y-70482577D01*
X156747764Y-70513000D01*
X156747766Y-70513000D01*
X156942234Y-70513000D01*
X156942236Y-70513000D01*
X157134314Y-70482577D01*
X157319267Y-70422482D01*
X157492543Y-70334194D01*
X157649874Y-70219886D01*
X157787386Y-70082374D01*
X157901694Y-69925043D01*
X157989982Y-69751767D01*
X157995167Y-69735806D01*
X158035240Y-69677203D01*
X158100636Y-69649565D01*
X158170593Y-69661672D01*
X158222900Y-69709677D01*
X158234831Y-69735804D01*
X158240018Y-69751767D01*
X158240019Y-69751768D01*
X158328308Y-69925046D01*
X158442615Y-70082376D01*
X158580123Y-70219884D01*
X158580126Y-70219886D01*
X158737457Y-70334194D01*
X158910733Y-70422482D01*
X159095686Y-70482577D01*
X159287764Y-70513000D01*
X159287766Y-70513000D01*
X159482234Y-70513000D01*
X159482236Y-70513000D01*
X159674314Y-70482577D01*
X159859267Y-70422482D01*
X160032543Y-70334194D01*
X160189874Y-70219886D01*
X160327386Y-70082374D01*
X160441694Y-69925043D01*
X160529982Y-69751767D01*
X160535167Y-69735806D01*
X160575240Y-69677203D01*
X160640636Y-69649565D01*
X160710593Y-69661672D01*
X160762900Y-69709677D01*
X160774831Y-69735804D01*
X160780018Y-69751767D01*
X160780019Y-69751768D01*
X160868308Y-69925046D01*
X160982615Y-70082376D01*
X161120123Y-70219884D01*
X161120126Y-70219886D01*
X161277457Y-70334194D01*
X161450733Y-70422482D01*
X161635686Y-70482577D01*
X161827764Y-70513000D01*
X161827766Y-70513000D01*
X162022234Y-70513000D01*
X162022236Y-70513000D01*
X162214314Y-70482577D01*
X162399267Y-70422482D01*
X162572543Y-70334194D01*
X162729874Y-70219886D01*
X162867386Y-70082374D01*
X162981694Y-69925043D01*
X163069982Y-69751767D01*
X163130077Y-69566814D01*
X163160500Y-69374736D01*
X163160500Y-68380264D01*
X163130077Y-68188186D01*
X163069982Y-68003233D01*
X162981694Y-67829957D01*
X162867386Y-67672626D01*
X162867384Y-67672623D01*
X162729876Y-67535115D01*
X162572546Y-67420808D01*
X162572545Y-67420807D01*
X162572543Y-67420806D01*
X162399267Y-67332518D01*
X162329952Y-67309996D01*
X162214316Y-67272423D01*
X162118275Y-67257211D01*
X162022236Y-67242000D01*
X161827764Y-67242000D01*
X161750932Y-67254169D01*
X161635683Y-67272423D01*
X161450733Y-67332518D01*
X161450731Y-67332519D01*
X161277453Y-67420808D01*
X161120123Y-67535115D01*
X160982615Y-67672623D01*
X160868308Y-67829953D01*
X160780019Y-68003231D01*
X160780018Y-68003234D01*
X160774833Y-68019192D01*
X160734759Y-68077798D01*
X160669362Y-68105434D01*
X160599405Y-68093327D01*
X160547099Y-68045320D01*
X160535167Y-68019192D01*
X160529982Y-68003233D01*
X160441694Y-67829957D01*
X160327386Y-67672626D01*
X160327384Y-67672623D01*
X160189876Y-67535115D01*
X160032546Y-67420808D01*
X160032545Y-67420807D01*
X160032543Y-67420806D01*
X159859267Y-67332518D01*
X159789952Y-67309996D01*
X159674316Y-67272423D01*
X159578275Y-67257211D01*
X159482236Y-67242000D01*
X159287764Y-67242000D01*
X159210932Y-67254169D01*
X159095683Y-67272423D01*
X158910733Y-67332518D01*
X158910731Y-67332519D01*
X158737453Y-67420808D01*
X158580123Y-67535115D01*
X158442615Y-67672623D01*
X158328308Y-67829953D01*
X158240019Y-68003231D01*
X158240018Y-68003234D01*
X158234833Y-68019192D01*
X158194759Y-68077798D01*
X158129362Y-68105434D01*
X158059405Y-68093327D01*
X158007099Y-68045320D01*
X157995167Y-68019192D01*
X157989982Y-68003233D01*
X157901694Y-67829957D01*
X157787386Y-67672626D01*
X157787384Y-67672623D01*
X157649876Y-67535115D01*
X157492546Y-67420808D01*
X157492545Y-67420807D01*
X157492543Y-67420806D01*
X157319267Y-67332518D01*
X157249952Y-67309996D01*
X157134316Y-67272423D01*
X157038275Y-67257211D01*
X156942236Y-67242000D01*
X156747764Y-67242000D01*
X156670932Y-67254169D01*
X156555683Y-67272423D01*
X156370733Y-67332518D01*
X156370731Y-67332519D01*
X156197453Y-67420808D01*
X156040123Y-67535115D01*
X155902615Y-67672623D01*
X155788308Y-67829953D01*
X155700019Y-68003231D01*
X155700018Y-68003234D01*
X155694833Y-68019192D01*
X155654759Y-68077798D01*
X155589362Y-68105434D01*
X155519405Y-68093327D01*
X155467099Y-68045320D01*
X155455167Y-68019192D01*
X155449982Y-68003233D01*
X155361694Y-67829957D01*
X155247386Y-67672626D01*
X155247384Y-67672623D01*
X155109876Y-67535115D01*
X154952546Y-67420808D01*
X154952545Y-67420807D01*
X154952543Y-67420806D01*
X154779267Y-67332518D01*
X154709952Y-67309996D01*
X154594316Y-67272423D01*
X154498275Y-67257211D01*
X154402236Y-67242000D01*
X154207764Y-67242000D01*
X154130932Y-67254169D01*
X154015683Y-67272423D01*
X153830733Y-67332518D01*
X153830731Y-67332519D01*
X153657453Y-67420808D01*
X153500123Y-67535115D01*
X153362615Y-67672623D01*
X153248308Y-67829953D01*
X153160019Y-68003231D01*
X153160018Y-68003234D01*
X153154833Y-68019192D01*
X153114759Y-68077798D01*
X153049362Y-68105434D01*
X152979405Y-68093327D01*
X152927099Y-68045320D01*
X152915167Y-68019192D01*
X152909982Y-68003233D01*
X152821694Y-67829957D01*
X152707386Y-67672626D01*
X152707384Y-67672623D01*
X152569876Y-67535115D01*
X152412546Y-67420808D01*
X152412545Y-67420807D01*
X152412543Y-67420806D01*
X152239267Y-67332518D01*
X152169952Y-67309996D01*
X152054316Y-67272423D01*
X151958275Y-67257211D01*
X151862236Y-67242000D01*
X151667764Y-67242000D01*
X151590932Y-67254169D01*
X151475683Y-67272423D01*
X151290733Y-67332518D01*
X151290731Y-67332519D01*
X151117453Y-67420808D01*
X150960123Y-67535115D01*
X150822615Y-67672623D01*
X150708308Y-67829953D01*
X150620019Y-68003231D01*
X150620018Y-68003234D01*
X150614833Y-68019192D01*
X150574759Y-68077798D01*
X150509362Y-68105434D01*
X150439405Y-68093327D01*
X150387099Y-68045320D01*
X150375167Y-68019192D01*
X150369982Y-68003233D01*
X150281694Y-67829957D01*
X150167386Y-67672626D01*
X150167384Y-67672623D01*
X150029876Y-67535115D01*
X149872546Y-67420808D01*
X149872545Y-67420807D01*
X149872543Y-67420806D01*
X149699267Y-67332518D01*
X149629952Y-67309996D01*
X149514316Y-67272423D01*
X149418275Y-67257211D01*
X149322236Y-67242000D01*
X149127764Y-67242000D01*
X149050932Y-67254169D01*
X148935683Y-67272423D01*
X148750733Y-67332518D01*
X148750731Y-67332519D01*
X148577453Y-67420808D01*
X148420123Y-67535115D01*
X148282615Y-67672623D01*
X148168308Y-67829953D01*
X148080019Y-68003231D01*
X148080018Y-68003234D01*
X148074833Y-68019192D01*
X148034759Y-68077798D01*
X147969362Y-68105434D01*
X147899405Y-68093327D01*
X147847099Y-68045320D01*
X147835167Y-68019192D01*
X147829982Y-68003233D01*
X147741694Y-67829957D01*
X147627386Y-67672626D01*
X147627384Y-67672623D01*
X147489876Y-67535115D01*
X147332546Y-67420808D01*
X147332545Y-67420807D01*
X147332543Y-67420806D01*
X147159267Y-67332518D01*
X147089952Y-67309996D01*
X146974316Y-67272423D01*
X146878275Y-67257211D01*
X146782236Y-67242000D01*
X146587764Y-67242000D01*
X146510932Y-67254169D01*
X146395683Y-67272423D01*
X146210733Y-67332518D01*
X146210731Y-67332519D01*
X146037453Y-67420808D01*
X145880123Y-67535115D01*
X145742615Y-67672623D01*
X145628308Y-67829953D01*
X145540019Y-68003231D01*
X145540018Y-68003234D01*
X145534833Y-68019192D01*
X145494759Y-68077798D01*
X145429362Y-68105434D01*
X145359405Y-68093327D01*
X145307099Y-68045320D01*
X145295167Y-68019192D01*
X145289982Y-68003233D01*
X145201694Y-67829957D01*
X145087386Y-67672626D01*
X145087384Y-67672623D01*
X144949876Y-67535115D01*
X144792546Y-67420808D01*
X144792545Y-67420807D01*
X144792543Y-67420806D01*
X144619267Y-67332518D01*
X144549952Y-67309996D01*
X144434316Y-67272423D01*
X144338275Y-67257211D01*
X144242236Y-67242000D01*
X144047764Y-67242000D01*
X143970932Y-67254169D01*
X143855683Y-67272423D01*
X143670733Y-67332518D01*
X143670731Y-67332519D01*
X143497453Y-67420808D01*
X143340123Y-67535115D01*
X143202615Y-67672623D01*
X143088308Y-67829953D01*
X143000019Y-68003231D01*
X143000018Y-68003234D01*
X142994833Y-68019192D01*
X142954759Y-68077798D01*
X142889362Y-68105434D01*
X142819405Y-68093327D01*
X142767099Y-68045320D01*
X142755167Y-68019192D01*
X142749982Y-68003233D01*
X142661694Y-67829957D01*
X142547386Y-67672626D01*
X142547384Y-67672623D01*
X142409876Y-67535115D01*
X142252546Y-67420808D01*
X142252545Y-67420807D01*
X142252543Y-67420806D01*
X142079267Y-67332518D01*
X142009952Y-67309996D01*
X141894316Y-67272423D01*
X141798275Y-67257211D01*
X141702236Y-67242000D01*
X141507764Y-67242000D01*
X141430932Y-67254169D01*
X141315683Y-67272423D01*
X141130733Y-67332518D01*
X141130731Y-67332519D01*
X140957453Y-67420808D01*
X140800123Y-67535115D01*
X140662615Y-67672623D01*
X140548308Y-67829953D01*
X140460019Y-68003231D01*
X140460018Y-68003234D01*
X140454833Y-68019192D01*
X140414759Y-68077798D01*
X140349362Y-68105434D01*
X140279405Y-68093327D01*
X140227099Y-68045320D01*
X140215167Y-68019192D01*
X140209982Y-68003233D01*
X140121694Y-67829957D01*
X140007386Y-67672626D01*
X140007384Y-67672623D01*
X139869876Y-67535115D01*
X139712546Y-67420808D01*
X139712545Y-67420807D01*
X139712543Y-67420806D01*
X139539267Y-67332518D01*
X139469952Y-67309996D01*
X139354316Y-67272423D01*
X139258275Y-67257211D01*
X139162236Y-67242000D01*
X138967764Y-67242000D01*
X138890932Y-67254169D01*
X138775683Y-67272423D01*
X138590733Y-67332518D01*
X138590731Y-67332519D01*
X138417453Y-67420808D01*
X138260123Y-67535115D01*
X138122615Y-67672623D01*
X138008308Y-67829953D01*
X137920019Y-68003231D01*
X137920018Y-68003234D01*
X137914833Y-68019192D01*
X137874759Y-68077798D01*
X137809362Y-68105434D01*
X137739405Y-68093327D01*
X137687099Y-68045320D01*
X137675167Y-68019192D01*
X137669982Y-68003233D01*
X137581694Y-67829957D01*
X137467386Y-67672626D01*
X137467384Y-67672623D01*
X137329876Y-67535115D01*
X137172546Y-67420808D01*
X137172545Y-67420807D01*
X137172543Y-67420806D01*
X136999267Y-67332518D01*
X136929952Y-67309996D01*
X136814316Y-67272423D01*
X136718275Y-67257211D01*
X136622236Y-67242000D01*
X136427764Y-67242000D01*
X136350932Y-67254169D01*
X136235683Y-67272423D01*
X136050733Y-67332518D01*
X136050731Y-67332519D01*
X135877453Y-67420808D01*
X135720123Y-67535115D01*
X135582615Y-67672623D01*
X135468308Y-67829953D01*
X135380019Y-68003231D01*
X135380018Y-68003234D01*
X135374833Y-68019192D01*
X135334759Y-68077798D01*
X135269362Y-68105434D01*
X135199405Y-68093327D01*
X135147099Y-68045320D01*
X135135167Y-68019192D01*
X135129982Y-68003233D01*
X135041694Y-67829957D01*
X134927386Y-67672626D01*
X134927384Y-67672623D01*
X134789876Y-67535115D01*
X134632546Y-67420808D01*
X134632545Y-67420807D01*
X134632543Y-67420806D01*
X134459267Y-67332518D01*
X134389952Y-67309996D01*
X134274316Y-67272423D01*
X134178275Y-67257211D01*
X134082236Y-67242000D01*
X133887764Y-67242000D01*
X133810932Y-67254169D01*
X133695683Y-67272423D01*
X133510733Y-67332518D01*
X133510731Y-67332519D01*
X133337453Y-67420808D01*
X133180123Y-67535115D01*
X133042615Y-67672623D01*
X132928308Y-67829953D01*
X132840019Y-68003231D01*
X132840018Y-68003234D01*
X132834833Y-68019192D01*
X132794759Y-68077798D01*
X132729362Y-68105434D01*
X132659405Y-68093327D01*
X132607099Y-68045320D01*
X132595167Y-68019192D01*
X132589982Y-68003233D01*
X132501694Y-67829957D01*
X132387386Y-67672626D01*
X132387384Y-67672623D01*
X132249876Y-67535115D01*
X132092546Y-67420808D01*
X132092545Y-67420807D01*
X132092543Y-67420806D01*
X131919267Y-67332518D01*
X131849952Y-67309996D01*
X131734316Y-67272423D01*
X131638275Y-67257211D01*
X131542236Y-67242000D01*
X131347764Y-67242000D01*
X131270932Y-67254169D01*
X131155683Y-67272423D01*
X130970733Y-67332518D01*
X130970731Y-67332519D01*
X130797453Y-67420808D01*
X130640123Y-67535115D01*
X130502615Y-67672623D01*
X130388308Y-67829953D01*
X130300019Y-68003231D01*
X130300018Y-68003234D01*
X130294833Y-68019192D01*
X130254759Y-68077798D01*
X130189362Y-68105434D01*
X130119405Y-68093327D01*
X130067099Y-68045320D01*
X130055167Y-68019192D01*
X130049982Y-68003233D01*
X129961694Y-67829957D01*
X129847386Y-67672626D01*
X129847384Y-67672623D01*
X129709876Y-67535115D01*
X129552546Y-67420808D01*
X129552545Y-67420807D01*
X129552543Y-67420806D01*
X129379267Y-67332518D01*
X129309952Y-67309996D01*
X129194316Y-67272423D01*
X129098275Y-67257211D01*
X129002236Y-67242000D01*
X128807764Y-67242000D01*
X128730932Y-67254169D01*
X128615683Y-67272423D01*
X128430733Y-67332518D01*
X128430731Y-67332519D01*
X128257453Y-67420808D01*
X128100123Y-67535115D01*
X127962615Y-67672623D01*
X127848308Y-67829953D01*
X127760019Y-68003231D01*
X127760018Y-68003234D01*
X127754833Y-68019192D01*
X127714759Y-68077798D01*
X127649362Y-68105434D01*
X127579405Y-68093327D01*
X127527099Y-68045320D01*
X127515167Y-68019192D01*
X127509982Y-68003233D01*
X127421694Y-67829957D01*
X127307386Y-67672626D01*
X127307384Y-67672623D01*
X127169876Y-67535115D01*
X127012546Y-67420808D01*
X127012545Y-67420807D01*
X127012543Y-67420806D01*
X126839267Y-67332518D01*
X126769952Y-67309996D01*
X126654316Y-67272423D01*
X126558275Y-67257211D01*
X126462236Y-67242000D01*
X126267764Y-67242000D01*
X126190932Y-67254169D01*
X126075683Y-67272423D01*
X125890733Y-67332518D01*
X125890731Y-67332519D01*
X125717453Y-67420808D01*
X125560123Y-67535115D01*
X125422615Y-67672623D01*
X125308308Y-67829953D01*
X125220019Y-68003231D01*
X125220018Y-68003234D01*
X125214833Y-68019192D01*
X125174759Y-68077798D01*
X125109362Y-68105434D01*
X125039405Y-68093327D01*
X124987099Y-68045320D01*
X124975167Y-68019192D01*
X124969982Y-68003233D01*
X124881694Y-67829957D01*
X124767386Y-67672626D01*
X124767384Y-67672623D01*
X124629876Y-67535115D01*
X124472546Y-67420808D01*
X124472545Y-67420807D01*
X124472543Y-67420806D01*
X124299267Y-67332518D01*
X124229952Y-67309996D01*
X124114316Y-67272423D01*
X124018275Y-67257211D01*
X123922236Y-67242000D01*
X123727764Y-67242000D01*
X123650932Y-67254169D01*
X123535683Y-67272423D01*
X123350733Y-67332518D01*
X123350731Y-67332519D01*
X123177453Y-67420808D01*
X123020123Y-67535115D01*
X122882615Y-67672623D01*
X122768308Y-67829953D01*
X122680019Y-68003231D01*
X122680018Y-68003234D01*
X122674833Y-68019192D01*
X122634759Y-68077798D01*
X122569362Y-68105434D01*
X122499405Y-68093327D01*
X122447099Y-68045320D01*
X122435167Y-68019192D01*
X122429982Y-68003233D01*
X122341694Y-67829957D01*
X122227386Y-67672626D01*
X122227384Y-67672623D01*
X122089876Y-67535115D01*
X121932546Y-67420808D01*
X121932545Y-67420807D01*
X121932543Y-67420806D01*
X121759267Y-67332518D01*
X121689952Y-67309996D01*
X121574316Y-67272423D01*
X121478275Y-67257211D01*
X121382236Y-67242000D01*
X121187764Y-67242000D01*
X121110932Y-67254169D01*
X120995683Y-67272423D01*
X120810733Y-67332518D01*
X120810731Y-67332519D01*
X120637453Y-67420808D01*
X120480123Y-67535115D01*
X120342615Y-67672623D01*
X120228308Y-67829953D01*
X120140019Y-68003231D01*
X120140018Y-68003234D01*
X120134833Y-68019192D01*
X120094759Y-68077798D01*
X120029362Y-68105434D01*
X119959405Y-68093327D01*
X119907099Y-68045320D01*
X119895167Y-68019192D01*
X119889982Y-68003233D01*
X119801694Y-67829957D01*
X119687386Y-67672626D01*
X119687384Y-67672623D01*
X119549876Y-67535115D01*
X119392546Y-67420808D01*
X119392545Y-67420807D01*
X119392543Y-67420806D01*
X119219267Y-67332518D01*
X119149952Y-67309996D01*
X119034316Y-67272423D01*
X118938275Y-67257211D01*
X118842236Y-67242000D01*
X118647764Y-67242000D01*
X118570932Y-67254169D01*
X118455683Y-67272423D01*
X118270733Y-67332518D01*
X118270731Y-67332519D01*
X118097453Y-67420808D01*
X117940123Y-67535115D01*
X117802615Y-67672623D01*
X117688308Y-67829953D01*
X117600019Y-68003231D01*
X117600018Y-68003234D01*
X117594833Y-68019192D01*
X117554759Y-68077798D01*
X117489362Y-68105434D01*
X117419405Y-68093327D01*
X117367099Y-68045320D01*
X117355167Y-68019192D01*
X117349982Y-68003233D01*
X117261694Y-67829957D01*
X117147386Y-67672626D01*
X117147384Y-67672623D01*
X117009876Y-67535115D01*
X116852546Y-67420808D01*
X116852545Y-67420807D01*
X116852543Y-67420806D01*
X116679267Y-67332518D01*
X116609952Y-67309996D01*
X116494316Y-67272423D01*
X116398275Y-67257211D01*
X116302236Y-67242000D01*
X116107764Y-67242000D01*
X116030932Y-67254169D01*
X115915683Y-67272423D01*
X115730733Y-67332518D01*
X115730731Y-67332519D01*
X115557453Y-67420808D01*
X115400123Y-67535115D01*
X115262615Y-67672623D01*
X115148308Y-67829953D01*
X115060019Y-68003231D01*
X115060018Y-68003234D01*
X115054833Y-68019192D01*
X115014759Y-68077798D01*
X114949362Y-68105434D01*
X114879405Y-68093327D01*
X114827099Y-68045320D01*
X114815167Y-68019192D01*
X114809982Y-68003233D01*
X114721694Y-67829957D01*
X114607386Y-67672626D01*
X114607384Y-67672623D01*
X114469876Y-67535115D01*
X114312546Y-67420808D01*
X114312545Y-67420807D01*
X114312543Y-67420806D01*
X114139267Y-67332518D01*
X114069952Y-67309996D01*
X113954316Y-67272423D01*
X113858275Y-67257211D01*
X113762236Y-67242000D01*
X113567764Y-67242000D01*
X113490932Y-67254169D01*
X113375683Y-67272423D01*
X113190733Y-67332518D01*
X113190731Y-67332519D01*
X113017453Y-67420808D01*
X112860123Y-67535115D01*
X112722615Y-67672623D01*
X112608308Y-67829953D01*
X112520019Y-68003231D01*
X112520018Y-68003234D01*
X112514833Y-68019192D01*
X112474759Y-68077798D01*
X112409362Y-68105434D01*
X112339405Y-68093327D01*
X112287099Y-68045320D01*
X112275167Y-68019192D01*
X112269982Y-68003233D01*
X112181694Y-67829957D01*
X112067386Y-67672626D01*
X112067384Y-67672623D01*
X111929876Y-67535115D01*
X111772546Y-67420808D01*
X111772545Y-67420807D01*
X111772543Y-67420806D01*
X111599267Y-67332518D01*
X111529952Y-67309996D01*
X111414316Y-67272423D01*
X111318275Y-67257211D01*
X111222236Y-67242000D01*
X111027764Y-67242000D01*
X110950932Y-67254169D01*
X110835683Y-67272423D01*
X110650733Y-67332518D01*
X110650731Y-67332519D01*
X110477453Y-67420808D01*
X110320123Y-67535115D01*
X110182615Y-67672623D01*
X110068308Y-67829953D01*
X109980019Y-68003231D01*
X109980018Y-68003234D01*
X109974833Y-68019192D01*
X109934759Y-68077798D01*
X109869362Y-68105434D01*
X109799405Y-68093327D01*
X109747099Y-68045320D01*
X109735167Y-68019192D01*
X109729982Y-68003233D01*
X109641694Y-67829957D01*
X109527386Y-67672626D01*
X109527384Y-67672623D01*
X109389876Y-67535115D01*
X109232546Y-67420808D01*
X109232545Y-67420807D01*
X109232543Y-67420806D01*
X109059267Y-67332518D01*
X108989952Y-67309996D01*
X108874316Y-67272423D01*
X108778275Y-67257211D01*
X108682236Y-67242000D01*
X108487764Y-67242000D01*
X108410932Y-67254169D01*
X108295683Y-67272423D01*
X108110733Y-67332518D01*
X108110731Y-67332519D01*
X107937453Y-67420808D01*
X107780123Y-67535115D01*
X107642615Y-67672623D01*
X107528308Y-67829953D01*
X107440019Y-68003231D01*
X107440018Y-68003234D01*
X107434833Y-68019192D01*
X107394759Y-68077798D01*
X107329362Y-68105434D01*
X107259405Y-68093327D01*
X107207099Y-68045320D01*
X107195167Y-68019192D01*
X107189982Y-68003233D01*
X107101694Y-67829957D01*
X106987386Y-67672626D01*
X106987384Y-67672623D01*
X106849876Y-67535115D01*
X106692546Y-67420808D01*
X106692545Y-67420807D01*
X106692543Y-67420806D01*
X106519267Y-67332518D01*
X106449952Y-67309996D01*
X106334316Y-67272423D01*
X106238275Y-67257211D01*
X106142236Y-67242000D01*
X105947764Y-67242000D01*
X105870932Y-67254169D01*
X105755683Y-67272423D01*
X105570733Y-67332518D01*
X105570731Y-67332519D01*
X105397453Y-67420808D01*
X105240123Y-67535115D01*
X105102615Y-67672623D01*
X104988308Y-67829953D01*
X104900019Y-68003231D01*
X104900018Y-68003234D01*
X104894833Y-68019192D01*
X104854759Y-68077798D01*
X104789362Y-68105434D01*
X104719405Y-68093327D01*
X104667099Y-68045320D01*
X104655167Y-68019192D01*
X104649982Y-68003233D01*
X104561694Y-67829957D01*
X104447386Y-67672626D01*
X104447384Y-67672623D01*
X104309876Y-67535115D01*
X104152546Y-67420808D01*
X104152545Y-67420807D01*
X104152543Y-67420806D01*
X103979267Y-67332518D01*
X103909952Y-67309996D01*
X103794316Y-67272423D01*
X103698275Y-67257211D01*
X103602236Y-67242000D01*
X103407764Y-67242000D01*
X103330932Y-67254169D01*
X103215683Y-67272423D01*
X103030733Y-67332518D01*
X103030731Y-67332519D01*
X102857451Y-67420809D01*
X102838983Y-67434227D01*
X102772115Y-67458085D01*
X102702964Y-67442003D01*
X102653485Y-67391088D01*
X102639386Y-67321506D01*
X102639531Y-67319938D01*
X102640510Y-67309999D01*
X102640510Y-67309996D01*
X102620518Y-67107013D01*
X102620517Y-67107011D01*
X102620517Y-67107007D01*
X102561306Y-66911814D01*
X102561305Y-66911813D01*
X102559509Y-66905890D01*
X102560720Y-66905522D01*
X102553000Y-66866697D01*
X102553000Y-65722496D01*
X136754490Y-65722496D01*
X136754490Y-65722503D01*
X136774481Y-65925486D01*
X136774482Y-65925492D01*
X136774483Y-65925493D01*
X136833694Y-66120686D01*
X136929848Y-66300576D01*
X137059248Y-66458252D01*
X137216924Y-66587652D01*
X137396814Y-66683806D01*
X137592007Y-66743017D01*
X137592011Y-66743017D01*
X137592013Y-66743018D01*
X137794997Y-66763010D01*
X137795000Y-66763010D01*
X137795003Y-66763010D01*
X137997986Y-66743018D01*
X137997987Y-66743017D01*
X137997993Y-66743017D01*
X138171521Y-66690378D01*
X138199111Y-66682009D01*
X138199479Y-66683222D01*
X138238303Y-66675500D01*
X155068910Y-66675500D01*
X155128306Y-66690378D01*
X155146891Y-66700311D01*
X155176814Y-66716306D01*
X155372007Y-66775517D01*
X155372011Y-66775517D01*
X155372013Y-66775518D01*
X155574997Y-66795510D01*
X155575000Y-66795510D01*
X155575003Y-66795510D01*
X155777986Y-66775518D01*
X155777987Y-66775517D01*
X155777993Y-66775517D01*
X155973186Y-66716306D01*
X156153076Y-66620152D01*
X156310752Y-66490752D01*
X156440152Y-66333076D01*
X156536306Y-66153186D01*
X156595517Y-65957993D01*
X156615510Y-65755000D01*
X156615510Y-65754996D01*
X156595518Y-65552013D01*
X156595517Y-65552011D01*
X156595517Y-65552007D01*
X156536306Y-65356814D01*
X156440152Y-65176924D01*
X156310752Y-65019248D01*
X156153076Y-64889848D01*
X156153074Y-64889847D01*
X156153073Y-64889846D01*
X155973186Y-64793694D01*
X155875545Y-64764075D01*
X155777993Y-64734483D01*
X155777992Y-64734482D01*
X155777986Y-64734481D01*
X155575003Y-64714490D01*
X155574997Y-64714490D01*
X155372013Y-64734481D01*
X155274454Y-64764075D01*
X155237879Y-64769500D01*
X138238303Y-64769500D01*
X138199479Y-64761777D01*
X138199111Y-64762991D01*
X137997986Y-64701981D01*
X137795003Y-64681990D01*
X137794997Y-64681990D01*
X137592013Y-64701981D01*
X137396813Y-64761194D01*
X137216926Y-64857346D01*
X137059248Y-64986748D01*
X136929846Y-65144426D01*
X136833694Y-65324313D01*
X136774481Y-65519513D01*
X136754490Y-65722496D01*
X102553000Y-65722496D01*
X102553000Y-63744775D01*
X102573002Y-63676654D01*
X102601607Y-63645344D01*
X102609550Y-63639163D01*
X102776286Y-63458040D01*
X102910936Y-63251943D01*
X103009827Y-63026494D01*
X103070261Y-62787843D01*
X103090591Y-62542500D01*
X103070261Y-62297157D01*
X103009827Y-62058506D01*
X102910936Y-61833057D01*
X102776286Y-61626959D01*
X102745166Y-61593154D01*
X102713745Y-61529489D01*
X102721732Y-61458943D01*
X102766591Y-61403915D01*
X102773709Y-61399375D01*
X102842598Y-61358635D01*
X102956135Y-61245098D01*
X103037869Y-61106893D01*
X103082665Y-60952704D01*
X103085500Y-60916681D01*
X103085499Y-59088320D01*
X103082665Y-59052296D01*
X103037869Y-58898107D01*
X102956135Y-58759902D01*
X102956133Y-58759900D01*
X102956130Y-58759896D01*
X102842603Y-58646369D01*
X102842599Y-58646366D01*
X102842598Y-58646365D01*
X102704393Y-58564631D01*
X102643845Y-58547039D01*
X102584010Y-58508825D01*
X102554334Y-58444329D01*
X102553000Y-58426043D01*
X102553000Y-57467500D01*
X105537000Y-57467500D01*
X105556970Y-57874002D01*
X105557181Y-57878286D01*
X105557182Y-57878300D01*
X105617529Y-58285127D01*
X105685629Y-58556994D01*
X105708015Y-58646366D01*
X105717466Y-58684094D01*
X105717468Y-58684101D01*
X105856019Y-59071322D01*
X105868204Y-59097084D01*
X106031868Y-59443124D01*
X106031870Y-59443127D01*
X106243313Y-59795899D01*
X106488307Y-60126235D01*
X106488310Y-60126238D01*
X106488313Y-60126242D01*
X106612142Y-60262867D01*
X106764514Y-60430985D01*
X106916886Y-60569086D01*
X107069258Y-60707187D01*
X107069261Y-60707189D01*
X107069264Y-60707192D01*
X107399600Y-60952186D01*
X107399604Y-60952188D01*
X107399605Y-60952189D01*
X107752376Y-61163632D01*
X108124174Y-61339479D01*
X108124177Y-61339480D01*
X108511398Y-61478031D01*
X108511405Y-61478033D01*
X108511407Y-61478033D01*
X108511417Y-61478037D01*
X108910376Y-61577971D01*
X109317210Y-61638319D01*
X109667929Y-61655548D01*
X109727996Y-61658500D01*
X109728000Y-61658500D01*
X109728004Y-61658500D01*
X109785951Y-61655652D01*
X110138790Y-61638319D01*
X110545624Y-61577971D01*
X110944583Y-61478037D01*
X110944594Y-61478032D01*
X110944601Y-61478031D01*
X111164462Y-61399363D01*
X111331826Y-61339479D01*
X111703624Y-61163632D01*
X112056395Y-60952189D01*
X112386742Y-60707187D01*
X112691485Y-60430985D01*
X112967687Y-60126242D01*
X113212689Y-59795895D01*
X113424132Y-59443124D01*
X113599979Y-59071326D01*
X113704855Y-58778217D01*
X113738531Y-58684101D01*
X113738533Y-58684094D01*
X113738532Y-58684094D01*
X113738537Y-58684083D01*
X113838471Y-58285124D01*
X113898819Y-57878290D01*
X113919000Y-57467500D01*
X113898819Y-57056710D01*
X113838471Y-56649876D01*
X113738537Y-56250917D01*
X113738533Y-56250905D01*
X113738531Y-56250898D01*
X113599980Y-55863677D01*
X113599979Y-55863674D01*
X113424132Y-55491876D01*
X113212689Y-55139105D01*
X113212688Y-55139104D01*
X113212686Y-55139100D01*
X112967692Y-54808764D01*
X112967689Y-54808761D01*
X112967687Y-54808758D01*
X112778708Y-54600251D01*
X112691485Y-54504014D01*
X112501710Y-54332014D01*
X112386742Y-54227813D01*
X112386738Y-54227810D01*
X112386735Y-54227807D01*
X112056399Y-53982813D01*
X111754158Y-53801657D01*
X111703624Y-53771368D01*
X111331826Y-53595521D01*
X111331822Y-53595519D01*
X110944601Y-53456968D01*
X110944594Y-53456966D01*
X110944585Y-53456963D01*
X110944583Y-53456963D01*
X110774830Y-53414442D01*
X110545627Y-53357029D01*
X110138800Y-53296682D01*
X110138793Y-53296681D01*
X110138790Y-53296681D01*
X109933395Y-53286590D01*
X109728004Y-53276500D01*
X109727996Y-53276500D01*
X109493262Y-53288032D01*
X109317210Y-53296681D01*
X109317207Y-53296681D01*
X109317199Y-53296682D01*
X108910372Y-53357029D01*
X108511405Y-53456966D01*
X108511398Y-53456968D01*
X108124177Y-53595519D01*
X107752372Y-53771370D01*
X107399600Y-53982813D01*
X107069264Y-54227807D01*
X107069259Y-54227812D01*
X106764514Y-54504014D01*
X106488312Y-54808759D01*
X106488307Y-54808764D01*
X106243313Y-55139100D01*
X106031870Y-55491872D01*
X105856019Y-55863677D01*
X105717468Y-56250898D01*
X105717466Y-56250905D01*
X105617529Y-56649872D01*
X105557182Y-57056699D01*
X105557181Y-57056713D01*
X105540286Y-57400620D01*
X105537000Y-57467500D01*
X102553000Y-57467500D01*
X102553000Y-55056935D01*
X102573002Y-54988814D01*
X102589905Y-54967840D01*
X105132840Y-52424905D01*
X105195152Y-52390879D01*
X105221935Y-52388000D01*
X123635000Y-52388000D01*
X123703121Y-52408002D01*
X123749614Y-52461658D01*
X123761000Y-52514000D01*
X123761000Y-53435217D01*
X123740998Y-53503338D01*
X123687342Y-53549831D01*
X123654714Y-53559665D01*
X123624751Y-53564411D01*
X123624745Y-53564412D01*
X123415549Y-53632384D01*
X123219547Y-53732253D01*
X123041587Y-53861549D01*
X123041584Y-53861551D01*
X122886051Y-54017084D01*
X122886049Y-54017087D01*
X122756753Y-54195047D01*
X122656884Y-54391049D01*
X122588912Y-54600245D01*
X122588911Y-54600250D01*
X122588911Y-54600251D01*
X122554500Y-54817514D01*
X122554500Y-55037486D01*
X122588911Y-55254749D01*
X122588912Y-55254754D01*
X122656884Y-55463950D01*
X122656885Y-55463953D01*
X122656886Y-55463954D01*
X122756751Y-55659949D01*
X122886047Y-55837910D01*
X122886049Y-55837912D01*
X122886051Y-55837915D01*
X123041584Y-55993448D01*
X123041587Y-55993450D01*
X123041590Y-55993453D01*
X123219551Y-56122749D01*
X123286343Y-56156781D01*
X123337958Y-56205530D01*
X123355024Y-56274445D01*
X123332123Y-56341646D01*
X123290162Y-56378010D01*
X123290593Y-56378714D01*
X123286376Y-56381297D01*
X123124648Y-56498800D01*
X123124645Y-56498802D01*
X122983302Y-56640145D01*
X122983300Y-56640148D01*
X122865801Y-56801871D01*
X122775046Y-56979987D01*
X122775043Y-56979993D01*
X122713273Y-57170102D01*
X122706399Y-57213500D01*
X124274058Y-57213500D01*
X124240619Y-57271419D01*
X124206000Y-57400620D01*
X124206000Y-57534380D01*
X124240619Y-57663581D01*
X124274058Y-57721500D01*
X122706399Y-57721500D01*
X122713273Y-57764897D01*
X122775043Y-57955006D01*
X122775046Y-57955012D01*
X122865801Y-58133128D01*
X122983300Y-58294851D01*
X122983302Y-58294854D01*
X123124645Y-58436197D01*
X123124648Y-58436199D01*
X123286376Y-58553702D01*
X123290593Y-58556286D01*
X123290044Y-58557181D01*
X123337956Y-58602428D01*
X123355025Y-58671342D01*
X123332126Y-58738545D01*
X123286344Y-58778217D01*
X123219550Y-58812251D01*
X123041587Y-58941549D01*
X123041584Y-58941551D01*
X122886051Y-59097084D01*
X122886049Y-59097087D01*
X122756753Y-59275047D01*
X122656884Y-59471049D01*
X122588912Y-59680245D01*
X122588911Y-59680250D01*
X122588911Y-59680251D01*
X122554500Y-59897514D01*
X122554500Y-60117486D01*
X122555887Y-60126242D01*
X122588912Y-60334754D01*
X122656884Y-60543950D01*
X122656885Y-60543953D01*
X122656886Y-60543954D01*
X122756751Y-60739949D01*
X122886047Y-60917910D01*
X122886049Y-60917912D01*
X122886051Y-60917915D01*
X123041584Y-61073448D01*
X123041587Y-61073450D01*
X123041590Y-61073453D01*
X123219551Y-61202749D01*
X123415546Y-61302614D01*
X123624751Y-61370589D01*
X123842014Y-61405000D01*
X123842017Y-61405000D01*
X125585983Y-61405000D01*
X125585986Y-61405000D01*
X125803249Y-61370589D01*
X126012454Y-61302614D01*
X126208449Y-61202749D01*
X126386410Y-61073453D01*
X126541953Y-60917910D01*
X126671249Y-60739949D01*
X126771114Y-60543954D01*
X126839089Y-60334749D01*
X126873500Y-60117486D01*
X126873500Y-59897514D01*
X126839089Y-59680251D01*
X126771114Y-59471046D01*
X126671249Y-59275051D01*
X126541953Y-59097090D01*
X126541950Y-59097087D01*
X126541948Y-59097084D01*
X126386415Y-58941551D01*
X126386412Y-58941549D01*
X126386410Y-58941547D01*
X126208449Y-58812251D01*
X126141655Y-58778217D01*
X126090040Y-58729469D01*
X126072975Y-58660554D01*
X126095876Y-58593352D01*
X126137841Y-58556994D01*
X126137407Y-58556286D01*
X126141623Y-58553702D01*
X126303351Y-58436199D01*
X126303354Y-58436197D01*
X126444697Y-58294854D01*
X126444699Y-58294851D01*
X126562198Y-58133128D01*
X126652953Y-57955012D01*
X126652956Y-57955006D01*
X126714726Y-57764897D01*
X126721601Y-57721500D01*
X125153942Y-57721500D01*
X125187381Y-57663581D01*
X125222000Y-57534380D01*
X125222000Y-57400620D01*
X125187381Y-57271419D01*
X125153942Y-57213500D01*
X126721600Y-57213500D01*
X126714726Y-57170102D01*
X126652956Y-56979993D01*
X126652953Y-56979987D01*
X126562198Y-56801871D01*
X126444699Y-56640148D01*
X126444697Y-56640145D01*
X126303354Y-56498802D01*
X126303351Y-56498800D01*
X126141623Y-56381297D01*
X126137407Y-56378714D01*
X126137954Y-56377820D01*
X126090038Y-56332561D01*
X126072975Y-56263645D01*
X126095879Y-56196445D01*
X126141655Y-56156782D01*
X126208449Y-56122749D01*
X126386410Y-55993453D01*
X126541953Y-55837910D01*
X126671249Y-55659949D01*
X126771114Y-55463954D01*
X126839089Y-55254749D01*
X126873500Y-55037486D01*
X126873500Y-54817514D01*
X126839089Y-54600251D01*
X126771114Y-54391046D01*
X126671249Y-54195051D01*
X126541953Y-54017090D01*
X126541950Y-54017087D01*
X126541948Y-54017084D01*
X126386415Y-53861551D01*
X126386412Y-53861549D01*
X126386410Y-53861547D01*
X126208449Y-53732251D01*
X126012454Y-53632386D01*
X126012453Y-53632385D01*
X126012450Y-53632384D01*
X125803254Y-53564412D01*
X125803250Y-53564411D01*
X125803249Y-53564411D01*
X125773286Y-53559665D01*
X125709135Y-53529253D01*
X125671609Y-53468984D01*
X125667000Y-53435217D01*
X125667000Y-51341139D01*
X125666999Y-51341135D01*
X125666765Y-51339957D01*
X125630377Y-51157020D01*
X125558538Y-50983585D01*
X125454243Y-50827498D01*
X125454238Y-50827492D01*
X125321507Y-50694761D01*
X125321501Y-50694756D01*
X125241988Y-50641627D01*
X125165415Y-50590462D01*
X124991980Y-50518623D01*
X124807864Y-50482000D01*
X124807862Y-50482000D01*
X104868862Y-50482000D01*
X104681138Y-50482000D01*
X104681135Y-50482000D01*
X104497019Y-50518623D01*
X104497014Y-50518625D01*
X104323585Y-50590462D01*
X104167498Y-50694756D01*
X104167492Y-50694761D01*
X101757156Y-53105099D01*
X100992498Y-53869757D01*
X100944351Y-53917904D01*
X100859756Y-54002498D01*
X100755462Y-54158585D01*
X100683625Y-54332014D01*
X100683623Y-54332019D01*
X100647000Y-54516135D01*
X100647000Y-58426043D01*
X100626998Y-58494164D01*
X100573342Y-58540657D01*
X100556155Y-58547039D01*
X100495606Y-58564631D01*
X100357400Y-58646366D01*
X100357396Y-58646369D01*
X100243869Y-58759896D01*
X100243866Y-58759900D01*
X100162132Y-58898104D01*
X100117334Y-59052297D01*
X100114500Y-59088310D01*
X100114500Y-60916679D01*
X100117334Y-60952702D01*
X100117335Y-60952704D01*
X100162131Y-61106893D01*
X100195684Y-61163629D01*
X100243866Y-61245099D01*
X100243869Y-61245103D01*
X100357396Y-61358630D01*
X100357398Y-61358631D01*
X100357402Y-61358635D01*
X100426272Y-61399365D01*
X100474724Y-61451256D01*
X100487429Y-61521107D01*
X100460354Y-61586738D01*
X100454835Y-61593153D01*
X100423711Y-61626963D01*
X100289063Y-61833057D01*
X100190174Y-62058502D01*
X100190171Y-62058509D01*
X100129740Y-62297149D01*
X100109409Y-62542500D01*
X95275500Y-62542500D01*
X95275500Y-49215983D01*
X96375501Y-49215983D01*
X96375501Y-49215996D01*
X96395442Y-49596516D01*
X96455054Y-49972890D01*
X96553676Y-50340954D01*
X96553680Y-50340967D01*
X96690233Y-50696700D01*
X96690237Y-50696708D01*
X96690238Y-50696710D01*
X96863234Y-51036235D01*
X97070773Y-51355816D01*
X97070778Y-51355822D01*
X97070780Y-51355825D01*
X97310575Y-51651948D01*
X97310589Y-51651964D01*
X97580015Y-51921390D01*
X97580023Y-51921397D01*
X97580027Y-51921401D01*
X97876164Y-52161207D01*
X98195745Y-52368746D01*
X98535270Y-52541742D01*
X98535274Y-52541743D01*
X98535279Y-52541746D01*
X98789088Y-52639174D01*
X98891017Y-52678301D01*
X99259090Y-52776926D01*
X99635455Y-52836536D01*
X99635457Y-52836536D01*
X99635463Y-52836537D01*
X100015984Y-52856479D01*
X100015990Y-52856479D01*
X100015996Y-52856479D01*
X100396516Y-52836537D01*
X100396520Y-52836536D01*
X100396525Y-52836536D01*
X100772890Y-52776926D01*
X101140963Y-52678301D01*
X101496710Y-52541742D01*
X101836235Y-52368746D01*
X102155816Y-52161207D01*
X102451953Y-51921401D01*
X102721401Y-51651953D01*
X102961207Y-51355816D01*
X103168746Y-51036235D01*
X103341742Y-50696710D01*
X103343083Y-50693218D01*
X103438157Y-50445540D01*
X103478301Y-50340963D01*
X103576926Y-49972890D01*
X103636536Y-49596525D01*
X103636536Y-49596520D01*
X103636537Y-49596516D01*
X103656479Y-49215996D01*
X103656479Y-49215983D01*
X103636537Y-48835463D01*
X103636536Y-48835455D01*
X103576926Y-48459090D01*
X103478301Y-48091017D01*
X103438171Y-47986474D01*
X103341746Y-47735279D01*
X103341742Y-47735271D01*
X103341742Y-47735270D01*
X103168746Y-47395746D01*
X102961207Y-47076164D01*
X102961200Y-47076154D01*
X102721404Y-46780031D01*
X102721401Y-46780027D01*
X102721397Y-46780023D01*
X102721390Y-46780015D01*
X102451964Y-46510589D01*
X102451948Y-46510575D01*
X102447655Y-46507099D01*
X102408967Y-46475770D01*
X102155825Y-46270780D01*
X102155822Y-46270778D01*
X102155816Y-46270773D01*
X101836235Y-46063234D01*
X101496710Y-45890238D01*
X101496709Y-45890237D01*
X101496708Y-45890237D01*
X101496700Y-45890233D01*
X101140967Y-45753680D01*
X101140954Y-45753676D01*
X100772890Y-45655054D01*
X100396516Y-45595442D01*
X100015996Y-45575501D01*
X100015984Y-45575501D01*
X99635463Y-45595442D01*
X99259089Y-45655054D01*
X98891025Y-45753676D01*
X98891012Y-45753680D01*
X98535279Y-45890233D01*
X98535271Y-45890237D01*
X98195755Y-46063229D01*
X98195749Y-46063232D01*
X97876171Y-46270767D01*
X97876154Y-46270779D01*
X97580031Y-46510575D01*
X97580015Y-46510589D01*
X97310589Y-46780015D01*
X97310575Y-46780031D01*
X97070779Y-47076154D01*
X97070767Y-47076171D01*
X96863232Y-47395749D01*
X96863229Y-47395755D01*
X96690237Y-47735271D01*
X96690233Y-47735279D01*
X96553680Y-48091012D01*
X96553676Y-48091025D01*
X96455054Y-48459089D01*
X96395442Y-48835463D01*
X96375501Y-49215983D01*
X95275500Y-49215983D01*
X95275500Y-49215247D01*
X95275620Y-49209751D01*
X95293286Y-48805138D01*
X95294244Y-48794188D01*
X95299022Y-48757899D01*
X95346749Y-48395371D01*
X95348657Y-48384555D01*
X95352939Y-48365243D01*
X95435719Y-47991838D01*
X95438563Y-47981227D01*
X95447998Y-47951305D01*
X95559522Y-47597594D01*
X95563279Y-47587273D01*
X95586532Y-47531135D01*
X95717221Y-47215624D01*
X95721863Y-47205671D01*
X95728463Y-47192993D01*
X95907605Y-46848864D01*
X95913080Y-46839381D01*
X96129223Y-46500104D01*
X96135516Y-46491116D01*
X96380413Y-46171959D01*
X96387445Y-46163578D01*
X96659233Y-45866974D01*
X96666974Y-45859233D01*
X96963578Y-45587445D01*
X96971959Y-45580413D01*
X97291116Y-45335516D01*
X97300104Y-45329223D01*
X97639381Y-45113080D01*
X97648864Y-45107605D01*
X98005680Y-44921858D01*
X98015624Y-44917221D01*
X98387280Y-44763276D01*
X98397594Y-44759522D01*
X98781235Y-44638560D01*
X98791838Y-44635719D01*
X99184563Y-44548655D01*
X99195371Y-44546749D01*
X99439738Y-44514578D01*
X99456184Y-44513500D01*
X111126000Y-44513500D01*
X111194121Y-44533502D01*
X111240614Y-44587158D01*
X111252000Y-44639500D01*
X111252000Y-45085000D01*
X117659861Y-45085000D01*
X117669745Y-45085388D01*
X117669843Y-45085395D01*
X117671169Y-45085500D01*
X117926351Y-45085499D01*
X117994470Y-45105501D01*
X118040963Y-45159156D01*
X118052350Y-45211499D01*
X118052350Y-45537047D01*
X118044629Y-45575872D01*
X118045841Y-45576240D01*
X117984831Y-45777363D01*
X117964840Y-45980346D01*
X117964840Y-45980353D01*
X117984831Y-46183336D01*
X117984832Y-46183342D01*
X117984833Y-46183343D01*
X118002167Y-46240486D01*
X118044044Y-46378536D01*
X118133928Y-46546697D01*
X118140198Y-46558426D01*
X118269598Y-46716102D01*
X118427274Y-46845502D01*
X118607164Y-46941656D01*
X118802357Y-47000867D01*
X118802361Y-47000867D01*
X118802363Y-47000868D01*
X119005347Y-47020860D01*
X119005350Y-47020860D01*
X119005353Y-47020860D01*
X119208336Y-47000868D01*
X119208337Y-47000867D01*
X119208343Y-47000867D01*
X119403536Y-46941656D01*
X119583426Y-46845502D01*
X119741102Y-46716102D01*
X119870502Y-46558426D01*
X119966656Y-46378536D01*
X120025867Y-46183343D01*
X120027817Y-46163552D01*
X120045860Y-45980353D01*
X120045860Y-45980346D01*
X120025868Y-45777363D01*
X120025867Y-45777361D01*
X120025867Y-45777357D01*
X119966656Y-45582164D01*
X119966655Y-45582163D01*
X119964859Y-45576240D01*
X119966070Y-45575872D01*
X119958350Y-45537047D01*
X119958350Y-45211499D01*
X119978352Y-45143378D01*
X120032008Y-45096885D01*
X120084350Y-45085499D01*
X120339530Y-45085499D01*
X120340941Y-45085388D01*
X120350823Y-45085000D01*
X121622261Y-45085000D01*
X121632145Y-45085388D01*
X121632243Y-45085395D01*
X121633569Y-45085500D01*
X121888751Y-45085499D01*
X121956870Y-45105501D01*
X122003363Y-45159156D01*
X122014750Y-45211499D01*
X122014750Y-46546697D01*
X122007029Y-46585522D01*
X122008241Y-46585890D01*
X121947231Y-46787013D01*
X121927240Y-46989996D01*
X121927240Y-46990003D01*
X121947231Y-47192986D01*
X121947232Y-47192992D01*
X121947233Y-47192993D01*
X122006444Y-47388186D01*
X122102598Y-47568076D01*
X122231998Y-47725752D01*
X122389674Y-47855152D01*
X122569564Y-47951306D01*
X122764757Y-48010517D01*
X122764761Y-48010517D01*
X122764763Y-48010518D01*
X122967747Y-48030510D01*
X122967750Y-48030510D01*
X122967753Y-48030510D01*
X123170736Y-48010518D01*
X123170737Y-48010517D01*
X123170743Y-48010517D01*
X123365936Y-47951306D01*
X123545826Y-47855152D01*
X123703502Y-47725752D01*
X123832902Y-47568076D01*
X123929056Y-47388186D01*
X123988267Y-47192993D01*
X124000118Y-47072674D01*
X124008260Y-46990003D01*
X124008260Y-46989996D01*
X123988268Y-46787013D01*
X123988267Y-46787011D01*
X123988267Y-46787007D01*
X123929056Y-46591814D01*
X123929055Y-46591813D01*
X123927259Y-46585890D01*
X123928470Y-46585522D01*
X123920750Y-46546697D01*
X123920750Y-45211499D01*
X123940752Y-45143378D01*
X123994408Y-45096885D01*
X124046750Y-45085499D01*
X124301930Y-45085499D01*
X124303341Y-45085388D01*
X124313223Y-45085000D01*
X125584661Y-45085000D01*
X125594545Y-45085388D01*
X125594643Y-45085395D01*
X125595969Y-45085500D01*
X125851151Y-45085499D01*
X125919270Y-45105501D01*
X125965763Y-45159156D01*
X125977150Y-45211499D01*
X125977150Y-46546697D01*
X125969429Y-46585522D01*
X125970641Y-46585890D01*
X125909631Y-46787013D01*
X125889640Y-46989996D01*
X125889640Y-46990003D01*
X125909631Y-47192986D01*
X125909632Y-47192992D01*
X125909633Y-47192993D01*
X125968844Y-47388186D01*
X126064998Y-47568076D01*
X126194398Y-47725752D01*
X126352074Y-47855152D01*
X126531964Y-47951306D01*
X126727157Y-48010517D01*
X126727161Y-48010517D01*
X126727163Y-48010518D01*
X126930147Y-48030510D01*
X126930150Y-48030510D01*
X126930153Y-48030510D01*
X127133136Y-48010518D01*
X127133137Y-48010517D01*
X127133143Y-48010517D01*
X127328336Y-47951306D01*
X127508226Y-47855152D01*
X127665902Y-47725752D01*
X127795302Y-47568076D01*
X127891456Y-47388186D01*
X127950667Y-47192993D01*
X127962518Y-47072674D01*
X127970660Y-46990003D01*
X127970660Y-46989996D01*
X127950668Y-46787013D01*
X127950667Y-46787011D01*
X127950667Y-46787007D01*
X127891456Y-46591814D01*
X127891455Y-46591813D01*
X127889659Y-46585890D01*
X127890870Y-46585522D01*
X127883150Y-46546697D01*
X127883150Y-45211499D01*
X127903152Y-45143378D01*
X127956808Y-45096885D01*
X128009150Y-45085499D01*
X128264330Y-45085499D01*
X128265741Y-45085388D01*
X128275623Y-45085000D01*
X129547061Y-45085000D01*
X129556945Y-45085388D01*
X129557043Y-45085395D01*
X129558369Y-45085500D01*
X132226730Y-45085499D01*
X132228141Y-45085388D01*
X132238023Y-45085000D01*
X133509461Y-45085000D01*
X133519345Y-45085388D01*
X133519443Y-45085395D01*
X133520769Y-45085500D01*
X133775951Y-45085499D01*
X133844070Y-45105501D01*
X133890563Y-45159156D01*
X133901950Y-45211499D01*
X133901950Y-46131364D01*
X133938573Y-46315480D01*
X133938575Y-46315485D01*
X134012781Y-46494634D01*
X134011000Y-46495371D01*
X134023650Y-46556099D01*
X133998252Y-46622397D01*
X133941043Y-46664440D01*
X133898055Y-46672000D01*
X132938635Y-46672000D01*
X132754519Y-46708623D01*
X132754514Y-46708625D01*
X132581085Y-46780462D01*
X132424998Y-46884756D01*
X132424992Y-46884761D01*
X132292261Y-47017492D01*
X132292256Y-47017498D01*
X132187962Y-47173585D01*
X132116125Y-47347014D01*
X132116123Y-47347019D01*
X132079500Y-47531135D01*
X132079500Y-48769197D01*
X132071779Y-48808022D01*
X132072991Y-48808390D01*
X132011981Y-49009513D01*
X131991990Y-49212496D01*
X131991990Y-49212503D01*
X132011981Y-49415486D01*
X132071194Y-49610686D01*
X132159205Y-49775343D01*
X132167348Y-49790576D01*
X132296748Y-49948252D01*
X132454424Y-50077652D01*
X132634314Y-50173806D01*
X132829507Y-50233017D01*
X132829511Y-50233017D01*
X132829513Y-50233018D01*
X133032497Y-50253010D01*
X133032500Y-50253010D01*
X133032503Y-50253010D01*
X133235486Y-50233018D01*
X133235487Y-50233017D01*
X133235493Y-50233017D01*
X133430686Y-50173806D01*
X133610576Y-50077652D01*
X133768252Y-49948252D01*
X133897652Y-49790576D01*
X133993806Y-49610686D01*
X134018282Y-49530000D01*
X143909409Y-49530000D01*
X143914921Y-49596525D01*
X143929740Y-49775350D01*
X143990171Y-50013990D01*
X143990174Y-50013997D01*
X144089063Y-50239442D01*
X144223713Y-50445540D01*
X144390443Y-50626657D01*
X144390448Y-50626661D01*
X144390450Y-50626663D01*
X144584724Y-50777873D01*
X144801236Y-50895043D01*
X144801237Y-50895043D01*
X144801238Y-50895044D01*
X144923489Y-50937012D01*
X145034082Y-50974979D01*
X145150885Y-50994470D01*
X145214782Y-51025411D01*
X145251810Y-51085987D01*
X145250209Y-51156966D01*
X145210489Y-51215811D01*
X145150884Y-51243032D01*
X145049094Y-51260018D01*
X145049077Y-51260022D01*
X144816238Y-51339955D01*
X144816236Y-51339957D01*
X144599724Y-51457126D01*
X144599723Y-51457127D01*
X144405443Y-51608342D01*
X144238713Y-51789459D01*
X144104063Y-51995557D01*
X144005174Y-52221002D01*
X144005171Y-52221009D01*
X143944740Y-52459649D01*
X143944739Y-52459655D01*
X143944739Y-52459657D01*
X143924409Y-52705000D01*
X143935019Y-52833047D01*
X143944740Y-52950350D01*
X144005171Y-53188990D01*
X144005174Y-53188997D01*
X144104063Y-53414442D01*
X144238713Y-53620540D01*
X144405443Y-53801657D01*
X144405448Y-53801661D01*
X144405450Y-53801663D01*
X144599724Y-53952873D01*
X144816236Y-54070043D01*
X144816237Y-54070043D01*
X144816238Y-54070044D01*
X144938489Y-54112012D01*
X145049082Y-54149979D01*
X145291908Y-54190500D01*
X145291912Y-54190500D01*
X145538088Y-54190500D01*
X145538092Y-54190500D01*
X145780918Y-54149979D01*
X146013764Y-54070043D01*
X146230276Y-53952873D01*
X146424550Y-53801663D01*
X146425194Y-53800964D01*
X146591286Y-53620540D01*
X146631057Y-53559666D01*
X146655667Y-53521996D01*
X146709670Y-53475909D01*
X146780018Y-53466333D01*
X146844375Y-53496310D01*
X146866634Y-53521997D01*
X146879675Y-53541959D01*
X147032097Y-53707534D01*
X147209698Y-53845767D01*
X147209699Y-53845768D01*
X147407628Y-53952882D01*
X147407630Y-53952883D01*
X147620483Y-54025955D01*
X147620492Y-54025957D01*
X147701000Y-54039391D01*
X147701000Y-53135702D01*
X147762007Y-53170925D01*
X147889174Y-53205000D01*
X148020826Y-53205000D01*
X148147993Y-53170925D01*
X148209000Y-53135702D01*
X148209000Y-54039390D01*
X148289507Y-54025957D01*
X148289516Y-54025955D01*
X148502369Y-53952883D01*
X148502371Y-53952882D01*
X148700300Y-53845768D01*
X148700301Y-53845767D01*
X148877902Y-53707534D01*
X149030325Y-53541957D01*
X149043363Y-53522001D01*
X149097365Y-53475910D01*
X149167713Y-53466332D01*
X149232071Y-53496307D01*
X149254332Y-53521996D01*
X149318715Y-53620542D01*
X149485443Y-53801657D01*
X149485448Y-53801661D01*
X149485450Y-53801663D01*
X149679724Y-53952873D01*
X149896236Y-54070043D01*
X149896237Y-54070043D01*
X149896238Y-54070044D01*
X150018489Y-54112012D01*
X150129082Y-54149979D01*
X150371908Y-54190500D01*
X150371912Y-54190500D01*
X150618088Y-54190500D01*
X150618092Y-54190500D01*
X150860918Y-54149979D01*
X151093764Y-54070043D01*
X151310276Y-53952873D01*
X151504550Y-53801663D01*
X151505194Y-53800964D01*
X151671286Y-53620540D01*
X151711057Y-53559666D01*
X151735667Y-53521996D01*
X151789670Y-53475909D01*
X151860018Y-53466333D01*
X151924375Y-53496310D01*
X151946634Y-53521997D01*
X151959675Y-53541959D01*
X152112097Y-53707534D01*
X152289698Y-53845767D01*
X152289699Y-53845768D01*
X152487628Y-53952882D01*
X152487630Y-53952883D01*
X152700483Y-54025955D01*
X152700492Y-54025957D01*
X152781000Y-54039391D01*
X152781000Y-53135702D01*
X152842007Y-53170925D01*
X152969174Y-53205000D01*
X153100826Y-53205000D01*
X153227993Y-53170925D01*
X153289000Y-53135702D01*
X153289000Y-54039390D01*
X153369507Y-54025957D01*
X153369516Y-54025955D01*
X153582369Y-53952883D01*
X153582371Y-53952882D01*
X153780300Y-53845768D01*
X153780301Y-53845767D01*
X153957902Y-53707534D01*
X154110325Y-53541957D01*
X154123363Y-53522001D01*
X154177365Y-53475910D01*
X154247713Y-53466332D01*
X154312071Y-53496307D01*
X154334332Y-53521996D01*
X154398715Y-53620542D01*
X154565443Y-53801657D01*
X154565448Y-53801661D01*
X154565450Y-53801663D01*
X154738492Y-53936347D01*
X154779962Y-53993971D01*
X154787100Y-54035778D01*
X154787100Y-54645108D01*
X154767098Y-54713229D01*
X154758500Y-54725040D01*
X154709849Y-54784322D01*
X154709847Y-54784325D01*
X154613694Y-54964213D01*
X154554481Y-55159413D01*
X154534490Y-55362396D01*
X154534490Y-55362403D01*
X154554481Y-55565386D01*
X154613694Y-55760586D01*
X154655027Y-55837915D01*
X154709848Y-55940476D01*
X154839248Y-56098152D01*
X154996924Y-56227552D01*
X155176814Y-56323706D01*
X155372007Y-56382917D01*
X155372011Y-56382917D01*
X155372013Y-56382918D01*
X155574997Y-56402910D01*
X155575000Y-56402910D01*
X155575003Y-56402910D01*
X155777986Y-56382918D01*
X155777987Y-56382917D01*
X155777993Y-56382917D01*
X155973186Y-56323706D01*
X156153076Y-56227552D01*
X156310752Y-56098152D01*
X156440152Y-55940476D01*
X156536306Y-55760586D01*
X156595517Y-55565393D01*
X156605509Y-55463950D01*
X156615510Y-55362403D01*
X156615510Y-55362396D01*
X156595518Y-55159413D01*
X156595517Y-55159411D01*
X156595517Y-55159407D01*
X156536306Y-54964214D01*
X156440152Y-54784324D01*
X156420268Y-54760095D01*
X156391500Y-54725040D01*
X156363747Y-54659693D01*
X156362900Y-54645108D01*
X156362900Y-54035778D01*
X156382902Y-53967657D01*
X156411506Y-53936348D01*
X156584550Y-53801663D01*
X156610110Y-53773898D01*
X156670962Y-53737326D01*
X156741927Y-53739459D01*
X156800473Y-53779620D01*
X156813399Y-53798848D01*
X156814553Y-53800961D01*
X156902095Y-53917904D01*
X157019034Y-54005444D01*
X157155906Y-54056494D01*
X157216402Y-54062999D01*
X157216415Y-54063000D01*
X157861000Y-54063000D01*
X157861000Y-53135702D01*
X157922007Y-53170925D01*
X158049174Y-53205000D01*
X158180826Y-53205000D01*
X158307993Y-53170925D01*
X158369000Y-53135702D01*
X158369000Y-54063000D01*
X159013585Y-54063000D01*
X159013597Y-54062999D01*
X159074093Y-54056494D01*
X159210964Y-54005444D01*
X159210965Y-54005444D01*
X159327904Y-53917904D01*
X159415444Y-53800965D01*
X159415444Y-53800964D01*
X159466494Y-53664093D01*
X159472999Y-53603597D01*
X159473000Y-53603585D01*
X159473000Y-52959000D01*
X158545703Y-52959000D01*
X158580925Y-52897993D01*
X158615000Y-52770826D01*
X158615000Y-52639174D01*
X158580925Y-52512007D01*
X158545703Y-52451000D01*
X159473000Y-52451000D01*
X159473000Y-51806414D01*
X159472999Y-51806402D01*
X159466494Y-51745906D01*
X159415444Y-51609035D01*
X159415444Y-51609034D01*
X159327904Y-51492095D01*
X159210965Y-51404555D01*
X159074093Y-51353505D01*
X159013597Y-51347000D01*
X158369000Y-51347000D01*
X158369000Y-52274297D01*
X158307993Y-52239075D01*
X158180826Y-52205000D01*
X158049174Y-52205000D01*
X157922007Y-52239075D01*
X157861000Y-52274297D01*
X157861000Y-51347000D01*
X157216402Y-51347000D01*
X157155906Y-51353505D01*
X157019035Y-51404555D01*
X157019034Y-51404555D01*
X156902095Y-51492095D01*
X156814552Y-51609039D01*
X156813397Y-51611155D01*
X156811693Y-51612858D01*
X156809153Y-51616252D01*
X156808664Y-51615886D01*
X156763192Y-51661355D01*
X156693818Y-51676444D01*
X156627299Y-51651630D01*
X156610111Y-51636103D01*
X156584553Y-51608339D01*
X156390276Y-51457127D01*
X156390275Y-51457126D01*
X156255228Y-51384043D01*
X156173764Y-51339957D01*
X156173762Y-51339956D01*
X156173761Y-51339955D01*
X155940922Y-51260022D01*
X155940915Y-51260020D01*
X155824110Y-51240529D01*
X155698092Y-51219500D01*
X155451908Y-51219500D01*
X155330385Y-51239778D01*
X155209084Y-51260020D01*
X155209077Y-51260022D01*
X154976238Y-51339955D01*
X154976236Y-51339957D01*
X154759724Y-51457126D01*
X154759723Y-51457127D01*
X154565443Y-51608342D01*
X154398715Y-51789457D01*
X154334332Y-51888003D01*
X154280328Y-51934091D01*
X154209980Y-51943666D01*
X154145623Y-51913688D01*
X154123365Y-51888000D01*
X154110328Y-51868045D01*
X153957902Y-51702465D01*
X153780301Y-51564232D01*
X153780300Y-51564231D01*
X153582371Y-51457117D01*
X153582369Y-51457116D01*
X153369512Y-51384043D01*
X153369501Y-51384040D01*
X153289000Y-51370606D01*
X153289000Y-52274297D01*
X153227993Y-52239075D01*
X153100826Y-52205000D01*
X152969174Y-52205000D01*
X152842007Y-52239075D01*
X152781000Y-52274297D01*
X152781000Y-51370607D01*
X152780999Y-51370606D01*
X152700498Y-51384040D01*
X152700487Y-51384043D01*
X152487630Y-51457116D01*
X152487628Y-51457117D01*
X152289699Y-51564231D01*
X152289698Y-51564232D01*
X152112097Y-51702465D01*
X151959670Y-51868045D01*
X151946632Y-51888003D01*
X151892628Y-51934091D01*
X151822280Y-51943666D01*
X151757923Y-51913688D01*
X151735667Y-51888002D01*
X151671286Y-51789459D01*
X151504556Y-51608342D01*
X151447882Y-51564231D01*
X151310276Y-51457127D01*
X151310275Y-51457126D01*
X151175228Y-51384043D01*
X151093764Y-51339957D01*
X151093762Y-51339956D01*
X151093761Y-51339955D01*
X150862814Y-51260672D01*
X150804879Y-51219635D01*
X150778327Y-51153790D01*
X150791588Y-51084043D01*
X150840453Y-51032538D01*
X150903725Y-51015499D01*
X151394180Y-51015499D01*
X151430204Y-51012665D01*
X151584393Y-50967869D01*
X151722598Y-50886135D01*
X151836135Y-50772598D01*
X151917869Y-50634393D01*
X151962665Y-50480204D01*
X151965500Y-50444181D01*
X151965499Y-49212493D01*
X162094511Y-49212493D01*
X162094511Y-49212506D01*
X162114452Y-49593026D01*
X162174064Y-49969400D01*
X162272686Y-50337464D01*
X162272690Y-50337477D01*
X162409243Y-50693210D01*
X162409247Y-50693218D01*
X162409248Y-50693220D01*
X162582244Y-51032745D01*
X162789783Y-51352326D01*
X162789788Y-51352332D01*
X162789790Y-51352335D01*
X163029585Y-51648458D01*
X163029599Y-51648474D01*
X163299025Y-51917900D01*
X163299033Y-51917907D01*
X163299037Y-51917911D01*
X163595174Y-52157717D01*
X163914755Y-52365256D01*
X164254280Y-52538252D01*
X164254284Y-52538253D01*
X164254289Y-52538256D01*
X164517190Y-52639174D01*
X164610027Y-52674811D01*
X164978100Y-52773436D01*
X165354465Y-52833046D01*
X165354467Y-52833046D01*
X165354473Y-52833047D01*
X165734994Y-52852989D01*
X165735000Y-52852989D01*
X165735006Y-52852989D01*
X166115526Y-52833047D01*
X166115530Y-52833046D01*
X166115535Y-52833046D01*
X166491900Y-52773436D01*
X166859973Y-52674811D01*
X167206618Y-52541746D01*
X167215710Y-52538256D01*
X167215711Y-52538255D01*
X167215720Y-52538252D01*
X167555245Y-52365256D01*
X167874826Y-52157717D01*
X168170963Y-51917911D01*
X168440411Y-51648463D01*
X168680217Y-51352326D01*
X168887756Y-51032745D01*
X169060752Y-50693220D01*
X169070555Y-50667684D01*
X169156349Y-50444181D01*
X169197311Y-50337473D01*
X169295936Y-49969400D01*
X169355546Y-49593035D01*
X169355546Y-49593030D01*
X169355547Y-49593026D01*
X169375489Y-49212506D01*
X169375489Y-49212493D01*
X169355547Y-48831973D01*
X169351297Y-48805138D01*
X169295936Y-48455600D01*
X169197311Y-48087527D01*
X169156506Y-47981227D01*
X169060756Y-47731789D01*
X169060752Y-47731781D01*
X169060752Y-47731780D01*
X168887756Y-47392256D01*
X168745749Y-47173585D01*
X168680222Y-47072681D01*
X168680210Y-47072664D01*
X168440414Y-46776541D01*
X168440411Y-46776537D01*
X168440407Y-46776533D01*
X168440400Y-46776525D01*
X168170974Y-46507099D01*
X168170958Y-46507085D01*
X167874835Y-46267290D01*
X167874832Y-46267288D01*
X167874826Y-46267283D01*
X167555245Y-46059744D01*
X167215720Y-45886748D01*
X167215719Y-45886747D01*
X167215718Y-45886747D01*
X167215710Y-45886743D01*
X166859977Y-45750190D01*
X166859964Y-45750186D01*
X166491900Y-45651564D01*
X166115526Y-45591952D01*
X165735006Y-45572011D01*
X165734994Y-45572011D01*
X165354473Y-45591952D01*
X164978099Y-45651564D01*
X164610035Y-45750186D01*
X164610022Y-45750190D01*
X164254289Y-45886743D01*
X164254281Y-45886747D01*
X163914765Y-46059739D01*
X163914759Y-46059742D01*
X163595181Y-46267277D01*
X163595164Y-46267289D01*
X163299041Y-46507085D01*
X163299025Y-46507099D01*
X163029599Y-46776525D01*
X163029585Y-46776541D01*
X162789789Y-47072664D01*
X162789777Y-47072681D01*
X162582242Y-47392259D01*
X162582239Y-47392265D01*
X162409247Y-47731781D01*
X162409243Y-47731789D01*
X162272690Y-48087522D01*
X162272686Y-48087535D01*
X162174064Y-48455599D01*
X162114452Y-48831973D01*
X162094511Y-49212493D01*
X151965499Y-49212493D01*
X151965499Y-48615820D01*
X151962665Y-48579796D01*
X151917869Y-48425607D01*
X151836135Y-48287402D01*
X151836133Y-48287400D01*
X151836130Y-48287396D01*
X151722603Y-48173869D01*
X151722599Y-48173866D01*
X151722598Y-48173865D01*
X151584393Y-48092131D01*
X151507298Y-48069733D01*
X151430202Y-48047334D01*
X151394189Y-48044500D01*
X149565820Y-48044500D01*
X149529797Y-48047334D01*
X149400083Y-48085020D01*
X149379442Y-48091017D01*
X149375604Y-48092132D01*
X149237400Y-48173866D01*
X149237396Y-48173869D01*
X149123869Y-48287396D01*
X149123866Y-48287400D01*
X149082690Y-48357024D01*
X149030796Y-48405476D01*
X148960946Y-48418181D01*
X148896846Y-48392316D01*
X148893779Y-48389929D01*
X148755276Y-48282127D01*
X148755275Y-48282126D01*
X148557691Y-48175200D01*
X148538764Y-48164957D01*
X148538762Y-48164956D01*
X148538761Y-48164955D01*
X148305922Y-48085022D01*
X148305915Y-48085020D01*
X148201993Y-48067678D01*
X148063092Y-48044500D01*
X147816908Y-48044500D01*
X147695385Y-48064778D01*
X147574084Y-48085020D01*
X147574077Y-48085022D01*
X147341238Y-48164955D01*
X147341236Y-48164957D01*
X147124724Y-48282126D01*
X147124723Y-48282127D01*
X146930446Y-48433340D01*
X146762701Y-48615559D01*
X146701848Y-48652130D01*
X146630883Y-48649995D01*
X146577299Y-48615559D01*
X146409553Y-48433340D01*
X146409552Y-48433339D01*
X146409550Y-48433337D01*
X146215276Y-48282127D01*
X146215275Y-48282126D01*
X146017691Y-48175200D01*
X145998764Y-48164957D01*
X145998762Y-48164956D01*
X145998761Y-48164955D01*
X145765922Y-48085022D01*
X145765915Y-48085020D01*
X145661993Y-48067678D01*
X145523092Y-48044500D01*
X145276908Y-48044500D01*
X145155385Y-48064778D01*
X145034084Y-48085020D01*
X145034077Y-48085022D01*
X144801238Y-48164955D01*
X144801236Y-48164957D01*
X144584724Y-48282126D01*
X144584723Y-48282127D01*
X144390443Y-48433342D01*
X144223713Y-48614459D01*
X144089063Y-48820557D01*
X143990174Y-49046002D01*
X143990171Y-49046009D01*
X143929740Y-49284649D01*
X143929739Y-49284655D01*
X143929739Y-49284657D01*
X143909409Y-49530000D01*
X134018282Y-49530000D01*
X134053017Y-49415493D01*
X134072667Y-49215990D01*
X134073010Y-49212503D01*
X134073010Y-49212496D01*
X134053018Y-49009513D01*
X134053017Y-49009511D01*
X134053017Y-49009507D01*
X133993806Y-48814314D01*
X133993805Y-48814313D01*
X133992009Y-48808390D01*
X133993220Y-48808022D01*
X133985500Y-48769197D01*
X133985500Y-48704000D01*
X134005502Y-48635879D01*
X134059158Y-48589386D01*
X134111500Y-48578000D01*
X138911211Y-48578000D01*
X138911212Y-48578000D01*
X139095330Y-48541377D01*
X139268765Y-48469538D01*
X139424852Y-48365243D01*
X139557593Y-48232502D01*
X139661888Y-48076415D01*
X139733727Y-47902980D01*
X139770350Y-47718862D01*
X139770350Y-45211499D01*
X139790352Y-45143378D01*
X139844008Y-45096885D01*
X139896350Y-45085499D01*
X140151530Y-45085499D01*
X140152941Y-45085388D01*
X140162823Y-45085000D01*
X141434261Y-45085000D01*
X141444145Y-45085388D01*
X141444243Y-45085395D01*
X141445569Y-45085500D01*
X141700751Y-45085499D01*
X141768870Y-45105501D01*
X141815363Y-45159156D01*
X141826750Y-45211499D01*
X141826750Y-45594197D01*
X141819029Y-45633022D01*
X141820241Y-45633390D01*
X141759231Y-45834513D01*
X141739240Y-46037496D01*
X141739240Y-46037503D01*
X141759231Y-46240486D01*
X141759232Y-46240492D01*
X141759233Y-46240493D01*
X141775760Y-46294974D01*
X141818444Y-46435686D01*
X141901896Y-46591814D01*
X141914598Y-46615576D01*
X142043998Y-46773252D01*
X142201674Y-46902652D01*
X142381564Y-46998806D01*
X142576757Y-47058017D01*
X142576761Y-47058017D01*
X142576763Y-47058018D01*
X142779747Y-47078010D01*
X142779750Y-47078010D01*
X142779753Y-47078010D01*
X142982736Y-47058018D01*
X142982737Y-47058017D01*
X142982743Y-47058017D01*
X143177936Y-46998806D01*
X143357826Y-46902652D01*
X143515502Y-46773252D01*
X143644902Y-46615576D01*
X143741056Y-46435686D01*
X143800267Y-46240493D01*
X143805897Y-46183336D01*
X143820260Y-46037503D01*
X143820260Y-46037496D01*
X143800268Y-45834513D01*
X143800267Y-45834511D01*
X143800267Y-45834507D01*
X143741056Y-45639314D01*
X143741055Y-45639313D01*
X143739259Y-45633390D01*
X143740470Y-45633022D01*
X143732750Y-45594197D01*
X143732750Y-45211499D01*
X143752752Y-45143378D01*
X143806408Y-45096885D01*
X143858750Y-45085499D01*
X144113930Y-45085499D01*
X144115341Y-45085388D01*
X144125223Y-45085000D01*
X145396661Y-45085000D01*
X145406545Y-45085388D01*
X145406643Y-45085395D01*
X145407969Y-45085500D01*
X145663151Y-45085499D01*
X145731270Y-45105501D01*
X145777763Y-45159156D01*
X145789150Y-45211499D01*
X145789150Y-45594197D01*
X145781429Y-45633022D01*
X145782641Y-45633390D01*
X145721631Y-45834513D01*
X145701640Y-46037496D01*
X145701640Y-46037503D01*
X145721631Y-46240486D01*
X145721632Y-46240492D01*
X145721633Y-46240493D01*
X145738160Y-46294974D01*
X145780844Y-46435686D01*
X145864296Y-46591814D01*
X145876998Y-46615576D01*
X146006398Y-46773252D01*
X146164074Y-46902652D01*
X146343964Y-46998806D01*
X146539157Y-47058017D01*
X146539161Y-47058017D01*
X146539163Y-47058018D01*
X146742147Y-47078010D01*
X146742150Y-47078010D01*
X146742153Y-47078010D01*
X146945136Y-47058018D01*
X146945137Y-47058017D01*
X146945143Y-47058017D01*
X147140336Y-46998806D01*
X147320226Y-46902652D01*
X147477902Y-46773252D01*
X147607302Y-46615576D01*
X147703456Y-46435686D01*
X147762667Y-46240493D01*
X147768297Y-46183336D01*
X147782660Y-46037503D01*
X147782660Y-46037496D01*
X147762668Y-45834513D01*
X147762667Y-45834511D01*
X147762667Y-45834507D01*
X147703456Y-45639314D01*
X147703455Y-45639313D01*
X147701659Y-45633390D01*
X147702870Y-45633022D01*
X147695150Y-45594197D01*
X147695150Y-45211499D01*
X147715152Y-45143378D01*
X147768808Y-45096885D01*
X147821150Y-45085499D01*
X148076330Y-45085499D01*
X148077741Y-45085388D01*
X148087623Y-45085000D01*
X154495500Y-45085000D01*
X154495500Y-44601500D01*
X154515502Y-44533379D01*
X154569158Y-44486886D01*
X154621500Y-44475500D01*
X165726715Y-44475500D01*
X165732252Y-44475500D01*
X165737748Y-44475620D01*
G37*
%TD.AperFunction*%
%TD*%
M02*
