%TF.GenerationSoftware,KiCad,Pcbnew,(6.0.0)*%
%TF.CreationDate,2023-01-29T22:37:32-05:00*%
%TF.ProjectId,TRS-80-M3-VID1,5452532d-3830-42d4-9d33-2d564944312e,rev?*%
%TF.SameCoordinates,Original*%
%TF.FileFunction,Copper,L1,Top*%
%TF.FilePolarity,Positive*%
%FSLAX46Y46*%
G04 Gerber Fmt 4.6, Leading zero omitted, Abs format (unit mm)*
G04 Created by KiCad (PCBNEW (6.0.0)) date 2023-01-29 22:37:32*
%MOMM*%
%LPD*%
G01*
G04 APERTURE LIST*
G04 Aperture macros list*
%AMRoundRect*
0 Rectangle with rounded corners*
0 $1 Rounding radius*
0 $2 $3 $4 $5 $6 $7 $8 $9 X,Y pos of 4 corners*
0 Add a 4 corners polygon primitive as box body*
4,1,4,$2,$3,$4,$5,$6,$7,$8,$9,$2,$3,0*
0 Add four circle primitives for the rounded corners*
1,1,$1+$1,$2,$3*
1,1,$1+$1,$4,$5*
1,1,$1+$1,$6,$7*
1,1,$1+$1,$8,$9*
0 Add four rect primitives between the rounded corners*
20,1,$1+$1,$2,$3,$4,$5,0*
20,1,$1+$1,$4,$5,$6,$7,0*
20,1,$1+$1,$6,$7,$8,$9,0*
20,1,$1+$1,$8,$9,$2,$3,0*%
G04 Aperture macros list end*
%TA.AperFunction,SMDPad,CuDef*%
%ADD10RoundRect,0.250000X-0.650000X0.412500X-0.650000X-0.412500X0.650000X-0.412500X0.650000X0.412500X0*%
%TD*%
%TA.AperFunction,SMDPad,CuDef*%
%ADD11RoundRect,0.250000X0.350000X0.450000X-0.350000X0.450000X-0.350000X-0.450000X0.350000X-0.450000X0*%
%TD*%
%TA.AperFunction,SMDPad,CuDef*%
%ADD12RoundRect,0.150000X-0.150000X0.825000X-0.150000X-0.825000X0.150000X-0.825000X0.150000X0.825000X0*%
%TD*%
%TA.AperFunction,SMDPad,CuDef*%
%ADD13RoundRect,0.250000X-0.450000X0.350000X-0.450000X-0.350000X0.450000X-0.350000X0.450000X0.350000X0*%
%TD*%
%TA.AperFunction,SMDPad,CuDef*%
%ADD14RoundRect,0.250000X0.650000X-0.412500X0.650000X0.412500X-0.650000X0.412500X-0.650000X-0.412500X0*%
%TD*%
%TA.AperFunction,ComponentPad*%
%ADD15C,5.001260*%
%TD*%
%TA.AperFunction,ComponentPad*%
%ADD16C,1.198880*%
%TD*%
%TA.AperFunction,ComponentPad*%
%ADD17C,0.800000*%
%TD*%
%TA.AperFunction,ComponentPad*%
%ADD18C,6.000000*%
%TD*%
%TA.AperFunction,SMDPad,CuDef*%
%ADD19RoundRect,0.250000X-0.475000X0.337500X-0.475000X-0.337500X0.475000X-0.337500X0.475000X0.337500X0*%
%TD*%
%TA.AperFunction,SMDPad,CuDef*%
%ADD20RoundRect,0.250000X0.450000X-0.350000X0.450000X0.350000X-0.450000X0.350000X-0.450000X-0.350000X0*%
%TD*%
%TA.AperFunction,ComponentPad*%
%ADD21R,1.700000X1.700000*%
%TD*%
%TA.AperFunction,ComponentPad*%
%ADD22O,1.700000X1.700000*%
%TD*%
%TA.AperFunction,ComponentPad*%
%ADD23C,6.350000*%
%TD*%
%TA.AperFunction,ComponentPad*%
%ADD24O,3.048000X1.524000*%
%TD*%
%TA.AperFunction,ComponentPad*%
%ADD25O,1.200000X2.000000*%
%TD*%
%TA.AperFunction,ViaPad*%
%ADD26C,0.800000*%
%TD*%
%TA.AperFunction,Conductor*%
%ADD27C,0.635000*%
%TD*%
%TA.AperFunction,Conductor*%
%ADD28C,0.304800*%
%TD*%
%TA.AperFunction,Conductor*%
%ADD29C,0.381000*%
%TD*%
G04 APERTURE END LIST*
D10*
%TO.P,C3,1*%
%TO.N,+5V*%
X130810000Y-52755000D03*
%TO.P,C3,2*%
%TO.N,GND*%
X130810000Y-55880000D03*
%TD*%
D11*
%TO.P,R9,1*%
%TO.N,Net-(R8-Pad1)*%
X146415000Y-48577500D03*
%TO.P,R9,2*%
%TO.N,VIDEO2*%
X144415000Y-48577500D03*
%TD*%
D12*
%TO.P,U2,1*%
%TO.N,GND*%
X155575000Y-57565000D03*
%TO.P,U2,2*%
X154305000Y-57565000D03*
%TO.P,U2,3*%
%TO.N,unconnected-(U2-Pad3)*%
X153035000Y-57565000D03*
%TO.P,U2,4*%
%TO.N,GND*%
X151765000Y-57565000D03*
%TO.P,U2,5*%
%TO.N,HSYNC*%
X150495000Y-57565000D03*
%TO.P,U2,6*%
%TO.N,HSYNCX*%
X149225000Y-57565000D03*
%TO.P,U2,7,GND*%
%TO.N,GND*%
X147955000Y-57565000D03*
%TO.P,U2,8*%
%TO.N,VIDEOX*%
X147955000Y-62515000D03*
%TO.P,U2,9*%
%TO.N,Net-(R8-Pad1)*%
X149225000Y-62515000D03*
%TO.P,U2,10*%
%TO.N,GND*%
X150495000Y-62515000D03*
%TO.P,U2,11*%
%TO.N,VSYNCX*%
X151765000Y-62515000D03*
%TO.P,U2,12*%
%TO.N,VSYNC*%
X153035000Y-62515000D03*
%TO.P,U2,13*%
%TO.N,GND*%
X154305000Y-62515000D03*
%TO.P,U2,14,VCC*%
%TO.N,+3V3*%
X155575000Y-62515000D03*
%TD*%
D13*
%TO.P,R5,1*%
%TO.N,VGA_HSYNC*%
X118427500Y-100330000D03*
%TO.P,R5,2*%
%TO.N,Net-(J2-Pad13)*%
X118427500Y-102330000D03*
%TD*%
D14*
%TO.P,C4,1*%
%TO.N,WIPER*%
X137795000Y-57157500D03*
%TO.P,C4,2*%
%TO.N,GND*%
X137795000Y-54032500D03*
%TD*%
D15*
%TO.P,J2,0,Case*%
%TO.N,GND*%
X114188240Y-110876080D03*
X139176760Y-110876080D03*
D16*
%TO.P,J2,1*%
%TO.N,Net-(J2-Pad1)*%
X130992880Y-109157100D03*
%TO.P,J2,2*%
%TO.N,Net-(J2-Pad2)*%
X128701800Y-109157100D03*
%TO.P,J2,3*%
%TO.N,Net-(J2-Pad3)*%
X126415800Y-109157100D03*
%TO.P,J2,4*%
%TO.N,unconnected-(J2-Pad4)*%
X124122180Y-109157100D03*
%TO.P,J2,5*%
%TO.N,GND*%
X121833640Y-109157100D03*
%TO.P,J2,6*%
X132138420Y-110921800D03*
%TO.P,J2,7*%
X129844800Y-110921800D03*
%TO.P,J2,8*%
X127546100Y-110921800D03*
%TO.P,J2,9*%
%TO.N,unconnected-(J2-Pad9)*%
X125247400Y-110921800D03*
%TO.P,J2,10*%
%TO.N,GND*%
X122974100Y-110921800D03*
%TO.P,J2,11*%
%TO.N,unconnected-(J2-Pad11)*%
X130992880Y-112713100D03*
%TO.P,J2,12*%
%TO.N,unconnected-(J2-Pad12)*%
X128701800Y-112713100D03*
%TO.P,J2,13*%
%TO.N,Net-(J2-Pad13)*%
X126413260Y-112713100D03*
%TO.P,J2,14*%
%TO.N,Net-(J2-Pad14)*%
X124122180Y-112713100D03*
%TO.P,J2,15*%
%TO.N,unconnected-(J2-Pad15)*%
X121831100Y-112713100D03*
%TD*%
D17*
%TO.P,H3,1*%
%TO.N,N/C*%
X165735000Y-107605000D03*
X164144010Y-111445990D03*
X165735000Y-112105000D03*
X164144010Y-108264010D03*
D18*
X165735000Y-109855000D03*
D17*
X167325990Y-111445990D03*
X167985000Y-109855000D03*
X163485000Y-109855000D03*
X167325990Y-108264010D03*
%TD*%
D19*
%TO.P,C2,1*%
%TO.N,GND*%
X159385000Y-60472500D03*
%TO.P,C2,2*%
%TO.N,+3V3*%
X159385000Y-62547500D03*
%TD*%
D20*
%TO.P,R7,1*%
%TO.N,Net-(R7-Pad1)*%
X137795000Y-61675000D03*
%TO.P,R7,2*%
%TO.N,WIPER*%
X137795000Y-59675000D03*
%TD*%
D13*
%TO.P,R3,1*%
%TO.N,VGA_BLUE*%
X125095000Y-100282500D03*
%TO.P,R3,2*%
%TO.N,Net-(J2-Pad3)*%
X125095000Y-102282500D03*
%TD*%
D21*
%TO.P,J3,1,Pin_1*%
%TO.N,GND*%
X161925000Y-100950010D03*
D22*
%TO.P,J3,2,Pin_2*%
%TO.N,Net-(J3-Pad2)*%
X161925000Y-98410010D03*
%TD*%
D11*
%TO.P,R8,1*%
%TO.N,Net-(R8-Pad1)*%
X151542500Y-48577500D03*
%TO.P,R8,2*%
%TO.N,VIDEO*%
X149542500Y-48577500D03*
%TD*%
D21*
%TO.P,J4,1,Pin_1*%
%TO.N,GND*%
X156830000Y-100965010D03*
D22*
%TO.P,J4,2,Pin_2*%
%TO.N,Net-(J4-Pad2)*%
X156830000Y-98425010D03*
%TO.P,J4,3,Pin_3*%
%TO.N,GND*%
X154290000Y-100965010D03*
%TO.P,J4,4,Pin_4*%
%TO.N,Net-(J4-Pad4)*%
X154290000Y-98425010D03*
%TO.P,J4,5,Pin_5*%
%TO.N,GND*%
X151750000Y-100965010D03*
%TO.P,J4,6,Pin_6*%
%TO.N,Net-(J4-Pad6)*%
X151750000Y-98425010D03*
%TO.P,J4,7,Pin_7*%
%TO.N,GND*%
X149210000Y-100965010D03*
%TO.P,J4,8,Pin_8*%
%TO.N,Net-(J4-Pad8)*%
X149210000Y-98425010D03*
%TO.P,J4,9,Pin_9*%
%TO.N,GND*%
X146670000Y-100965010D03*
%TO.P,J4,10,Pin_10*%
%TO.N,Net-(J4-Pad10)*%
X146670000Y-98425010D03*
%TO.P,J4,11,Pin_11*%
%TO.N,GND*%
X144130000Y-100965010D03*
%TO.P,J4,12,Pin_12*%
%TO.N,Net-(J4-Pad12)*%
X144130000Y-98425010D03*
%TO.P,J4,13,Pin_13*%
%TO.N,GND*%
X141590000Y-100965010D03*
%TO.P,J4,14,Pin_14*%
%TO.N,Net-(J4-Pad14)*%
X141590000Y-98425010D03*
%TO.P,J4,15,Pin_15*%
%TO.N,GND*%
X139050000Y-100965010D03*
%TO.P,J4,16,Pin_16*%
%TO.N,Net-(J4-Pad16)*%
X139050000Y-98425010D03*
%TD*%
D17*
%TO.P,H1,1*%
%TO.N,N/C*%
X102265990Y-49215990D03*
X101606980Y-50806980D03*
X100015990Y-46965990D03*
X98425000Y-50806980D03*
X97765990Y-49215990D03*
X98425000Y-47625000D03*
X101606980Y-47625000D03*
X100015990Y-51465990D03*
D18*
X100015990Y-49215990D03*
%TD*%
D13*
%TO.P,R2,1*%
%TO.N,VGA_GREEN*%
X127952500Y-100282500D03*
%TO.P,R2,2*%
%TO.N,Net-(J2-Pad2)*%
X127952500Y-102282500D03*
%TD*%
D14*
%TO.P,C1,1*%
%TO.N,+12V*%
X130810000Y-61887500D03*
%TO.P,C1,2*%
%TO.N,GND*%
X130810000Y-58762500D03*
%TD*%
D20*
%TO.P,R6,1*%
%TO.N,Net-(R6-Pad1)*%
X141605000Y-61675000D03*
%TO.P,R6,2*%
%TO.N,POT*%
X141605000Y-59675000D03*
%TD*%
D17*
%TO.P,H2,1*%
%TO.N,N/C*%
X101603490Y-111445990D03*
D18*
X100012500Y-109855000D03*
D17*
X100012500Y-112105000D03*
X101603490Y-108264010D03*
X100012500Y-107605000D03*
X102262500Y-109855000D03*
X97762500Y-109855000D03*
X98421510Y-111445990D03*
X98421510Y-108264010D03*
%TD*%
D13*
%TO.P,R1,1*%
%TO.N,VGA_RED*%
X130810000Y-100282500D03*
%TO.P,R1,2*%
%TO.N,Net-(J2-Pad1)*%
X130810000Y-102282500D03*
%TD*%
D23*
%TO.P,U3,*%
%TO.N,*%
X109728000Y-57467500D03*
D24*
%TO.P,U3,GND*%
%TO.N,GND*%
X124714000Y-57467500D03*
%TO.P,U3,IN*%
%TO.N,+12V*%
X124714000Y-60007500D03*
%TO.P,U3,OUT*%
%TO.N,+5V*%
X124714000Y-54927500D03*
%TD*%
D17*
%TO.P,H4,1*%
%TO.N,N/C*%
X164144010Y-50803490D03*
X167325990Y-47621510D03*
X164144010Y-47621510D03*
X165735000Y-46962500D03*
D18*
X165735000Y-49212500D03*
D17*
X163485000Y-49212500D03*
X165735000Y-51462500D03*
X167985000Y-49212500D03*
X167325990Y-50803490D03*
%TD*%
D21*
%TO.P,J6,1,Pin_1*%
%TO.N,GND*%
X158115000Y-52070000D03*
D22*
%TO.P,J6,2,Pin_2*%
%TO.N,Net-(R8-Pad1)*%
X155575000Y-52070000D03*
%TO.P,J6,3,Pin_3*%
%TO.N,GND*%
X153035000Y-52070000D03*
%TO.P,J6,4,Pin_4*%
%TO.N,VSYNC*%
X150495000Y-52070000D03*
%TO.P,J6,5,Pin_5*%
%TO.N,GND*%
X147955000Y-52070000D03*
%TO.P,J6,6,Pin_6*%
%TO.N,HSYNC*%
X145415000Y-52070000D03*
%TD*%
D13*
%TO.P,R4,1*%
%TO.N,VGA_VSYNC*%
X121285000Y-100282500D03*
%TO.P,R4,2*%
%TO.N,Net-(J2-Pad14)*%
X121285000Y-102282500D03*
%TD*%
D21*
%TO.P,J5,1,Pin_1*%
%TO.N,+5V*%
X102235000Y-60002500D03*
D22*
%TO.P,J5,2,Pin_2*%
%TO.N,Net-(J5-Pad2)*%
X102235000Y-62542500D03*
%TD*%
D25*
%TO.P,U1,1,Pad_38*%
%TO.N,unconnected-(U1-Pad1)*%
X161925000Y-68877500D03*
%TO.P,U1,2,Pad_37*%
%TO.N,unconnected-(U1-Pad2)*%
X159385000Y-68877500D03*
%TO.P,U1,3,Pad_36*%
%TO.N,unconnected-(U1-Pad3)*%
X156845000Y-68877500D03*
%TO.P,U1,4,Pad_39*%
%TO.N,unconnected-(U1-Pad4)*%
X154305000Y-68877500D03*
%TO.P,U1,5,Pad_25*%
%TO.N,VSYNCX*%
X151765000Y-68877500D03*
%TO.P,U1,6,Pad_26*%
%TO.N,VIDEOX*%
X149225000Y-68877500D03*
%TO.P,U1,7,Pad_27*%
%TO.N,HSYNCX*%
X146685000Y-68877500D03*
%TO.P,U1,8,Pad_28*%
%TO.N,unconnected-(U1-Pad8)*%
X144145000Y-68877500D03*
%TO.P,U1,9,Pad_29*%
%TO.N,Net-(R6-Pad1)*%
X141605000Y-68877500D03*
%TO.P,U1,10,Pad_30*%
%TO.N,Net-(R7-Pad1)*%
X139065000Y-68877500D03*
%TO.P,U1,11,Pad_33*%
%TO.N,unconnected-(U1-Pad11)*%
X136525000Y-68877500D03*
%TO.P,U1,12,Pad_34*%
%TO.N,unconnected-(U1-Pad12)*%
X133985000Y-68877500D03*
%TO.P,U1,13,Pad_40*%
%TO.N,unconnected-(U1-Pad13)*%
X131445000Y-68877500D03*
%TO.P,U1,14,Pad_35*%
%TO.N,unconnected-(U1-Pad14)*%
X128905000Y-68877500D03*
%TO.P,U1,15,Pad_41*%
%TO.N,unconnected-(U1-Pad15)*%
X126365000Y-68877500D03*
%TO.P,U1,16,Pad_42*%
%TO.N,unconnected-(U1-Pad16)*%
X123825000Y-68877500D03*
%TO.P,U1,17,Pad_51*%
%TO.N,unconnected-(U1-Pad17)*%
X121285000Y-68877500D03*
%TO.P,U1,18,Pad_53*%
%TO.N,unconnected-(U1-Pad18)*%
X118745000Y-68877500D03*
%TO.P,U1,19,Pad_54*%
%TO.N,unconnected-(U1-Pad19)*%
X116205000Y-68877500D03*
%TO.P,U1,20,Pad_55*%
%TO.N,unconnected-(U1-Pad20)*%
X113665000Y-68877500D03*
%TO.P,U1,21,Pad_56*%
%TO.N,unconnected-(U1-Pad21)*%
X111125000Y-68877500D03*
%TO.P,U1,22,Pad_57*%
%TO.N,VGA_VSYNC*%
X108585000Y-68877500D03*
%TO.P,U1,23,Pad_68*%
%TO.N,unconnected-(U1-Pad23)*%
X106045000Y-68877500D03*
%TO.P,U1,24,Pad_69*%
%TO.N,unconnected-(U1-Pad24)*%
X103505000Y-68877500D03*
%TO.P,U1,25,3V3*%
%TO.N,+3V3*%
X103505000Y-91777500D03*
%TO.P,U1,26,GND*%
%TO.N,GND*%
X106045000Y-91777500D03*
%TO.P,U1,27,Pad_32*%
%TO.N,VGA_HSYNC*%
X108585000Y-91777500D03*
%TO.P,U1,28,Pad_31*%
%TO.N,VGA_BLUE*%
X111125000Y-91777500D03*
%TO.P,U1,29,Pad_49*%
%TO.N,VGA_GREEN*%
X113665000Y-91777500D03*
%TO.P,U1,30,Pad_48*%
%TO.N,VGA_RED*%
X116205000Y-91777500D03*
%TO.P,U1,31,5V*%
%TO.N,Net-(J5-Pad2)*%
X118745000Y-91777500D03*
%TO.P,U1,32,Pad_70*%
%TO.N,unconnected-(U1-Pad32)*%
X121285000Y-91777500D03*
%TO.P,U1,33,Pad_71*%
%TO.N,unconnected-(U1-Pad33)*%
X123825000Y-91777500D03*
%TO.P,U1,34,Pad_72*%
%TO.N,unconnected-(U1-Pad34)*%
X126365000Y-91777500D03*
%TO.P,U1,35,Pad_73*%
%TO.N,unconnected-(U1-Pad35)*%
X128905000Y-91777500D03*
%TO.P,U1,36,Pad_74*%
%TO.N,unconnected-(U1-Pad36)*%
X131445000Y-91777500D03*
%TO.P,U1,37,Pad_75*%
%TO.N,unconnected-(U1-Pad37)*%
X133985000Y-91777500D03*
%TO.P,U1,38,Pad_76*%
%TO.N,unconnected-(U1-Pad38)*%
X136525000Y-91777500D03*
%TO.P,U1,39,Pad_77*%
%TO.N,unconnected-(U1-Pad39)*%
X139065000Y-91777500D03*
%TO.P,U1,40,Pad_79*%
%TO.N,Net-(J4-Pad16)*%
X141605000Y-91777500D03*
%TO.P,U1,41,Pad_80*%
%TO.N,Net-(J4-Pad14)*%
X144145000Y-91777500D03*
%TO.P,U1,42,Pad_81*%
%TO.N,Net-(J4-Pad12)*%
X146685000Y-91777500D03*
%TO.P,U1,43,Pad_82*%
%TO.N,Net-(J4-Pad10)*%
X149225000Y-91777500D03*
%TO.P,U1,44,Pad_83*%
%TO.N,Net-(J4-Pad8)*%
X151765000Y-91777500D03*
%TO.P,U1,45,Pad_84*%
%TO.N,Net-(J4-Pad6)*%
X154305000Y-91777500D03*
%TO.P,U1,46,Pad_85*%
%TO.N,Net-(J4-Pad4)*%
X156845000Y-91777500D03*
%TO.P,U1,47,Pad_86*%
%TO.N,Net-(J4-Pad2)*%
X159385000Y-91777500D03*
%TO.P,U1,48,Pad_63*%
%TO.N,Net-(J3-Pad2)*%
X161925000Y-91777500D03*
%TD*%
D26*
%TO.N,GND*%
X147955000Y-55880000D03*
X130810000Y-57467500D03*
X150495000Y-64452500D03*
X137795000Y-52102500D03*
X154305000Y-64452500D03*
X150495000Y-59690000D03*
X159385000Y-59055000D03*
%TO.N,+3V3*%
X100647500Y-65722500D03*
X155575000Y-65755000D03*
%TO.N,Net-(J2-Pad14)*%
X119697500Y-110807500D03*
%TO.N,VIDEO2*%
X119005350Y-45980350D03*
%TO.N,Net-(R8-Pad1)*%
X155575000Y-55245000D03*
%TO.N,VSYNC*%
X146742150Y-46037500D03*
%TO.N,VIDEO*%
X142779750Y-46037500D03*
%TO.N,HSYNC*%
X136842500Y-46037500D03*
%TO.N,+12V*%
X133032500Y-49212500D03*
%TO.N,WIPER*%
X122967750Y-46990000D03*
%TO.N,POT*%
X126930150Y-46990000D03*
%TD*%
D27*
%TO.N,+5V*%
X128854987Y-52755013D02*
X130810000Y-52755013D01*
X126682500Y-54927500D02*
X128854987Y-52755013D01*
X124714000Y-54927500D02*
X126682500Y-54927500D01*
D28*
%TO.N,GND*%
X151765000Y-59055000D02*
X151130000Y-59690000D01*
D27*
X130810000Y-55880000D02*
X130810000Y-57467500D01*
D28*
X154305000Y-59055000D02*
X151765000Y-59055000D01*
X147955000Y-57565000D02*
X147955000Y-55880000D01*
X151765000Y-59055000D02*
X151765000Y-57565000D01*
D27*
X124714000Y-57467500D02*
X130810000Y-57467500D01*
D28*
X151130000Y-59690000D02*
X150495000Y-59690000D01*
X154305000Y-57565000D02*
X154305000Y-59055000D01*
X155575000Y-59055000D02*
X154305000Y-59055000D01*
X159385000Y-60472500D02*
X159385000Y-59055000D01*
X154305000Y-62515000D02*
X154305000Y-64452500D01*
D27*
X130810000Y-57467500D02*
X130810000Y-58762494D01*
D28*
X150495000Y-62515000D02*
X150495000Y-64452500D01*
X137795000Y-54032500D02*
X137795000Y-52102500D01*
X155575000Y-57565000D02*
X155575000Y-59055000D01*
%TO.N,+3V3*%
X155575000Y-62515000D02*
X155575000Y-65755000D01*
D27*
X100647500Y-65722500D02*
X100647500Y-91757500D01*
X100667500Y-91777500D02*
X103505000Y-91777500D01*
D28*
X155575000Y-62515000D02*
X159352500Y-62515000D01*
D27*
X100647500Y-91757500D02*
X100667500Y-91777500D01*
D28*
%TO.N,Net-(J2-Pad1)*%
X130992880Y-109157100D02*
X130992880Y-102465380D01*
%TO.N,Net-(J2-Pad2)*%
X127952500Y-104140000D02*
X127952500Y-102282500D01*
X128701800Y-109157100D02*
X128701800Y-104889300D01*
X128701800Y-104889300D02*
X127952500Y-104140000D01*
%TO.N,Net-(J2-Pad3)*%
X125095000Y-104140000D02*
X125095000Y-102282500D01*
X126415800Y-109157100D02*
X126415800Y-105460800D01*
X126415800Y-105460800D02*
X125095000Y-104140000D01*
%TO.N,Net-(J2-Pad13)*%
X125143860Y-113982500D02*
X126413260Y-112713100D01*
X118427500Y-102330000D02*
X118427500Y-111760000D01*
X118427500Y-111760000D02*
X120650000Y-113982500D01*
X120650000Y-113982500D02*
X125143860Y-113982500D01*
%TO.N,Net-(J2-Pad14)*%
X119697500Y-105727500D02*
X121285000Y-104140000D01*
X121285000Y-104140000D02*
X121285000Y-102282500D01*
X119697500Y-110807500D02*
X119697500Y-105727500D01*
%TO.N,VIDEO2*%
X140652500Y-46990000D02*
X142240000Y-48577500D01*
X142240000Y-48577500D02*
X144415000Y-48577500D01*
X136207500Y-46990000D02*
X140652500Y-46990000D01*
X119005350Y-45980350D02*
X135255000Y-45980350D01*
X135255000Y-46037500D02*
X136207500Y-46990000D01*
%TO.N,VGA_RED*%
X116205000Y-93662500D02*
X116205000Y-91777500D01*
X130810000Y-100282500D02*
X130810000Y-99377500D01*
X117475000Y-94932500D02*
X116205000Y-93662500D01*
X126365000Y-94932500D02*
X117475000Y-94932500D01*
X130810000Y-99377500D02*
X126365000Y-94932500D01*
%TO.N,VGA_GREEN*%
X113665000Y-93662500D02*
X113665000Y-91777500D01*
X124460000Y-95885000D02*
X115887500Y-95885000D01*
X115887500Y-95885000D02*
X113665000Y-93662500D01*
X127952500Y-99377500D02*
X124460000Y-95885000D01*
X127952500Y-100282500D02*
X127952500Y-99377500D01*
%TO.N,VGA_BLUE*%
X125095000Y-100282500D02*
X125095000Y-99377500D01*
X125095000Y-99377500D02*
X122555000Y-96837500D01*
X111125000Y-93662500D02*
X111125000Y-91777500D01*
X122555000Y-96837500D02*
X114300000Y-96837500D01*
X114300000Y-96837500D02*
X111125000Y-93662500D01*
%TO.N,VGA_HSYNC*%
X113030000Y-98742500D02*
X117792500Y-98742500D01*
X118427500Y-99377500D02*
X118427500Y-100012500D01*
X108585000Y-91777500D02*
X108585000Y-94297500D01*
X117792500Y-98742500D02*
X118427500Y-99377500D01*
X108585000Y-94297500D02*
X113030000Y-98742500D01*
%TO.N,VGA_VSYNC*%
X109855000Y-93980000D02*
X109855000Y-81915000D01*
X119697500Y-97790000D02*
X113665000Y-97790000D01*
X109855000Y-81915000D02*
X108585000Y-80645000D01*
X108585000Y-80645000D02*
X108585000Y-68877500D01*
X121285000Y-100282500D02*
X121285000Y-99377500D01*
X121285000Y-99377500D02*
X119697500Y-97790000D01*
X113665000Y-97790000D02*
X109855000Y-93980000D01*
%TO.N,Net-(R8-Pad1)*%
X152400000Y-60642500D02*
X149860000Y-60642500D01*
X151130000Y-55245000D02*
X155575000Y-55245000D01*
X155575000Y-55245000D02*
X155892500Y-55245000D01*
X146685000Y-48577500D02*
X146685000Y-53340000D01*
X149225000Y-61277500D02*
X149225000Y-62515000D01*
X155892500Y-60007500D02*
X153035000Y-60007500D01*
X149860000Y-60642500D02*
X149225000Y-61277500D01*
X149860000Y-53975000D02*
X151130000Y-55245000D01*
X156845000Y-56197500D02*
X156845000Y-59055000D01*
X146685000Y-53340000D02*
X147320000Y-53975000D01*
X155892500Y-55245000D02*
X156845000Y-56197500D01*
X147320000Y-53975000D02*
X149860000Y-53975000D01*
X153670000Y-48577500D02*
X155575000Y-50482500D01*
X153035000Y-60007500D02*
X152400000Y-60642500D01*
X155575000Y-50482500D02*
X155575000Y-52070000D01*
X156845000Y-59055000D02*
X155892500Y-60007500D01*
X151542500Y-48577500D02*
X153670000Y-48577500D01*
%TO.N,VSYNC*%
X157797500Y-59372500D02*
X156210000Y-60960000D01*
X151130000Y-53975000D02*
X156210000Y-53975000D01*
X149542500Y-46037500D02*
X146742150Y-46037500D01*
X150495000Y-46990000D02*
X150495000Y-52070000D01*
X156210000Y-60960000D02*
X153352500Y-60960000D01*
X153035000Y-61277500D02*
X153035000Y-62515000D01*
X157797500Y-55562500D02*
X157797500Y-59372500D01*
X150495000Y-52070000D02*
X150495000Y-53340000D01*
X150495000Y-53340000D02*
X151130000Y-53975000D01*
X156210000Y-53975000D02*
X157797500Y-55562500D01*
X153352500Y-60960000D02*
X153035000Y-61277500D01*
X149542500Y-46037500D02*
X150495000Y-46990000D01*
%TO.N,VIDEO*%
X146195321Y-46990000D02*
X145242821Y-46037500D01*
X148907500Y-46990000D02*
X146195321Y-46990000D01*
X148907500Y-46990000D02*
X149542500Y-47625000D01*
X145242821Y-46037500D02*
X142779750Y-46037500D01*
X149542500Y-47625000D02*
X149542500Y-48577500D01*
%TO.N,HSYNC*%
X149542500Y-54927500D02*
X150495000Y-55880000D01*
X145415000Y-53340000D02*
X147002500Y-54927500D01*
X147002500Y-54927500D02*
X149542500Y-54927500D01*
X141287500Y-46037500D02*
X142240000Y-46990000D01*
X145415000Y-52070000D02*
X145415000Y-53340000D01*
X142240000Y-46990000D02*
X144780000Y-46990000D01*
X136842500Y-46037500D02*
X141287500Y-46037500D01*
X144780000Y-46990000D02*
X145415000Y-47625000D01*
X150495000Y-55880000D02*
X150495000Y-57565000D01*
X145415000Y-47625000D02*
X145415000Y-52070000D01*
%TO.N,HSYNCX*%
X149225000Y-57565000D02*
X149225000Y-59055000D01*
X146685000Y-61595000D02*
X146685000Y-68877500D01*
X149225000Y-59055000D02*
X146685000Y-61595000D01*
%TO.N,VIDEOX*%
X147955000Y-62515000D02*
X147955000Y-64452500D01*
X147955000Y-64452500D02*
X149225000Y-65722500D01*
X149225000Y-65722500D02*
X149225000Y-68877500D01*
%TO.N,VSYNCX*%
X151765000Y-62515000D02*
X151765000Y-68877500D01*
D27*
%TO.N,+12V*%
X126682500Y-60007500D02*
X128587500Y-61912500D01*
X124714000Y-60007500D02*
X126682500Y-60007500D01*
X133032500Y-61887506D02*
X130810000Y-61887506D01*
X128587500Y-61912500D02*
X130785006Y-61912500D01*
X133032500Y-49212500D02*
X133032500Y-61912500D01*
D28*
%TO.N,Net-(J3-Pad2)*%
X161925000Y-91777490D02*
X161925000Y-98410010D01*
%TO.N,Net-(J4-Pad2)*%
X159385000Y-93345000D02*
X156829989Y-95900011D01*
X156829989Y-95880021D02*
X156829989Y-98425000D01*
X159385000Y-91777490D02*
X159385000Y-93345000D01*
%TO.N,Net-(J4-Pad4)*%
X156845000Y-93345000D02*
X154289989Y-95900011D01*
X154289989Y-95880021D02*
X154289989Y-98425000D01*
X156845000Y-91777490D02*
X156845000Y-93345000D01*
%TO.N,Net-(J4-Pad6)*%
X154305000Y-93345000D02*
X151749989Y-95900011D01*
X154305000Y-91777490D02*
X154305000Y-93345000D01*
X151749989Y-95880021D02*
X151749989Y-98425000D01*
%TO.N,Net-(J4-Pad8)*%
X149209989Y-95880021D02*
X149209989Y-98425000D01*
X151765000Y-91777490D02*
X151765000Y-93345000D01*
X151765000Y-93345000D02*
X149209989Y-95900011D01*
%TO.N,Net-(J4-Pad10)*%
X149225000Y-93345000D02*
X146669989Y-95900011D01*
X146669989Y-95880021D02*
X146669989Y-98425000D01*
X149225000Y-91777490D02*
X149225000Y-93345000D01*
%TO.N,Net-(J4-Pad12)*%
X146685000Y-91777490D02*
X146685000Y-93345000D01*
X144129989Y-95880021D02*
X144129989Y-98425000D01*
X146685000Y-93345000D02*
X144129989Y-95900011D01*
%TO.N,Net-(J4-Pad14)*%
X144145000Y-91777490D02*
X144145000Y-93345000D01*
X144145000Y-93345000D02*
X141589989Y-95900011D01*
X141589989Y-95880021D02*
X141589989Y-98425000D01*
%TO.N,Net-(J4-Pad16)*%
X141605000Y-91777490D02*
X141605000Y-93345000D01*
X139049989Y-95880021D02*
X139049989Y-98425000D01*
X141605000Y-93345000D02*
X139049989Y-95900011D01*
D27*
%TO.N,Net-(J5-Pad2)*%
X109855000Y-67627500D02*
X109855000Y-65722500D01*
X109855000Y-79375000D02*
X109855000Y-70326250D01*
X118745000Y-88582500D02*
X109855000Y-79692500D01*
X102235000Y-65722500D02*
X102235000Y-62542500D01*
D29*
X109855000Y-70326250D02*
X109855000Y-67786250D01*
D27*
X118745000Y-91777490D02*
X118745000Y-88582500D01*
X109855000Y-65722500D02*
X102235000Y-65722500D01*
D28*
%TO.N,WIPER*%
X137795000Y-57157500D02*
X136500000Y-57157500D01*
X123920250Y-47942500D02*
X122967750Y-46990000D01*
X133667500Y-47942500D02*
X123920250Y-47942500D01*
X135255000Y-55912500D02*
X135255000Y-49530000D01*
X136500000Y-57157500D02*
X135255000Y-55912500D01*
X137795000Y-57182500D02*
X137795000Y-59675000D01*
X135255000Y-49530000D02*
X133667500Y-47942500D01*
%TO.N,POT*%
X126930150Y-46990000D02*
X134426325Y-46990000D01*
X134426325Y-46990000D02*
X141605000Y-54168675D01*
X141605000Y-54168675D02*
X141605000Y-59675000D01*
%TO.N,Net-(R7-Pad1)*%
X139065000Y-61627500D02*
X137842500Y-61627500D01*
X139065000Y-68910000D02*
X139065000Y-61627500D01*
%TO.N,Net-(R6-Pad1)*%
X141605000Y-68910000D02*
X141605000Y-61675000D01*
%TD*%
M02*
