M48
; DRILL file {KiCad (6.0.0)} date Sun Jan 29 22:37:35 2023
; FORMAT={-:-/ absolute / inch / decimal}
; #@! TF.CreationDate,2023-01-29T22:37:35-05:00
; #@! TF.GenerationSoftware,Kicad,Pcbnew,(6.0.0)
; #@! TF.FileFunction,Plated,1,2,PTH
FMAT,2
INCH
; #@! TA.AperFunction,Plated,PTH,ViaDrill
T1C0.0157
; #@! TA.AperFunction,Plated,PTH,ComponentDrill
T2C0.0197
; #@! TA.AperFunction,Plated,PTH,ComponentDrill
T3C0.0256
; #@! TA.AperFunction,Plated,PTH,ComponentDrill
T4C0.0276
; #@! TA.AperFunction,Plated,PTH,ComponentDrill
T5C0.0315
; #@! TA.AperFunction,Plated,PTH,ComponentDrill
T6C0.0394
; #@! TA.AperFunction,Plated,PTH,ComponentDrill
T7C0.0400
; #@! TA.AperFunction,Plated,PTH,ComponentDrill
T8C0.1181
; #@! TA.AperFunction,Plated,PTH,ComponentDrill
T9C0.1260
; #@! TA.AperFunction,Plated,PTH,ComponentDrill
T10C0.1300
%
G90
G05
T1
X3.9625Y-2.5875
X4.6852Y-1.8102
X4.7125Y-4.3625
X4.8412Y-1.85
X4.9973Y-1.85
X5.15Y-2.2625
X5.2375Y-1.9375
X5.3875Y-1.8125
X5.425Y-2.0513
X5.6212Y-1.8125
X5.7772Y-1.8125
X5.825Y-2.2
X5.925Y-2.35
X5.925Y-2.5375
X6.075Y-2.5375
X6.125Y-2.175
X6.125Y-2.5888
X6.275Y-2.325
T2
X3.8489Y-4.325
X3.8491Y-1.9376
X3.8749Y-4.2624
X3.8749Y-4.3876
X3.875Y-1.875
X3.875Y-2.0003
X3.9375Y-4.2364
X3.9375Y-4.4136
X3.9376Y-1.8491
X3.9376Y-2.0262
X4.0001Y-4.2624
X4.0001Y-4.3876
X4.0003Y-1.875
X4.0003Y-2.0003
X4.0261Y-4.325
X4.0262Y-1.9376
X6.4364Y-1.9375
X6.4364Y-4.325
X6.4624Y-1.8749
X6.4624Y-2.0001
X6.4624Y-4.2624
X6.4624Y-4.3876
X6.525Y-1.8489
X6.525Y-2.0261
X6.525Y-4.2364
X6.525Y-4.4136
X6.5876Y-1.8749
X6.5876Y-2.0001
X6.5876Y-4.2624
X6.5876Y-4.3876
X6.6136Y-1.9375
X6.6136Y-4.325
T3
X5.1572Y-4.2975
T4
X4.7965Y-4.4375
X4.7966Y-4.2975
X4.8415Y-4.367
X4.8867Y-4.2975
X4.8867Y-4.4375
X4.931Y-4.367
X4.9769Y-4.4375
X4.977Y-4.2975
X5.0215Y-4.367
X5.067Y-4.2975
X5.067Y-4.4375
X5.112Y-4.367
X5.1572Y-4.4375
X5.2023Y-4.367
T5
X4.075Y-2.7117
X4.075Y-3.6133
X4.175Y-2.7117
X4.175Y-3.6133
X4.275Y-2.7117
X4.275Y-3.6133
X4.375Y-2.7117
X4.375Y-3.6133
X4.475Y-2.7117
X4.475Y-3.6133
X4.575Y-2.7117
X4.575Y-3.6133
X4.675Y-2.7117
X4.675Y-3.6133
X4.775Y-2.7117
X4.775Y-3.6133
X4.875Y-2.7117
X4.875Y-3.6133
X4.975Y-2.7117
X4.975Y-3.6133
X5.075Y-2.7117
X5.075Y-3.6133
X5.175Y-2.7117
X5.175Y-3.6133
X5.275Y-2.7117
X5.275Y-3.6133
X5.375Y-2.7117
X5.375Y-3.6133
X5.475Y-2.7117
X5.475Y-3.6133
X5.575Y-2.7117
X5.575Y-3.6133
X5.675Y-2.7117
X5.675Y-3.6133
X5.775Y-2.7117
X5.775Y-3.6133
X5.875Y-2.7117
X5.875Y-3.6133
X5.975Y-2.7117
X5.975Y-3.6133
X6.075Y-2.7117
X6.075Y-3.6133
X6.175Y-2.7117
X6.175Y-3.6133
X6.275Y-2.7117
X6.275Y-3.6133
X6.375Y-2.7117
X6.375Y-3.6133
T6
X4.025Y-2.3623
X4.025Y-2.4623
X5.4744Y-3.875
X5.4744Y-3.975
X5.5744Y-3.875
X5.5744Y-3.975
X5.6744Y-3.875
X5.6744Y-3.975
X5.725Y-2.05
X5.7744Y-3.875
X5.7744Y-3.975
X5.825Y-2.05
X5.8744Y-3.875
X5.8744Y-3.975
X5.925Y-2.05
X5.9744Y-3.875
X5.9744Y-3.975
X6.025Y-2.05
X6.0744Y-3.875
X6.0744Y-3.975
X6.125Y-2.05
X6.1744Y-3.875
X6.1744Y-3.975
X6.225Y-2.05
X6.375Y-3.8744
X6.375Y-3.9744
T7
X4.91Y-2.1625
X4.91Y-2.2625
X4.91Y-2.3625
T8
X3.9375Y-4.325
X3.9376Y-1.9376
X6.525Y-1.9375
X6.525Y-4.325
T9
X4.4956Y-4.3652
X5.4794Y-4.3652
T10
X4.32Y-2.2625
T0
M30
